<?xml version="1.0" encoding="UTF-8" standalone="no"?>
<!-- Created with Inkscape (http://www.inkscape.org/) -->

<svg
   xmlns:ns0="http://www.iki.fi/pav/software/textext/"
   xmlns:dc="http://purl.org/dc/elements/1.1/"
   xmlns:cc="http://creativecommons.org/ns#"
   xmlns:rdf="http://www.w3.org/1999/02/22-rdf-syntax-ns#"
   xmlns:svg="http://www.w3.org/2000/svg"
   xmlns="http://www.w3.org/2000/svg"
   xmlns:sodipodi="http://sodipodi.sourceforge.net/DTD/sodipodi-0.dtd"
   xmlns:inkscape="http://www.inkscape.org/namespaces/inkscape"
   width="35mm"
   height="30mm"
   viewBox="0 0 124.01575 106.29921"
   id="svg2"
   version="1.1"
   inkscape:version="0.91 r13725"
   sodipodi:docname="Question_Mark.svg">
  <sodipodi:namedview
     id="base"
     pagecolor="#ffffff"
     bordercolor="#666666"
     borderopacity="1.0"
     inkscape:pageopacity="0.0"
     inkscape:pageshadow="2"
     inkscape:zoom="13.311481"
     inkscape:cx="62.007874"
     inkscape:cy="53.149606"
     inkscape:document-units="mm"
     inkscape:current-layer="layer1"
     showgrid="true"
     inkscape:window-width="3200"
     inkscape:window-height="1671"
     inkscape:window-x="0"
     inkscape:window-y="55"
     inkscape:window-maximized="1">
    <inkscape:grid
       id="grid3336"
       type="xygrid" />
  </sodipodi:namedview>
  <defs
     id="defs4" />
  <metadata
     id="metadata7">
    <rdf:RDF>
      <cc:Work
         rdf:about="">
        <dc:format>image/svg+xml</dc:format>
        <dc:type
           rdf:resource="http://purl.org/dc/dcmitype/StillImage" />
        <dc:title></dc:title>
      </cc:Work>
    </rdf:RDF>
  </metadata>
  <g
     transform="translate(0,-946.06299)"
     id="layer1"
     inkscape:groupmode="layer"
     inkscape:label="Layer 1">
    <g
       style="font-style:normal;font-variant:normal;font-weight:normal;font-stretch:normal;letter-spacing:normal;word-spacing:normal;text-anchor:start;fill:none;fill-opacity:1;fill-rule:evenodd;stroke:#000000;stroke-linecap:butt;stroke-linejoin:miter;stroke-miterlimit:10.43299961;stroke-dasharray:none;stroke-dashoffset:0;stroke-opacity:1"
       ns0:preamble="/home/shreyas/.config/inkscape/extensions/preamble.tex"
       ns0:text="$e^{i\\pi} = -1$"
       word-spacing="normal"
       letter-spacing="normal"
       font-size-adjust="none"
       font-stretch="normal"
       font-weight="normal"
       font-variant="normal"
       font-style="normal"
       stroke-miterlimit="10.433"
       xml:space="preserve"
       transform="matrix(1,0,0,-1,-268.30681,1510.6084)"
       id="content"><path
         style="fill:#000000;stroke-width:0"
         inkscape:connector-curvature="0"
         id="path3345"
         d="m 225.29,659.53 0.03,0 0.03,0 0.03,0 0.04,0 0.04,0 0.04,0 0.04,0 0.04,0.01 0.05,0 0.04,0 0.05,0 0.05,0.01 0.05,0 0.05,0.01 0.11,0.01 0.1,0.01 0.11,0.01 0.11,0.02 0.11,0.02 0.1,0.03 0.06,0.01 0.05,0.02 0.05,0.01 0.05,0.02 0.05,0.02 0.05,0.02 c 0.69,0.3 0.74,0.88 0.74,1.02 0,0.44 -0.38,0.85 -1.06,0.85 l 0,-0.22 c 0.46,0 0.73,-0.29 0.73,-0.63 0,-1.03 -1.59,-1.03 -2,-1.03 l -0.41,0 c 0.39,1.51 1.42,1.66 1.68,1.66 l 0,0.22 c -1.11,0 -2.61,-0.97 -2.61,-2.71 0,-1.01 0.59,-1.79 1.56,-1.79 1.42,0 2.26,1.05 2.26,1.17 0,0.06 -0.06,0.13 -0.12,0.13 -0.05,0 -0.07,-0.02 -0.13,-0.1 -0.78,-0.99 -1.87,-0.99 -1.99,-0.99 -0.77,0 -0.86,0.84 -0.86,1.16 0,0.12 0.01,0.42 0.15,1.03 z" /><path
         style="fill:#000000;stroke-width:0"
         inkscape:connector-curvature="0"
         id="path3347"
         d="m 230.33,665.2 0,0.01 0,0.01 -0.01,0.01 0,0.01 0,0.01 0,0.01 -0.01,0.01 0,0.02 0,0.01 -0.01,0.01 0,0.01 -0.01,0.01 -0.01,0.01 0,0.01 -0.01,0.01 -0.01,0.01 -0.01,0.01 -0.01,0.01 -0.01,0.01 -0.01,0.01 -0.01,0 -0.01,0.01 -0.01,0.01 -0.02,0.01 -0.01,0 -0.01,0.01 -0.02,0 -0.01,0 -0.02,0.01 -0.02,0 -0.01,0 -0.02,0 c -0.19,0 -0.39,-0.18 -0.39,-0.38 0,-0.12 0.09,-0.26 0.28,-0.26 0.2,0 0.39,0.19 0.39,0.38 z" /><path
         style="fill:#000000;stroke-width:0"
         inkscape:connector-curvature="0"
         id="path3349"
         d="m 228.91,661.66 -0.01,-0.01 0,-0.02 -0.01,-0.03 -0.01,-0.02 -0.01,-0.02 0,-0.01 -0.01,-0.02 0,-0.02 0,-0.02 -0.01,-0.02 0,-0.01 0,-0.01 0,-0.01 0,-0.01 0,-0.01 -0.01,-0.02 0,-0.01 0,-0.01 0,-0.01 c 0,-0.32 0.28,-0.59 0.67,-0.59 0.69,0 1,0.96 1,1.06 0,0.1 -0.09,0.1 -0.11,0.1 -0.1,0 -0.11,-0.05 -0.14,-0.12 -0.16,-0.56 -0.46,-0.84 -0.73,-0.84 -0.14,0 -0.18,0.09 -0.18,0.24 0,0.16 0.05,0.29 0.11,0.44 0.07,0.19 0.15,0.38 0.23,0.56 0.06,0.17 0.31,0.8 0.34,0.88 0.02,0.07 0.04,0.16 0.04,0.23 0,0.32 -0.28,0.59 -0.66,0.59 -0.69,0 -1.01,-0.95 -1.01,-1.07 0,-0.09 0.1,-0.09 0.12,-0.09 0.09,0 0.1,0.04 0.12,0.12 0.18,0.59 0.49,0.84 0.75,0.84 0.11,0 0.17,-0.05 0.17,-0.24 0,-0.16 -0.04,-0.26 -0.21,-0.7 z" /><path
         style="fill:#000000;stroke-width:0"
         inkscape:connector-curvature="0"
         id="path3351"
         d="m 233.06,663.38 0.82,0 c -0.1,-0.42 -0.25,-1.05 -0.25,-1.6 0,-0.28 0.03,-0.47 0.07,-0.62 0.12,-0.35 0.2,-0.38 0.32,-0.38 0.16,0 0.32,0.15 0.32,0.31 0,0.06 -0.01,0.09 -0.05,0.16 -0.13,0.26 -0.26,0.65 -0.26,1.22 0,0.13 0,0.41 0.1,0.91 l 0.87,0 c 0.12,0 0.18,0 0.26,0.05 0.09,0.07 0.12,0.18 0.12,0.22 0,0.2 -0.19,0.2 -0.31,0.2 l -2.62,0 c -0.29,0 -0.48,-0.06 -0.79,-0.36 -0.18,-0.16 -0.46,-0.53 -0.46,-0.59 0,-0.09 0.09,-0.09 0.12,-0.09 0.08,0 0.08,0.02 0.13,0.08 0.35,0.49 0.78,0.49 0.94,0.49 l 0.42,0 c -0.21,-0.77 -0.59,-1.59 -0.8,-2.01 -0.04,-0.09 -0.11,-0.23 -0.13,-0.26 -0.01,-0.03 -0.02,-0.06 -0.02,-0.11 0,-0.11 0.08,-0.22 0.24,-0.22 0.28,0 0.36,0.31 0.52,0.94 z" /><path
         style="fill:#000000;stroke-width:0"
         inkscape:connector-curvature="0"
         id="path3353"
         d="m 245.9,660.48 0.03,0 0.03,0 0.03,0 0.01,0.01 0.01,0 0.02,0 0.01,0 0.02,0 0.01,0 0.02,0.01 0.01,0 0.01,0 0.01,0.01 0.02,0 0.01,0.01 0.01,0 0.01,0.01 0.01,0.01 0.01,0.01 0.01,0.01 0.01,0.01 0,0 0,0.01 0.01,0 0,0.01 0,0.01 0,0 0.01,0.01 0,0.01 0,0 0,0.01 0,0.01 0,0.01 0.01,0.01 0,0 0,0.01 0,0.01 c 0,0.2 -0.19,0.2 -0.33,0.2 l -5.96,0 c -0.14,0 -0.33,0 -0.33,-0.2 0,-0.2 0.19,-0.2 0.34,-0.2 z" /><path
         style="fill:#000000;stroke-width:0"
         inkscape:connector-curvature="0"
         id="path3355"
         d="m 245.91,658.56 0.01,0 0.02,0 0.02,0 0.03,0 0.01,0 0.02,0 0.01,0 0.02,0 0.01,0 0.01,0.01 0.02,0 0.01,0 0.01,0.01 0.02,0 0.01,0.01 0.01,0 0.01,0.01 0.01,0 0.01,0.01 0.01,0.01 0.01,0.01 0,0 0.01,0.01 0,0.01 0,0 0.01,0.01 0,0 0,0.01 0,0.01 0.01,0 0,0.01 0,0.01 0,0 0,0.01 0,0.01 0.01,0.01 0,0.01 0,0.01 0,0.01 c 0,0.19 -0.19,0.19 -0.34,0.19 l -5.94,0 c -0.15,0 -0.34,0 -0.34,-0.19 0,-0.2 0.19,-0.2 0.33,-0.2 z" /><path
         style="fill:#000000;stroke-width:0"
         inkscape:connector-curvature="0"
         id="path3357"
         d="m 256.14,659.52 0.03,0 0.03,0 0.03,0 0.02,0 0.01,0 0.02,0 0.01,0.01 0.02,0 0.01,0 0.02,0 0.01,0.01 0.01,0 0.01,0 0.02,0.01 0.01,0.01 0.01,0 0.01,0.01 0.01,0.01 0.01,0 0.01,0.01 0,0.01 0.01,0.01 0,0 0,0.01 0.01,0.01 0,0 0,0.01 0,0.01 0.01,0 0,0.01 0,0.01 0,0.01 0,0 0,0.01 0,0.01 0,0.01 0,0.01 c 0,0.2 -0.17,0.2 -0.34,0.2 l -5.39,0 c -0.16,0 -0.34,0 -0.34,-0.2 0,-0.2 0.18,-0.2 0.34,-0.2 z" /><path
         style="fill:#000000;stroke-width:0"
         inkscape:connector-curvature="0"
         id="path3359"
         d="m 260.25,663.59 0,0.01 0,0.01 0,0.02 0,0.01 0,0 0,0.01 0,0.01 0,0.01 0,0.01 0,0.01 0,0.01 0,0.01 0,0 0,0.01 0,0.01 0,0 0,0.01 0,0.01 0,0.01 -0.01,0.01 0,0.01 0,0.01 -0.01,0.01 0,0 0,0.01 -0.01,0.01 -0.01,0 0,0.01 -0.01,0 -0.01,0.01 -0.01,0 0,0 -0.01,0 0,0 -0.01,0 0,0 -0.01,0.01 -0.01,0 0,0 -0.01,0 -0.01,0 0,0 -0.01,0 -0.01,0 -0.01,0 -0.01,0 -0.01,0 0,0 -0.01,0 -0.01,0 -0.01,0 -0.02,0 c -0.61,-0.63 -1.49,-0.63 -1.81,-0.63 l 0,-0.31 c 0.2,0 0.79,0 1.31,0.25 l 0,-5.14 c 0,-0.36 -0.03,-0.48 -0.93,-0.48 l -0.32,0 0,-0.31 c 0.35,0.04 1.22,0.04 1.62,0.04 0.39,0 1.26,0 1.61,-0.04 l 0,0.31 -0.32,0 c -0.9,0 -0.93,0.11 -0.93,0.48 z" /></g>    <text
       xml:space="preserve"
       style="font-style:normal;font-weight:normal;font-size:109.26011658px;line-height:125%;font-family:sans-serif;letter-spacing:0px;word-spacing:0px;fill:#000000;fill-opacity:1;stroke:none;stroke-width:1px;stroke-linecap:butt;stroke-linejoin:miter;stroke-opacity:1"
       x="35.449299"
       y="1037.9636"
       id="text4143"
       sodipodi:linespacing="125%"><tspan
         sodipodi:role="line"
         id="tspan4145"
         x="35.449299"
         y="1037.9636">?</tspan></text>
  </g>
</svg>
