<?xml version="1.0" encoding="UTF-8" standalone="no"?>
<!-- Created with Inkscape (http://www.inkscape.org/) -->

<svg
   xmlns:ns0="http://www.iki.fi/pav/software/textext/"
   xmlns:dc="http://purl.org/dc/elements/1.1/"
   xmlns:cc="http://creativecommons.org/ns#"
   xmlns:rdf="http://www.w3.org/1999/02/22-rdf-syntax-ns#"
   xmlns:svg="http://www.w3.org/2000/svg"
   xmlns="http://www.w3.org/2000/svg"
   xmlns:sodipodi="http://sodipodi.sourceforge.net/DTD/sodipodi-0.dtd"
   xmlns:inkscape="http://www.inkscape.org/namespaces/inkscape"
   width="70mm"
   height="40mm"
   viewBox="0 0 248.03149 141.73227"
   id="svg2"
   version="1.1"
   inkscape:version="0.91 r13725"
   sodipodi:docname="Theory_Schematic.svg">
  <sodipodi:namedview
     id="base"
     pagecolor="#ffffff"
     bordercolor="#666666"
     borderopacity="1.0"
     inkscape:pageopacity="0.0"
     inkscape:pageshadow="2"
     inkscape:zoom="7.0245559"
     inkscape:cx="79.668307"
     inkscape:cy="58.076042"
     inkscape:document-units="mm"
     inkscape:current-layer="layer1"
     showgrid="true"
     inkscape:window-width="3200"
     inkscape:window-height="1671"
     inkscape:window-x="0"
     inkscape:window-y="55"
     inkscape:window-maximized="1">
    <inkscape:grid
       type="xygrid"
       id="grid3336" />
  </sodipodi:namedview>
  <defs
     id="defs4">
    <marker
       inkscape:isstock="true"
       style="overflow:visible"
       id="marker8247"
       refX="0"
       refY="0"
       orient="auto"
       inkscape:stockid="Arrow1Mend">
      <path
         inkscape:connector-curvature="0"
         transform="matrix(-0.4,0,0,-0.4,-4,0)"
         style="fill:#a39b9b;fill-opacity:1;fill-rule:evenodd;stroke:#a39b9b;stroke-width:1pt;stroke-opacity:1"
         d="M 0,0 5,-5 -12.5,0 5,5 0,0 Z"
         id="path8249" />
    </marker>
    <marker
       inkscape:stockid="Arrow1Mstart"
       orient="auto"
       refY="0"
       refX="0"
       id="marker6357"
       style="overflow:visible"
       inkscape:isstock="true">
      <path
         id="path6359"
         d="M 0,0 5,-5 -12.5,0 5,5 0,0 Z"
         style="fill:#a39b9b;fill-opacity:1;fill-rule:evenodd;stroke:#a39b9b;stroke-width:1pt;stroke-opacity:1"
         transform="matrix(0.4,0,0,0.4,4,0)"
         inkscape:connector-curvature="0" />
    </marker>
    <marker
       inkscape:stockid="Arrow1Mend"
       orient="auto"
       refY="0"
       refX="0"
       id="marker6311"
       style="overflow:visible"
       inkscape:isstock="true"
       inkscape:collect="always">
      <path
         id="path6313"
         d="M 0,0 5,-5 -12.5,0 5,5 0,0 Z"
         style="fill:#a39b9b;fill-opacity:1;fill-rule:evenodd;stroke:#a39b9b;stroke-width:1pt;stroke-opacity:1"
         transform="matrix(-0.4,0,0,-0.4,-4,0)"
         inkscape:connector-curvature="0" />
    </marker>
    <marker
       inkscape:isstock="true"
       style="overflow:visible"
       id="Arrow1Lend"
       refX="0"
       refY="0"
       orient="auto"
       inkscape:stockid="Arrow1Lend">
      <path
         inkscape:connector-curvature="0"
         transform="matrix(-0.8,0,0,-0.8,-10,0)"
         style="fill:#000000;fill-opacity:1;fill-rule:evenodd;stroke:#000000;stroke-width:1pt;stroke-opacity:1"
         d="M 0,0 5,-5 -12.5,0 5,5 0,0 Z"
         id="path4484" />
    </marker>
    <marker
       inkscape:stockid="Arrow1Mstart"
       orient="auto"
       refY="0"
       refX="0"
       id="marker6357-5"
       style="overflow:visible"
       inkscape:isstock="true">
      <path
         id="path6359-0"
         d="M 0,0 5,-5 -12.5,0 5,5 0,0 Z"
         style="fill:#a39b9b;fill-opacity:1;fill-rule:evenodd;stroke:#a39b9b;stroke-width:1pt;stroke-opacity:1"
         transform="matrix(0.4,0,0,0.4,4,0)"
         inkscape:connector-curvature="0" />
    </marker>
    <marker
       inkscape:stockid="Arrow1Mend"
       orient="auto"
       refY="0"
       refX="0"
       id="marker6311-3"
       style="overflow:visible"
       inkscape:isstock="true">
      <path
         id="path6313-6"
         d="M 0,0 5,-5 -12.5,0 5,5 0,0 Z"
         style="fill:#a39b9b;fill-opacity:1;fill-rule:evenodd;stroke:#a39b9b;stroke-width:1pt;stroke-opacity:1"
         transform="matrix(-0.4,0,0,-0.4,-4,0)"
         inkscape:connector-curvature="0" />
    </marker>
    <marker
       inkscape:stockid="Arrow1Mstart"
       orient="auto"
       refY="0"
       refX="0"
       id="marker6357-5-3"
       style="overflow:visible"
       inkscape:isstock="true">
      <path
         id="path6359-0-2"
         d="M 0,0 5,-5 -12.5,0 5,5 0,0 Z"
         style="fill:#a39b9b;fill-opacity:1;fill-rule:evenodd;stroke:#a39b9b;stroke-width:1pt;stroke-opacity:1"
         transform="matrix(0.4,0,0,0.4,4,0)"
         inkscape:connector-curvature="0" />
    </marker>
    <marker
       inkscape:stockid="Arrow1Mend"
       orient="auto"
       refY="0"
       refX="0"
       id="marker6311-3-0"
       style="overflow:visible"
       inkscape:isstock="true">
      <path
         id="path6313-6-6"
         d="M 0,0 5,-5 -12.5,0 5,5 0,0 Z"
         style="fill:#a39b9b;fill-opacity:1;fill-rule:evenodd;stroke:#a39b9b;stroke-width:1pt;stroke-opacity:1"
         transform="matrix(-0.4,0,0,-0.4,-4,0)"
         inkscape:connector-curvature="0" />
    </marker>
    <marker
       inkscape:stockid="Arrow1Mstart"
       orient="auto"
       refY="0"
       refX="0"
       id="marker6357-5-5"
       style="overflow:visible"
       inkscape:isstock="true">
      <path
         id="path6359-0-5"
         d="M 0,0 5,-5 -12.5,0 5,5 0,0 Z"
         style="fill:#a39b9b;fill-opacity:1;fill-rule:evenodd;stroke:#a39b9b;stroke-width:1pt;stroke-opacity:1"
         transform="matrix(0.4,0,0,0.4,4,0)"
         inkscape:connector-curvature="0" />
    </marker>
    <marker
       inkscape:stockid="Arrow1Mend"
       orient="auto"
       refY="0"
       refX="0"
       id="marker6311-3-4"
       style="overflow:visible"
       inkscape:isstock="true">
      <path
         id="path6313-6-7"
         d="M 0,0 5,-5 -12.5,0 5,5 0,0 Z"
         style="fill:#a39b9b;fill-opacity:1;fill-rule:evenodd;stroke:#a39b9b;stroke-width:1pt;stroke-opacity:1"
         transform="matrix(-0.4,0,0,-0.4,-4,0)"
         inkscape:connector-curvature="0" />
    </marker>
    <marker
       inkscape:stockid="Arrow1Mstart"
       orient="auto"
       refY="0"
       refX="0"
       id="marker6357-56"
       style="overflow:visible"
       inkscape:isstock="true">
      <path
         id="path6359-9"
         d="M 0,0 5,-5 -12.5,0 5,5 0,0 Z"
         style="fill:#a39b9b;fill-opacity:1;fill-rule:evenodd;stroke:#a39b9b;stroke-width:1pt;stroke-opacity:1"
         transform="matrix(0.4,0,0,0.4,4,0)"
         inkscape:connector-curvature="0" />
    </marker>
    <marker
       inkscape:stockid="Arrow1Mend"
       orient="auto"
       refY="0"
       refX="0"
       id="marker6311-37"
       style="overflow:visible"
       inkscape:isstock="true">
      <path
         id="path6313-4"
         d="M 0,0 5,-5 -12.5,0 5,5 0,0 Z"
         style="fill:#a39b9b;fill-opacity:1;fill-rule:evenodd;stroke:#a39b9b;stroke-width:1pt;stroke-opacity:1"
         transform="matrix(-0.4,0,0,-0.4,-4,0)"
         inkscape:connector-curvature="0" />
    </marker>
    <marker
       inkscape:stockid="Arrow1Mend"
       orient="auto"
       refY="0"
       refX="0"
       id="marker6311-5"
       style="overflow:visible"
       inkscape:isstock="true">
      <path
         id="path6313-47"
         d="M 0,0 5,-5 -12.5,0 5,5 0,0 Z"
         style="fill:#a39b9b;fill-opacity:1;fill-rule:evenodd;stroke:#a39b9b;stroke-width:1pt;stroke-opacity:1"
         transform="matrix(-0.4,0,0,-0.4,-4,0)"
         inkscape:connector-curvature="0" />
    </marker>
    <marker
       inkscape:isstock="true"
       style="overflow:visible"
       id="marker8247-7"
       refX="0"
       refY="0"
       orient="auto"
       inkscape:stockid="Arrow1Mend">
      <path
         inkscape:connector-curvature="0"
         transform="matrix(-0.4,0,0,-0.4,-4,0)"
         style="fill:#a39b9b;fill-opacity:1;fill-rule:evenodd;stroke:#a39b9b;stroke-width:1pt;stroke-opacity:1"
         d="M 0,0 5,-5 -12.5,0 5,5 0,0 Z"
         id="path8249-8" />
    </marker>
  </defs>
  <metadata
     id="metadata7">
    <rdf:RDF>
      <cc:Work
         rdf:about="">
        <dc:format>image/svg+xml</dc:format>
        <dc:type
           rdf:resource="http://purl.org/dc/dcmitype/StillImage" />
        <dc:title />
      </cc:Work>
    </rdf:RDF>
  </metadata>
  <g
     inkscape:label="Layer 1"
     inkscape:groupmode="layer"
     id="layer1"
     transform="translate(0,-910.62992)">
    <path
       sodipodi:nodetypes="cc"
       inkscape:connector-curvature="0"
       id="path6303"
       d="m 21.513288,937.60459 168.685102,0"
       style="fill:none;fill-rule:evenodd;stroke:#a39b9b;stroke-width:0.53149605;stroke-linecap:butt;stroke-linejoin:miter;stroke-miterlimit:4;stroke-dasharray:none;stroke-opacity:1;marker-end:url(#marker6311)" />
    <text
       sodipodi:linespacing="125%"
       id="text6415"
       y="1029.9705"
       x="258.56317"
       style="font-style:normal;font-weight:normal;font-size:7.5px;line-height:125%;font-family:sans-serif;letter-spacing:0px;word-spacing:0px;fill:#000000;fill-opacity:1;stroke:none;stroke-width:1px;stroke-linecap:butt;stroke-linejoin:miter;stroke-opacity:1"
       xml:space="preserve"><tspan
         y="1029.9705"
         x="258.56317"
         id="tspan6417"
         sodipodi:role="line">24 cm</tspan></text>
    <path
       sodipodi:nodetypes="cc"
       inkscape:connector-curvature="0"
       id="path6303-1"
       d="m 265.97234,993.95066 46.11507,-46.26624"
       style="fill:none;fill-rule:evenodd;stroke:#a39b9b;stroke-width:0.53149605;stroke-linecap:butt;stroke-linejoin:miter;stroke-miterlimit:4;stroke-dasharray:none;stroke-opacity:1;marker-start:url(#marker6357-5);marker-end:url(#marker6311-3)" />
    <path
       sodipodi:nodetypes="cc"
       inkscape:connector-curvature="0"
       id="path7711"
       d="m 17.716535,937.71653 0,111.10237"
       style="color:#000000;clip-rule:nonzero;display:inline;overflow:visible;visibility:visible;opacity:1;isolation:auto;mix-blend-mode:normal;color-interpolation:sRGB;color-interpolation-filters:linearRGB;solid-color:#000000;solid-opacity:1;fill:none;fill-opacity:1;fill-rule:evenodd;stroke:#a39b9b;stroke-width:0.53149605;stroke-linecap:butt;stroke-linejoin:miter;stroke-miterlimit:4;stroke-dasharray:2.12598419, 2.12598419;stroke-dashoffset:0;stroke-opacity:1;color-rendering:auto;image-rendering:auto;shape-rendering:auto;text-rendering:auto;enable-background:accumulate" />
    <text
       transform="matrix(0,-1,1,0,0,0)"
       sodipodi:linespacing="125%"
       id="text7805"
       y="13.783525"
       x="-1015.2295"
       style="font-style:normal;font-weight:normal;font-size:7.5px;line-height:125%;font-family:sans-serif;letter-spacing:0px;word-spacing:0px;fill:#000000;fill-opacity:1;stroke:none;stroke-width:1px;stroke-linecap:butt;stroke-linejoin:miter;stroke-opacity:1"
       xml:space="preserve"><tspan
         y="13.783525"
         x="-1015.2295"
         id="tspan7807"
         sodipodi:role="line">axis of symmetry</tspan></text>
    <path
       inkscape:connector-curvature="0"
       id="path7809"
       d="m -37.233558,937.1471 c 7.086615,0 7.086615,0 7.086615,0"
       style="fill:none;fill-rule:evenodd;stroke:#ff0000;stroke-width:1px;stroke-linecap:butt;stroke-linejoin:miter;stroke-opacity:1" />
    <path
       inkscape:connector-curvature="0"
       id="path6303-5"
       d="m -13.904146,1072.2503 165.126156,0"
       style="fill:none;fill-rule:evenodd;stroke:#a39b9b;stroke-width:0.53149605;stroke-linecap:butt;stroke-linejoin:miter;stroke-miterlimit:4;stroke-dasharray:none;stroke-opacity:1;marker-start:url(#marker6357-56);marker-end:url(#marker6311-37)" />
    <path
       style="font-style:normal;font-variant:normal;font-weight:normal;font-stretch:normal;letter-spacing:normal;word-spacing:normal;text-anchor:start;fill:#000000;fill-opacity:1;fill-rule:evenodd;stroke:#000000;stroke-width:0;stroke-linecap:butt;stroke-linejoin:miter;stroke-miterlimit:10.43299961;stroke-dasharray:none;stroke-dashoffset:0;stroke-opacity:1"
       inkscape:connector-curvature="0"
       d="m 194.14884,939.1696 0,0.01 -0.01,0.02 0,0.01 0,0.02 -0.01,0.03 -0.01,0.03 0,0.04 -0.01,0.03 -0.01,0.03 -0.01,0.03 0,0.02 0,0.01 -0.01,0.02 0,0.01 0,0.01 -0.01,0.02 0,0.01 0,0.01 0,0.01 0,0.01 -0.01,0.01 0,0.01 0,0.01 0,0.01 0,0 0,0.01 c 0,0.18 0.14,0.27 0.29,0.27 0.12,0 0.3,-0.08 0.37,-0.28 0.02,-0.04 0.36,-1.4 0.4,-1.58 0.07,-0.32 0.26,-1.02 0.31,-1.29 0.04,-0.13 0.32,-0.6 0.56,-0.82 0.08,-0.07 0.37,-0.33 0.8,-0.33 0.26,0 0.41,0.12 0.42,0.12 -0.3,0.05 -0.52,0.29 -0.52,0.55 0,0.16 0.11,0.35 0.38,0.35 0.27,0 0.55,-0.23 0.55,-0.59 0,-0.35 -0.32,-0.65 -0.83,-0.65 -0.65,0 -1.09,0.49 -1.28,0.77 -0.08,-0.45 -0.43,-0.77 -0.9,-0.77 -0.46,0 -0.65,0.39 -0.74,0.57 -0.18,0.34 -0.31,0.94 -0.31,0.97 0,0.1 0.1,0.1 0.12,0.1 0.1,0 0.11,-0.01 0.17,-0.23 0.17,-0.71 0.37,-1.19 0.73,-1.19 0.17,0 0.31,0.08 0.31,0.46 0,0.21 -0.03,0.32 -0.16,0.84 z"
       id="path8144" />
    <text
       sodipodi:linespacing="125%"
       id="text8183"
       y="923.49927"
       x="-91.694969"
       style="font-style:normal;font-variant:normal;font-weight:normal;font-stretch:normal;font-size:7.5px;line-height:125%;font-family:sans-serif;letter-spacing:0px;word-spacing:0px;text-anchor:start;fill:#000000;fill-opacity:1;fill-rule:evenodd;stroke:none;stroke-width:1px;stroke-linecap:butt;stroke-linejoin:miter;stroke-miterlimit:10.43299961;stroke-dasharray:none;stroke-dashoffset:0;stroke-opacity:1"
       xml:space="preserve"><tspan
         y="923.49927"
         x="-91.694969"
         id="tspan8185"
         sodipodi:role="line">air-water interface</tspan></text>
    <text
       sodipodi:linespacing="125%"
       id="text8187"
       y="920.92285"
       x="32.676426"
       style="font-style:normal;font-variant:normal;font-weight:normal;font-stretch:normal;font-size:7.5px;line-height:125%;font-family:sans-serif;letter-spacing:0px;word-spacing:0px;text-anchor:start;fill:#ff0000;fill-opacity:1;fill-rule:evenodd;stroke:none;stroke-width:1px;stroke-linecap:butt;stroke-linejoin:miter;stroke-miterlimit:10.43299961;stroke-dasharray:none;stroke-dashoffset:0;stroke-opacity:1"
       xml:space="preserve"><tspan
         y="920.92285"
         x="32.676426"
         id="tspan8189"
         sodipodi:role="line">surfactant</tspan><tspan
         id="tspan8191"
         y="930.29785"
         x="32.676426"
         sodipodi:role="line">source</tspan></text>
    <path
       style="color:#000000;clip-rule:nonzero;display:inline;overflow:visible;visibility:visible;opacity:1;isolation:auto;mix-blend-mode:normal;color-interpolation:sRGB;color-interpolation-filters:linearRGB;solid-color:#000000;solid-opacity:1;fill:none;fill-opacity:1;fill-rule:evenodd;stroke:#a39b9b;stroke-width:0.53149605;stroke-linecap:butt;stroke-linejoin:miter;stroke-miterlimit:4;stroke-dasharray:none;stroke-dashoffset:0;stroke-opacity:1;marker-end:url(#marker8247);color-rendering:auto;image-rendering:auto;shape-rendering:auto;text-rendering:auto;enable-background:accumulate"
       d="m 17.716535,936.49678 0,-10.62992"
       id="path8195"
       inkscape:connector-curvature="0" />
    <path
       id="path8204"
       style="color:#000000;clip-rule:nonzero;display:inline;overflow:visible;visibility:visible;opacity:1;isolation:auto;mix-blend-mode:normal;color-interpolation:sRGB;color-interpolation-filters:linearRGB;solid-color:#000000;solid-opacity:1;fill:none;fill-opacity:1;fill-rule:evenodd;stroke:#000000;stroke-width:0.17716534;stroke-linecap:butt;stroke-linejoin:miter;stroke-miterlimit:10.43299961;stroke-dasharray:none;stroke-dashoffset:0;stroke-opacity:1;color-rendering:auto;image-rendering:auto;shape-rendering:auto;text-rendering:auto;enable-background:accumulate"
       d="m 32.275278,918.55999 -11.086614,0 0.07118,0.10037 -2.135366,15.49805"
       inkscape:connector-curvature="0"
       sodipodi:nodetypes="cccc" />
    <g
       id="content"
       transform="matrix(1,0,0,-1,-213.77058,1585.9386)"
       xml:space="preserve"
       stroke-miterlimit="10.433"
       font-style="normal"
       font-variant="normal"
       font-weight="normal"
       font-stretch="normal"
       font-size-adjust="none"
       letter-spacing="normal"
       word-spacing="normal"
       ns0:text="$z$"
       ns0:preamble="/home/shreyas/.config/inkscape/extensions/preamble.tex"
       style="font-style:normal;font-variant:normal;font-weight:normal;font-stretch:normal;letter-spacing:normal;word-spacing:normal;text-anchor:start;fill:none;fill-opacity:1;fill-rule:evenodd;stroke:#000000;stroke-linecap:butt;stroke-linejoin:miter;stroke-miterlimit:10.43299961;stroke-dasharray:none;stroke-dashoffset:0;stroke-opacity:1"><path
         d="m 224.76,658.06 0.05,0.05 0.05,0.05 0.04,0.05 0.05,0.05 0.04,0.05 0.05,0.04 0.04,0.05 0.04,0.04 0.04,0.04 0.04,0.04 0.04,0.03 0.03,0.04 0.04,0.04 0.04,0.03 0.07,0.07 0.07,0.06 0.06,0.06 0.07,0.06 0.06,0.06 0.13,0.11 0.07,0.06 0.06,0.06 c 0,0.01 0.62,0.53 0.98,0.89 0.95,0.93 1.17,1.41 1.17,1.45 0,0.1 -0.1,0.1 -0.11,0.1 -0.07,0 -0.1,-0.02 -0.15,-0.11 -0.3,-0.48 -0.51,-0.64 -0.75,-0.64 -0.24,0 -0.36,0.15 -0.51,0.32 -0.19,0.23 -0.36,0.43 -0.69,0.43 -0.74,0 -1.2,-0.93 -1.2,-1.14 0,-0.05 0.03,-0.11 0.12,-0.11 0.09,0 0.11,0.05 0.13,0.11 0.19,0.46 0.76,0.47 0.84,0.47 0.21,0 0.4,-0.07 0.63,-0.15 0.4,-0.15 0.51,-0.15 0.77,-0.15 -0.36,-0.43 -1.2,-1.15 -1.39,-1.31 l -0.89,-0.83 c -0.68,-0.67 -1.03,-1.24 -1.03,-1.31 0,-0.1 0.1,-0.1 0.12,-0.1 0.08,0 0.1,0.02 0.16,0.13 0.23,0.35 0.53,0.62 0.85,0.62 0.23,0 0.33,-0.09 0.57,-0.38 0.17,-0.21 0.35,-0.37 0.64,-0.37 0.99,0 1.57,1.27 1.57,1.54 0,0.05 -0.04,0.1 -0.12,0.1 -0.09,0 -0.11,-0.06 -0.14,-0.13 -0.23,-0.65 -0.87,-0.84 -1.2,-0.84 -0.2,0 -0.38,0.06 -0.59,0.13 -0.34,0.13 -0.48,0.17 -0.69,0.17 -0.02,0 -0.18,0 -0.27,-0.03 z"
         id="path8385"
         inkscape:connector-curvature="0"
         style="fill:#000000;stroke-width:0" /></g>    <text
       xml:space="preserve"
       style="font-style:normal;font-weight:normal;font-size:7.5px;line-height:125%;font-family:sans-serif;letter-spacing:0px;word-spacing:0px;fill:#000000;fill-opacity:1;stroke:none;stroke-width:1px;stroke-linecap:butt;stroke-linejoin:miter;stroke-opacity:1"
       x="117.45146"
       y="935.15625"
       id="text8859"
       sodipodi:linespacing="125%"><tspan
         sodipodi:role="line"
         id="tspan8861"
         x="117.45146"
         y="935.15625">Marangoni stress</tspan></text>
    <path
       style="fill:none;fill-rule:evenodd;stroke:#a9a1a1;stroke-width:1px;stroke-linecap:butt;stroke-linejoin:miter;stroke-opacity:1"
       d="m 24.80315,942.51967 c 0,0 11.724911,4.1627 18.944613,6.08 11.641418,3.09155 25.782803,6.21947 37.647638,8.29455 23.529169,4.11511 47.150949,7.77578 70.866139,10.62992 12.95224,1.55882 39.07704,3.34199 39.07704,3.34199"
       id="path8882"
       inkscape:connector-curvature="0"
       sodipodi:nodetypes="csssc" />
    <path
       style="color:#000000;clip-rule:nonzero;display:inline;overflow:visible;visibility:visible;opacity:1;isolation:auto;mix-blend-mode:normal;color-interpolation:sRGB;color-interpolation-filters:linearRGB;solid-color:#000000;solid-opacity:1;fill:none;fill-opacity:1;fill-rule:evenodd;stroke:#a39b9b;stroke-width:0.53149605;stroke-linecap:butt;stroke-linejoin:miter;stroke-miterlimit:4;stroke-dasharray:none;stroke-dashoffset:0;stroke-opacity:1;marker-start:url(#marker6357);marker-end:url(#marker8247-7);color-rendering:auto;image-rendering:auto;shape-rendering:auto;text-rendering:auto;enable-background:accumulate"
       d="m 85.03937,956.01286 0,-17.16058"
       id="path8195-6"
       inkscape:connector-curvature="0"
       sodipodi:nodetypes="cc" />
    <text
       sodipodi:linespacing="125%"
       id="text8461"
       y="996.06372"
       x="83.323257"
       style="font-style:normal;font-weight:normal;font-size:7.5px;line-height:125%;font-family:sans-serif;letter-spacing:0px;word-spacing:0px;fill:#000000;fill-opacity:1;stroke:none;stroke-width:1px;stroke-linecap:butt;stroke-linejoin:miter;stroke-opacity:1"
       xml:space="preserve"><tspan
         id="tspan8465"
         y="996.06372"
         x="83.323257"
         sodipodi:role="line">viscous fluid</tspan></text>
    <g
       style="font-style:normal;font-variant:normal;font-weight:normal;font-stretch:normal;letter-spacing:normal;word-spacing:normal;text-anchor:start;fill:none;fill-opacity:1;fill-rule:evenodd;stroke:#000000;stroke-linecap:butt;stroke-linejoin:miter;stroke-miterlimit:10.43299961;stroke-dasharray:none;stroke-dashoffset:0;stroke-opacity:1"
       ns0:preamble="/home/shreyas/.config/inkscape/extensions/preamble.tex"
       ns0:text="($\\rho$, $\\mu$)"
       word-spacing="normal"
       letter-spacing="normal"
       font-size-adjust="none"
       font-stretch="normal"
       font-weight="normal"
       font-variant="normal"
       font-style="normal"
       stroke-miterlimit="10.433"
       xml:space="preserve"
       transform="matrix(1,0,0,-1,-254.73904,1641.116)"
       id="g8790"><path
         style="fill:#000000;stroke-width:0"
         inkscape:connector-curvature="0"
         id="path8792"
         d="m 226.73,654.84 0,0.01 0,0 0,0 0,0.01 0,0 0,0 0,0.01 -0.01,0 0,0 0,0.01 0,0 0,0.01 -0.01,0 0,0.01 -0.01,0 0,0.01 -0.01,0.01 0,0 0,0.01 -0.01,0 0,0.01 0,0 -0.01,0.01 0,0 -0.01,0 0,0.01 -0.01,0 0,0.01 -0.01,0 0,0.01 -0.01,0.01 0,0 -0.01,0.01 0,0 -0.01,0.01 -0.01,0.01 0,0 -0.01,0.01 -0.01,0.01 0,0.01 -0.01,0 -0.01,0.01 c -1.24,1.26 -1.56,3.14 -1.56,4.66 0,1.74 0.38,3.47 1.6,4.71 0.13,0.12 0.13,0.15 0.13,0.17 0,0.07 -0.04,0.1 -0.1,0.1 -0.1,0 -1,-0.67 -1.58,-1.94 -0.51,-1.09 -0.63,-2.2 -0.63,-3.04 0,-0.77 0.11,-1.98 0.66,-3.11 0.59,-1.22 1.45,-1.87 1.55,-1.87 0.06,0 0.1,0.03 0.1,0.1 z" /><path
         style="fill:#000000;stroke-width:0"
         inkscape:connector-curvature="0"
         id="path8794"
         d="m 227.63,655.51 0,-0.01 0,0 0,-0.01 0,0 -0.01,-0.01 0,0 0,-0.01 0,0 0,-0.01 0,0 0,0 0,-0.01 0,0 0,-0.01 -0.01,0 0,-0.01 0,-0.01 0,0 0,-0.01 0,0 0,-0.01 0,0 -0.01,-0.01 0,0 0,-0.01 0,0 0,0 0,-0.01 0,0 0,0 0,0 0,-0.01 0,0 0,0 0,-0.01 0,0 c 0,-0.15 0.11,-0.27 0.28,-0.27 0.21,0 0.33,0.18 0.35,0.21 0.05,0.09 0.37,1.42 0.64,2.5 0.2,-0.4 0.51,-0.67 0.98,-0.67 l -0.01,0.22 c -0.69,0 -0.85,0.8 -0.85,0.89 0,0.04 0.05,0.24 0.08,0.37 0.28,1.11 0.37,1.47 0.59,1.87 0.43,0.73 0.93,0.95 1.24,0.95 0.37,0 0.69,-0.29 0.69,-0.98 0,-0.55 -0.29,-1.66 -0.56,-2.15 -0.33,-0.63 -0.81,-0.95 -1.19,-0.95 l 0,0 0.01,-0.22 c 1.17,0 2.45,1.41 2.45,2.89 0,1.06 -0.65,1.63 -1.38,1.63 -0.97,0 -2.01,-1 -2.31,-2.22 z" /><path
         style="fill:#000000;stroke-width:0"
         inkscape:connector-curvature="0"
         id="path8796"
         d="m 234.48,657.24 0,0.06 -0.01,0.06 0,0.06 0,0.05 -0.01,0.05 -0.01,0.06 -0.01,0.05 -0.01,0.04 -0.01,0.05 -0.01,0.05 -0.01,0.04 -0.02,0.04 -0.02,0.04 -0.01,0.04 -0.02,0.04 -0.02,0.03 -0.02,0.04 -0.03,0.03 -0.02,0.03 -0.02,0.03 -0.03,0.02 -0.03,0.02 -0.02,0.03 -0.03,0.02 -0.03,0.01 -0.03,0.02 -0.04,0.01 -0.03,0.01 -0.03,0.01 -0.04,0 -0.03,0.01 -0.04,0 c -0.35,0 -0.53,-0.27 -0.53,-0.53 0,-0.26 0.17,-0.53 0.53,-0.53 0.16,0 0.28,0.06 0.38,0.14 l 0.02,0.02 c 0.01,0 0.02,-0.01 0.02,-0.15 0,-0.64 -0.28,-1.24 -0.72,-1.71 -0.06,-0.06 -0.07,-0.07 -0.07,-0.11 0,-0.07 0.05,-0.11 0.1,-0.11 0.12,0 0.91,0.79 0.91,1.93 z" /><path
         style="fill:#000000;stroke-width:0"
         inkscape:connector-curvature="0"
         id="path8798"
         d="m 240.85,660.73 0,0.02 0.01,0.02 0,0.02 0.01,0.02 0,0.03 0.01,0.02 0.01,0.05 0.01,0.05 0.02,0.05 0.01,0.05 0.01,0.05 0.01,0.02 0,0.02 0.01,0.03 0,0.02 0.01,0.02 0,0.02 0.01,0.02 0,0.02 0,0.01 0.01,0.02 0,0.01 0,0.01 0,0.01 0,0.01 0.01,0.01 0,0 0,0.01 c 0,0.17 -0.12,0.27 -0.29,0.27 -0.03,0 -0.31,-0.01 -0.4,-0.36 l -1.44,-5.77 c -0.03,-0.12 -0.03,-0.14 -0.03,-0.16 0,-0.15 0.11,-0.27 0.28,-0.27 0.21,0 0.33,0.18 0.35,0.21 0.04,0.09 0.17,0.61 0.55,2.14 0.32,-0.27 0.77,-0.31 0.97,-0.31 0.69,0 1.08,0.45 1.32,0.73 0.09,-0.45 0.46,-0.73 0.9,-0.73 0.35,0 0.58,0.23 0.74,0.55 0.16,0.36 0.29,0.97 0.29,0.99 0,0.1 -0.09,0.1 -0.12,0.1 -0.1,0 -0.11,-0.04 -0.13,-0.18 -0.17,-0.65 -0.35,-1.24 -0.76,-1.24 -0.27,0 -0.3,0.26 -0.3,0.46 0,0.22 0.12,0.69 0.2,1.04 l 0.28,1.07 c 0.03,0.15 0.13,0.53 0.17,0.68 0.05,0.23 0.15,0.61 0.15,0.67 0,0.18 -0.14,0.27 -0.29,0.27 -0.05,0 -0.31,-0.01 -0.39,-0.35 l -0.47,-1.86 c -0.12,-0.5 -0.23,-0.92 -0.26,-1.02 -0.01,-0.05 -0.49,-0.96 -1.29,-0.96 -0.5,0 -0.74,0.33 -0.74,0.87 0,0.29 0.07,0.57 0.14,0.85 z" /><path
         style="fill:#000000;stroke-width:0"
         inkscape:connector-curvature="0"
         id="path8800"
         d="m 247.43,659.72 0,0.08 0,0.07 0,0.08 0,0.08 -0.01,0.17 -0.01,0.18 -0.02,0.18 -0.02,0.19 -0.03,0.2 -0.03,0.2 -0.04,0.2 -0.05,0.21 -0.05,0.21 -0.06,0.21 -0.07,0.21 -0.08,0.22 -0.04,0.1 -0.05,0.11 -0.05,0.11 -0.05,0.1 c -0.59,1.23 -1.45,1.87 -1.55,1.87 -0.06,0 -0.1,-0.04 -0.1,-0.1 0,-0.02 0,-0.05 0.19,-0.22 0.98,-0.99 1.54,-2.58 1.54,-4.66 0,-1.7 -0.36,-3.45 -1.6,-4.71 -0.13,-0.12 -0.13,-0.14 -0.13,-0.17 0,-0.06 0.04,-0.1 0.1,-0.1 0.1,0 1,0.68 1.58,1.94 0.51,1.1 0.63,2.21 0.63,3.04 z" /></g>    <text
       sodipodi:linespacing="125%"
       id="text8461-9"
       y="999.53595"
       x="-95.269142"
       style="font-style:normal;font-weight:normal;font-size:7.5px;line-height:125%;font-family:sans-serif;letter-spacing:0px;word-spacing:0px;fill:#000000;fill-opacity:1;stroke:none;stroke-width:1px;stroke-linecap:butt;stroke-linejoin:miter;stroke-opacity:1"
       xml:space="preserve"><tspan
         id="tspan8465-2"
         y="999.53595"
         x="-95.269142"
         sodipodi:role="line">velocity</tspan></text>
    <g
       style="font-style:normal;font-variant:normal;font-weight:normal;font-stretch:normal;letter-spacing:normal;word-spacing:normal;text-anchor:start;fill:none;fill-opacity:1;fill-rule:evenodd;stroke:#000000;stroke-linecap:butt;stroke-linejoin:miter;stroke-miterlimit:10.43299961;stroke-dasharray:none;stroke-dashoffset:0;stroke-opacity:1"
       ns0:preamble="/home/shreyas/.config/inkscape/extensions/preamble.tex"
       ns0:text="($u$, $w$)"
       word-spacing="normal"
       letter-spacing="normal"
       font-size-adjust="none"
       font-stretch="normal"
       font-weight="normal"
       font-variant="normal"
       font-style="normal"
       stroke-miterlimit="10.433"
       xml:space="preserve"
       transform="matrix(1,0,0,-1,-254.73904,1657.1868)"
       id="g9489"><path
         id="path9491"
         d="m 226.73,654.84 0,0.01 0,0 0,0 0,0.01 0,0 0,0 0,0.01 -0.01,0 0,0 0,0.01 0,0 0,0.01 -0.01,0 0,0.01 -0.01,0 0,0.01 -0.01,0.01 0,0 0,0.01 -0.01,0 0,0.01 0,0 -0.01,0.01 0,0 -0.01,0 0,0.01 -0.01,0 0,0.01 -0.01,0 0,0.01 -0.01,0.01 0,0 -0.01,0.01 0,0 -0.01,0.01 -0.01,0.01 0,0 -0.01,0.01 -0.01,0.01 0,0.01 -0.01,0 -0.01,0.01 c -1.24,1.26 -1.56,3.14 -1.56,4.66 0,1.74 0.38,3.47 1.6,4.71 0.13,0.12 0.13,0.15 0.13,0.17 0,0.07 -0.04,0.1 -0.1,0.1 -0.1,0 -1,-0.67 -1.58,-1.94 -0.51,-1.09 -0.63,-2.2 -0.63,-3.04 0,-0.77 0.11,-1.98 0.66,-3.11 0.59,-1.22 1.45,-1.87 1.55,-1.87 0.06,0 0.1,0.03 0.1,0.1 z"
         inkscape:connector-curvature="0"
         style="fill:#000000;stroke-width:0" /><path
         id="path9493"
         d="m 230.79,657.79 0.01,-0.04 0.01,-0.03 0.02,-0.04 0.01,-0.04 0.02,-0.03 0.02,-0.03 0.01,-0.04 0.02,-0.03 0.02,-0.03 0.03,-0.03 0.02,-0.02 0.03,-0.03 0.02,-0.03 0.03,-0.02 0.02,-0.02 0.03,-0.03 0.03,-0.02 0.03,-0.02 0.03,-0.02 0.04,-0.01 0.03,-0.02 0.03,-0.01 0.04,-0.02 0.03,-0.01 0.04,-0.01 0.03,-0.01 0.04,-0.01 0.04,-0.01 0.04,0 0.04,0 0.04,-0.01 0.04,0 c 0.34,0 0.57,0.23 0.73,0.55 0.17,0.36 0.3,0.97 0.3,0.99 0,0.1 -0.09,0.1 -0.12,0.1 -0.1,0 -0.11,-0.04 -0.14,-0.18 -0.14,-0.56 -0.33,-1.24 -0.74,-1.24 -0.21,0 -0.31,0.13 -0.31,0.46 0,0.22 0.12,0.69 0.2,1.04 l 0.28,1.07 c 0.02,0.15 0.13,0.53 0.16,0.68 0.06,0.23 0.15,0.61 0.15,0.67 0,0.18 -0.14,0.27 -0.29,0.27 -0.05,0 -0.3,-0.01 -0.38,-0.35 -0.19,-0.73 -0.63,-2.47 -0.75,-3 -0.01,-0.04 -0.41,-0.84 -1.14,-0.84 -0.51,0 -0.61,0.45 -0.61,0.82 0,0.56 0.27,1.34 0.53,2.03 0.12,0.3 0.17,0.44 0.17,0.63 0,0.45 -0.32,0.82 -0.81,0.82 -0.95,0 -1.32,-1.45 -1.32,-1.54 0,-0.1 0.1,-0.1 0.12,-0.1 0.1,0 0.11,0.02 0.16,0.18 0.25,0.87 0.63,1.24 1.01,1.24 0.09,0 0.25,-0.01 0.25,-0.33 0,-0.24 -0.11,-0.53 -0.17,-0.68 -0.37,-0.99 -0.58,-1.6 -0.58,-2.09 0,-0.95 0.69,-1.2 1.22,-1.2 0.66,0 1.02,0.45 1.19,0.67 z"
         inkscape:connector-curvature="0"
         style="fill:#000000;stroke-width:0" /><path
         id="path9495"
         d="m 235.03,657.24 0,0.06 0,0.06 0,0.06 -0.01,0.05 -0.01,0.05 0,0.06 -0.01,0.05 -0.01,0.04 -0.01,0.05 -0.02,0.05 -0.01,0.04 -0.01,0.04 -0.02,0.04 -0.02,0.04 -0.02,0.04 -0.02,0.03 -0.02,0.04 -0.02,0.03 -0.02,0.03 -0.03,0.03 -0.02,0.02 -0.03,0.02 -0.03,0.03 -0.03,0.02 -0.03,0.01 -0.03,0.02 -0.03,0.01 -0.03,0.01 -0.04,0.01 -0.03,0 -0.04,0.01 -0.03,0 c -0.35,0 -0.53,-0.27 -0.53,-0.53 0,-0.26 0.17,-0.53 0.53,-0.53 0.15,0 0.27,0.06 0.37,0.14 l 0.02,0.02 c 0.01,0 0.02,-0.01 0.02,-0.15 0,-0.64 -0.28,-1.24 -0.71,-1.71 -0.06,-0.06 -0.07,-0.07 -0.07,-0.11 0,-0.07 0.05,-0.11 0.1,-0.11 0.11,0 0.9,0.79 0.9,1.93 z"
         inkscape:connector-curvature="0"
         style="fill:#000000;stroke-width:0" /><path
         id="path9497"
         d="m 243.7,660.61 0.01,0.02 0,0.02 0.01,0.03 0,0.02 0.01,0.02 0.01,0.03 0.01,0.05 0.01,0.05 0.01,0.05 0.01,0.05 0.02,0.04 0,0.03 0.01,0.02 0,0.02 0.01,0.02 0,0.02 0.01,0.02 0,0.02 0.01,0.02 0,0.02 0,0.01 0.01,0.02 0,0.01 0,0.01 0,0.01 0,0.01 0,0.01 c 0,0.18 -0.14,0.27 -0.29,0.27 -0.12,0 -0.3,-0.08 -0.36,-0.28 -0.04,-0.07 -0.5,-1.97 -0.57,-2.23 -0.07,-0.3 -0.09,-0.48 -0.09,-0.66 0,-0.11 0,-0.13 0.01,-0.18 -0.23,-0.53 -0.53,-0.84 -0.92,-0.84 -0.8,0 -0.8,0.74 -0.8,0.91 0,0.32 0.05,0.71 0.52,1.93 0.11,0.3 0.17,0.44 0.17,0.64 0,0.45 -0.33,0.82 -0.82,0.82 -0.94,0 -1.31,-1.45 -1.31,-1.54 0,-0.1 0.1,-0.1 0.12,-0.1 0.1,0 0.11,0.02 0.16,0.18 0.27,0.93 0.65,1.24 1,1.24 0.09,0 0.25,-0.01 0.25,-0.33 0,-0.25 -0.11,-0.53 -0.18,-0.7 -0.44,-1.17 -0.55,-1.63 -0.55,-2.01 0,-0.91 0.66,-1.26 1.41,-1.26 0.17,0 0.64,0 1.04,0.7 0.26,-0.64 0.94,-0.7 1.24,-0.7 0.75,0 1.19,0.63 1.45,1.23 0.33,0.77 0.65,2.11 0.65,2.59 0,0.55 -0.27,0.7 -0.43,0.7 -0.25,0 -0.5,-0.26 -0.5,-0.48 0,-0.13 0.06,-0.19 0.15,-0.27 0.11,-0.11 0.36,-0.37 0.36,-0.85 0,-0.34 -0.29,-1.31 -0.55,-1.82 -0.26,-0.53 -0.61,-0.88 -1.1,-0.88 -0.47,0 -0.73,0.3 -0.73,0.87 0,0.28 0.06,0.59 0.1,0.73 z"
         inkscape:connector-curvature="0"
         style="fill:#000000;stroke-width:0" /><path
         id="path9499"
         d="m 249.37,659.72 0,0.08 0,0.07 0,0.08 0,0.08 -0.01,0.17 -0.01,0.18 -0.02,0.18 -0.02,0.19 -0.03,0.2 -0.03,0.2 -0.04,0.2 -0.04,0.21 -0.06,0.21 -0.06,0.21 -0.07,0.21 -0.08,0.22 -0.04,0.1 -0.05,0.11 -0.04,0.11 -0.05,0.1 c -0.6,1.23 -1.46,1.87 -1.56,1.87 -0.06,0 -0.1,-0.04 -0.1,-0.1 0,-0.02 0,-0.05 0.19,-0.22 0.98,-0.99 1.55,-2.58 1.55,-4.66 0,-1.7 -0.37,-3.45 -1.61,-4.71 -0.13,-0.12 -0.13,-0.14 -0.13,-0.17 0,-0.06 0.04,-0.1 0.1,-0.1 0.1,0 1,0.68 1.59,1.94 0.51,1.1 0.62,2.21 0.62,3.04 z"
         inkscape:connector-curvature="0"
         style="fill:#000000;stroke-width:0" /></g>    <text
       sodipodi:linespacing="125%"
       id="text8461-0"
       y="1014.8798"
       x="-95.269142"
       style="font-style:normal;font-weight:normal;font-size:7.5px;line-height:125%;font-family:sans-serif;letter-spacing:0px;word-spacing:0px;fill:#000000;fill-opacity:1;stroke:none;stroke-width:1px;stroke-linecap:butt;stroke-linejoin:miter;stroke-opacity:1"
       xml:space="preserve"><tspan
         id="tspan8465-6"
         y="1014.8798"
         x="-95.269142"
         sodipodi:role="line">concentration</tspan></text>
    <text
       sodipodi:linespacing="125%"
       id="text8461-0-1"
       y="1030.2238"
       x="-95.261818"
       style="font-style:normal;font-weight:normal;font-size:7.5px;line-height:125%;font-family:sans-serif;letter-spacing:0px;word-spacing:0px;fill:#000000;fill-opacity:1;stroke:none;stroke-width:1px;stroke-linecap:butt;stroke-linejoin:miter;stroke-opacity:1"
       xml:space="preserve"><tspan
         id="tspan8465-6-7"
         y="1030.2238"
         x="-95.261818"
         sodipodi:role="line">surface tension</tspan></text>
    <g
       style="font-style:normal;font-variant:normal;font-weight:normal;font-stretch:normal;letter-spacing:normal;word-spacing:normal;text-anchor:start;fill:none;fill-opacity:1;fill-rule:evenodd;stroke:#000000;stroke-linecap:butt;stroke-linejoin:miter;stroke-miterlimit:10.43299961;stroke-dasharray:none;stroke-dashoffset:0;stroke-opacity:1"
       ns0:preamble="/home/shreyas/.config/inkscape/extensions/preamble.tex"
       ns0:text="$\\sigma$"
       word-spacing="normal"
       letter-spacing="normal"
       font-size-adjust="none"
       font-stretch="normal"
       font-weight="normal"
       font-variant="normal"
       font-style="normal"
       stroke-miterlimit="10.433"
       xml:space="preserve"
       transform="matrix(1,0,0,-1,-254.12904,1686.7527)"
       id="g9976"><path
         id="path9978"
         d="m 228.59,660.95 0.02,0 0.01,0 0.02,0 0.01,0 0.02,0 0.02,0 0.01,0 0.02,0 0.02,0.01 0.02,0 0.02,0 0.02,0.01 0.03,0 0.02,0.01 0.02,0 0.02,0.01 0.02,0.01 0.01,0.01 0.02,0.01 0.02,0.01 0.02,0.01 0.01,0.02 0.01,0.01 0.01,0 0.01,0.01 0,0.01 0.01,0.01 0.01,0.01 0,0.01 0.01,0.01 0,0.01 0.01,0.01 0,0.01 0.01,0.02 0,0.01 0,0.01 0,0.01 0.01,0.02 0,0.01 0,0.02 0,0.01 0,0.02 c 0,0.24 -0.21,0.24 -0.39,0.24 l -2.27,0 c -1.5,0 -2.61,-1.65 -2.61,-2.83 0,-0.88 0.59,-1.58 1.49,-1.58 l 0.02,0.22 c -0.49,0 -0.89,0.36 -0.89,1.08 0,0.3 0.12,1.11 0.47,1.7 0.42,0.69 1.01,0.83 1.35,0.83 0.84,0 0.92,-0.66 0.92,-0.97 0,-0.47 -0.2,-1.28 -0.54,-1.79 -0.39,-0.59 -0.93,-0.85 -1.31,-0.85 l 0,0 -0.02,-0.22 c 1.18,0 2.51,1.21 2.51,2.74 0,0.17 0,0.65 -0.31,1.09 z"
         inkscape:connector-curvature="0"
         style="fill:#000000;stroke-width:0" /></g>    <g
       id="g10267"
       transform="matrix(1,0,0,-1,-254.15904,1671.4639)"
       xml:space="preserve"
       stroke-miterlimit="10.433"
       font-style="normal"
       font-variant="normal"
       font-weight="normal"
       font-stretch="normal"
       font-size-adjust="none"
       letter-spacing="normal"
       word-spacing="normal"
       ns0:text="$c_{2,3}$"
       ns0:preamble="/home/shreyas/.config/inkscape/extensions/preamble.tex"
       style="font-style:normal;font-variant:normal;font-weight:normal;font-stretch:normal;letter-spacing:normal;word-spacing:normal;text-anchor:start;fill:none;fill-opacity:1;fill-rule:evenodd;stroke:#000000;stroke-linecap:butt;stroke-linejoin:miter;stroke-miterlimit:10.43299961;stroke-dasharray:none;stroke-dashoffset:0;stroke-opacity:1"><path
         style="fill:#000000;stroke-width:0"
         inkscape:connector-curvature="0"
         d="m 227.38,661.02 -0.03,0 -0.03,0 -0.03,0 -0.03,0 -0.03,-0.01 -0.02,0 -0.02,0 -0.01,0 -0.02,-0.01 -0.01,0 -0.01,0 -0.02,-0.01 -0.01,0 -0.01,-0.01 -0.02,0 -0.01,-0.01 -0.01,0 -0.02,-0.01 -0.01,-0.01 -0.01,-0.01 -0.02,-0.01 -0.01,-0.01 -0.01,-0.01 -0.01,-0.01 -0.02,-0.01 -0.01,-0.01 c -0.16,-0.15 -0.18,-0.32 -0.18,-0.39 0,-0.24 0.18,-0.35 0.37,-0.35 0.29,0 0.56,0.24 0.56,0.64 0,0.49 -0.47,0.86 -1.18,0.86 -1.34,0 -2.67,-1.43 -2.67,-2.83 0,-0.9 0.58,-1.69 1.62,-1.69 1.42,0 2.26,1.06 2.26,1.18 0,0.06 -0.06,0.13 -0.12,0.13 -0.05,0 -0.07,-0.02 -0.13,-0.1 -0.79,-0.99 -1.88,-0.99 -1.99,-0.99 -0.63,0 -0.9,0.49 -0.9,1.09 0,0.41 0.2,1.37 0.54,1.99 0.31,0.57 0.85,1 1.4,1 0.34,0 0.72,-0.13 0.86,-0.4 z"
         id="path10269" /><path
         style="fill:#000000;stroke-width:0"
         inkscape:connector-curvature="0"
         d="m 231.27,657.01 -0.24,0 c -0.02,-0.15 -0.09,-0.57 -0.18,-0.63 -0.06,-0.05 -0.59,-0.05 -0.69,-0.05 l -1.28,0 c 0.73,0.65 0.97,0.85 1.39,1.17 0.52,0.42 1,0.85 1,1.51 0,0.84 -0.74,1.36 -1.64,1.36 -0.86,0 -1.45,-0.61 -1.45,-1.25 0,-0.35 0.3,-0.39 0.37,-0.39 0.17,0 0.37,0.12 0.37,0.37 0,0.13 -0.04,0.37 -0.41,0.37 0.22,0.5 0.69,0.65 1.02,0.65 0.7,0 1.06,-0.54 1.06,-1.11 0,-0.61 -0.43,-1.09 -0.66,-1.34 l -1.68,-1.66 c -0.07,-0.06 -0.07,-0.08 -0.07,-0.27 l 2.88,0 z"
         id="path10271" /><path
         style="fill:#000000;stroke-width:0"
         inkscape:connector-curvature="0"
         d="m 233.18,655.85 0,-0.07 0,-0.07 -0.01,-0.08 0,-0.08 -0.01,-0.04 -0.01,-0.03 0,-0.04 -0.01,-0.04 -0.01,-0.04 -0.01,-0.04 -0.02,-0.04 -0.01,-0.04 -0.02,-0.04 -0.01,-0.04 -0.02,-0.04 -0.02,-0.05 -0.02,-0.04 -0.02,-0.04 -0.03,-0.04 -0.03,-0.04 -0.02,-0.04 -0.03,-0.04 -0.04,-0.05 -0.03,-0.04 -0.04,-0.04 -0.04,-0.04 -0.04,-0.04 -0.04,-0.04 c -0.03,-0.03 -0.05,-0.05 -0.05,-0.09 0,-0.05 0.06,-0.1 0.1,-0.1 0.1,0 0.69,0.56 0.69,1.39 0,0.43 -0.17,0.76 -0.49,0.76 -0.23,0 -0.4,-0.18 -0.4,-0.4 0,-0.22 0.16,-0.4 0.41,-0.4 0.17,0 0.28,0.11 0.28,0.11 z"
         id="path10273" /><path
         style="fill:#000000;stroke-width:0"
         inkscape:connector-curvature="0"
         d="m 235.99,658.07 0.05,0 0.05,-0.01 0.04,0 0.05,-0.01 0.05,-0.01 0.04,-0.01 0.05,-0.01 0.04,-0.02 0.04,-0.02 0.04,-0.02 0.04,-0.02 0.04,-0.03 0.04,-0.03 0.03,-0.03 0.04,-0.03 0.03,-0.03 0.03,-0.04 0.03,-0.04 0.02,-0.04 0.03,-0.04 0.02,-0.05 0.02,-0.04 0.02,-0.05 0.02,-0.05 0.02,-0.06 0.01,-0.05 0.01,-0.06 0.01,-0.06 0.01,-0.06 0.01,-0.07 0,-0.07 0,-0.06 c 0,-0.87 -0.5,-1.13 -0.91,-1.13 -0.27,0 -0.89,0.08 -1.18,0.49 0.33,0.02 0.4,0.25 0.4,0.39 0,0.23 -0.16,0.39 -0.38,0.39 -0.2,0 -0.39,-0.12 -0.39,-0.41 0,-0.65 0.72,-1.08 1.57,-1.08 0.97,0 1.64,0.65 1.64,1.35 0,0.54 -0.45,1.08 -1.22,1.25 0.74,0.26 1,0.78 1,1.21 0,0.55 -0.63,0.96 -1.41,0.96 -0.77,0 -1.36,-0.38 -1.36,-0.93 0,-0.24 0.15,-0.37 0.36,-0.37 0.21,0 0.35,0.16 0.35,0.35 0,0.2 -0.14,0.35 -0.35,0.36 0.24,0.31 0.72,0.39 0.98,0.39 0.32,0 0.75,-0.15 0.75,-0.76 0,-0.3 -0.09,-0.62 -0.28,-0.83 -0.23,-0.27 -0.42,-0.28 -0.77,-0.3 -0.17,-0.01 -0.19,-0.01 -0.22,-0.02 -0.02,0 -0.07,-0.02 -0.07,-0.09 0,-0.1 0.06,-0.1 0.18,-0.1 z"
         id="path10275" /></g>    <circle
       r="3.5433071"
       cy="937.60461"
       cx="17.716536"
       id="path4298"
       style="color:#000000;clip-rule:nonzero;display:inline;overflow:visible;visibility:visible;opacity:1;isolation:auto;mix-blend-mode:normal;color-interpolation:sRGB;color-interpolation-filters:linearRGB;solid-color:#000000;solid-opacity:1;fill:#9d9d9d;fill-opacity:1;fill-rule:evenodd;stroke:#747474;stroke-width:1.77165353;stroke-linecap:butt;stroke-linejoin:miter;stroke-miterlimit:4;stroke-dasharray:none;stroke-dashoffset:0;stroke-opacity:1;color-rendering:auto;image-rendering:auto;shape-rendering:auto;text-rendering:auto;enable-background:accumulate" />
    <g
       style="font-style:normal;font-variant:normal;font-weight:normal;font-stretch:normal;letter-spacing:normal;word-spacing:normal;text-anchor:start;fill:none;fill-opacity:1;fill-rule:evenodd;stroke:#000000;stroke-linecap:butt;stroke-linejoin:miter;stroke-miterlimit:10.43299961;stroke-dasharray:none;stroke-dashoffset:0;stroke-opacity:1"
       ns0:preamble="/home/shreyas/.config/inkscape/extensions/preamble.tex"
       ns0:text="$\\delta(r)$"
       word-spacing="normal"
       letter-spacing="normal"
       font-size-adjust="none"
       font-stretch="normal"
       font-weight="normal"
       font-variant="normal"
       font-style="normal"
       stroke-miterlimit="10.433"
       xml:space="preserve"
       transform="matrix(1,0,0,-1,-135.70791,1610.8106)"
       id="g4421"><path
         id="path4423"
         d="m 226.06,661.59 -0.11,-0.03 -0.12,-0.04 -0.11,-0.04 -0.11,-0.05 -0.11,-0.05 -0.1,-0.06 -0.11,-0.06 -0.1,-0.07 -0.1,-0.07 -0.09,-0.07 -0.09,-0.08 -0.09,-0.08 -0.09,-0.09 -0.08,-0.09 -0.08,-0.09 -0.08,-0.09 -0.07,-0.1 -0.07,-0.1 -0.07,-0.1 -0.06,-0.11 -0.05,-0.1 -0.06,-0.11 -0.05,-0.11 -0.04,-0.11 -0.04,-0.11 -0.03,-0.11 -0.03,-0.12 -0.03,-0.11 -0.01,-0.11 -0.02,-0.12 -0.01,-0.11 0,-0.11 c 0,-0.96 0.64,-1.68 1.58,-1.68 l 0,0.22 c -0.55,0 -0.96,0.42 -0.96,1.18 0,0.63 0.37,2.5 1.71,2.86 l 0,0 c 0.25,-0.46 0.55,-1 0.55,-1.72 0,-0.65 -0.38,-2.32 -1.3,-2.32 l 0,-0.22 c 1.16,0 1.99,1.57 1.99,2.94 0,0.91 -0.4,1.41 -0.74,1.86 -0.36,0.44 -0.95,1.19 -0.95,1.63 0,0.22 0.2,0.46 0.55,0.46 0.3,0 0.5,-0.13 0.71,-0.27 0.2,-0.12 0.4,-0.25 0.55,-0.25 0.25,0 0.4,0.24 0.4,0.4 0,0.22 -0.16,0.25 -0.52,0.33 -0.52,0.11 -0.66,0.11 -0.82,0.11 -0.78,0 -1.14,-0.43 -1.14,-1.03 0,-0.54 0.29,-1.1 0.6,-1.7 z"
         inkscape:connector-curvature="0"
         style="fill:#000000;stroke-width:0" /><path
         id="path4425"
         d="m 231.54,654.84 0,0.01 0,0 0,0 0,0.01 0,0 0,0 -0.01,0.01 0,0 0,0 0,0.01 0,0 -0.01,0.01 0,0 0,0.01 -0.01,0 0,0.01 -0.01,0.01 0,0 -0.01,0.01 0,0 0,0.01 -0.01,0 0,0.01 -0.01,0 0,0 0,0.01 -0.01,0 0,0.01 -0.01,0 0,0.01 -0.01,0.01 0,0 -0.01,0.01 -0.01,0 0,0.01 -0.01,0.01 -0.01,0 0,0.01 -0.01,0.01 -0.01,0.01 0,0 -0.01,0.01 c -1.25,1.26 -1.57,3.14 -1.57,4.66 0,1.74 0.38,3.47 1.61,4.71 0.13,0.12 0.13,0.15 0.13,0.17 0,0.07 -0.04,0.1 -0.1,0.1 -0.1,0 -1,-0.67 -1.59,-1.94 -0.5,-1.09 -0.62,-2.2 -0.62,-3.04 0,-0.77 0.11,-1.98 0.65,-3.11 0.6,-1.22 1.46,-1.87 1.56,-1.87 0.06,0 0.1,0.03 0.1,0.1 z"
         inkscape:connector-curvature="0"
         style="fill:#000000;stroke-width:0" /><path
         id="path4427"
         d="m 232.99,657.82 -0.01,-0.01 0,-0.02 0,-0.01 -0.01,-0.02 0,-0.03 -0.01,-0.03 -0.01,-0.04 0,-0.03 -0.01,-0.03 -0.01,-0.03 0,-0.02 -0.01,-0.01 0,-0.02 0,-0.01 -0.01,-0.01 0,-0.02 0,-0.01 0,-0.01 -0.01,-0.01 0,-0.01 0,-0.01 0,-0.01 0,-0.01 0,-0.01 0,0 0,-0.01 c 0,-0.18 0.14,-0.27 0.29,-0.27 0.12,0 0.3,0.08 0.36,0.28 0.02,0.04 0.36,1.4 0.4,1.58 0.08,0.32 0.26,1.02 0.32,1.29 0.04,0.13 0.32,0.6 0.56,0.82 0.08,0.07 0.37,0.33 0.8,0.33 0.26,0 0.41,-0.12 0.41,-0.12 -0.29,-0.05 -0.51,-0.29 -0.51,-0.55 0,-0.16 0.11,-0.35 0.38,-0.35 0.27,0 0.54,0.23 0.54,0.59 0,0.35 -0.32,0.65 -0.82,0.65 -0.65,0 -1.09,-0.49 -1.28,-0.77 -0.08,0.45 -0.44,0.77 -0.9,0.77 -0.46,0 -0.65,-0.39 -0.74,-0.57 -0.18,-0.34 -0.31,-0.94 -0.31,-0.97 0,-0.1 0.1,-0.1 0.12,-0.1 0.1,0 0.11,0.01 0.17,0.23 0.17,0.71 0.37,1.19 0.72,1.19 0.17,0 0.31,-0.08 0.31,-0.46 0,-0.21 -0.03,-0.32 -0.15,-0.84 z"
         inkscape:connector-curvature="0"
         style="fill:#000000;stroke-width:0" /><path
         id="path4429"
         d="m 239.76,659.72 0,0.08 0,0.07 0,0.08 -0.01,0.08 0,0.17 -0.02,0.18 -0.01,0.18 -0.02,0.19 -0.03,0.2 -0.03,0.2 -0.04,0.2 -0.05,0.21 -0.05,0.21 -0.06,0.21 -0.07,0.21 -0.08,0.22 -0.05,0.1 -0.04,0.11 -0.05,0.11 -0.05,0.1 c -0.6,1.23 -1.45,1.87 -1.55,1.87 -0.06,0 -0.1,-0.04 -0.1,-0.1 0,-0.02 0,-0.05 0.19,-0.22 0.97,-0.99 1.54,-2.58 1.54,-4.66 0,-1.7 -0.37,-3.45 -1.6,-4.71 -0.13,-0.12 -0.13,-0.14 -0.13,-0.17 0,-0.06 0.04,-0.1 0.1,-0.1 0.1,0 0.99,0.68 1.58,1.94 0.51,1.1 0.63,2.21 0.63,3.04 z"
         inkscape:connector-curvature="0"
         style="fill:#000000;stroke-width:0" /></g>  </g>
</svg>
