<?xml version="1.0" encoding="utf-8"?>
<!-- Generator: Adobe Illustrator 18.0.0, SVG Export Plug-In . SVG Version: 6.00 Build 0)  -->
<!DOCTYPE svg PUBLIC "-//W3C//DTD SVG 1.1//EN" "http://www.w3.org/Graphics/SVG/1.1/DTD/svg11.dtd">
<svg version="1.1" id="Layer_1" xmlns="http://www.w3.org/2000/svg" xmlns:xlink="http://www.w3.org/1999/xlink" x="0px" y="0px"
	 viewBox="0 0 240.9 240.9" enable-background="new 0 0 240.9 240.9" xml:space="preserve">
<g>
	<g>
		<g>
			<g enable-background="new    ">
				<g enable-background="new    ">
					<defs>
						<path id="SVGID_1_" enable-background="new    " d="M88.4,149.3l0,2c0,0-0.6,0-1.4,0c-0.8,0-1.4,0-1.4,0l0-2c0,0,0.6,0,1.4,0
							C87.8,149.3,88.4,149.3,88.4,149.3z"/>
					</defs>
					<clipPath id="SVGID_2_">
						<use xlink:href="#SVGID_1_"  overflow="visible"/>
					</clipPath>
					<g clip-path="url(#SVGID_2_)" enable-background="new    ">
						<path fill="#8F0507" d="M88.4,149.3v2c0,0-0.1,0-0.3,0v-2C88.3,149.3,88.4,149.3,88.4,149.3"/>
						<path fill="#920609" d="M88.1,149.3v2c0,0-0.1,0-0.1,0L88.1,149.3C88.1,149.3,88.1,149.3,88.1,149.3"/>
						<path fill="#96080B" d="M88,149.3v2c0,0,0,0-0.1,0L88,149.3C88,149.3,88,149.3,88,149.3"/>
						<path fill="#9A090D" d="M88,149.3v2c0,0,0,0-0.1,0L88,149.3C87.9,149.3,87.9,149.3,88,149.3"/>
						<path fill="#9E0B0F" d="M87.9,149.3v2c0,0,0,0-0.1,0L87.9,149.3C87.8,149.3,87.9,149.3,87.9,149.3"/>
						<path fill="#A10C11" d="M87.8,149.3v2c0,0,0,0-0.1,0L87.8,149.3C87.8,149.3,87.8,149.3,87.8,149.3"/>
						<path fill="#A50D12" d="M87.8,149.3v2c0,0,0,0-0.1,0L87.8,149.3C87.7,149.3,87.7,149.3,87.8,149.3"/>
						<path fill="#A90F14" d="M87.7,149.3v2c0,0,0,0-0.1,0L87.7,149.3C87.7,149.3,87.7,149.3,87.7,149.3"/>
						<path fill="#AD1015" d="M87.6,149.3v2c0,0,0,0-0.1,0L87.6,149.3C87.6,149.3,87.6,149.3,87.6,149.3"/>
						<path fill="#B11116" d="M87.6,149.3v2c0,0,0,0-0.1,0L87.6,149.3C87.6,149.3,87.6,149.3,87.6,149.3"/>
						<path fill="#B51218" d="M87.5,149.3v2c0,0,0,0-0.1,0L87.5,149.3C87.5,149.3,87.5,149.3,87.5,149.3"/>
						<path fill="#B91319" d="M87.5,149.3v2c0,0,0,0-0.1,0L87.5,149.3C87.4,149.3,87.5,149.3,87.5,149.3"/>
						<path fill="#BC141A" d="M87.4,149.3v2c0,0,0,0,0,0L87.4,149.3C87.4,149.3,87.4,149.3,87.4,149.3"/>
						<path fill="#C0151B" d="M87.4,149.3v2c0,0,0,0,0,0L87.4,149.3C87.3,149.3,87.4,149.3,87.4,149.3"/>
						<path fill="#C4161C" d="M87.3,149.3v2c0,0,0,0,0,0L87.3,149.3C87.3,149.3,87.3,149.3,87.3,149.3"/>
						<path fill="#C8161D" d="M87.3,149.3v2c0,0,0,0,0,0L87.3,149.3C87.3,149.3,87.3,149.3,87.3,149.3"/>
						<path fill="#CC171E" d="M87.2,149.3v2c0,0,0,0,0,0L87.2,149.3C87.2,149.3,87.2,149.3,87.2,149.3"/>
						<path fill="#D0181F" d="M87.2,149.3v2c0,0,0,0,0,0L87.2,149.3C87.2,149.3,87.2,149.3,87.2,149.3"/>
						<path fill="#D31920" d="M87.2,149.3v2c0,0,0,0,0,0L87.2,149.3C87.2,149.3,87.2,149.3,87.2,149.3"/>
						<path fill="#D71920" d="M87.2,149.3v2c0,0,0,0,0,0L87.2,149.3C87.1,149.3,87.1,149.3,87.2,149.3"/>
						<path fill="#DB1A21" d="M87.1,149.3v2c0,0,0,0,0,0L87.1,149.3C87.1,149.3,87.1,149.3,87.1,149.3"/>
						<path fill="#DF1A22" d="M87.1,149.3v2c0,0,0,0,0,0L87.1,149.3C87.1,149.3,87.1,149.3,87.1,149.3"/>
						<path fill="#E31B23" d="M87.1,149.3v2c0,0,0,0,0,0L87.1,149.3C87.1,149.3,87.1,149.3,87.1,149.3"/>
						<path fill="#E71C23" d="M87,149.3v2c0,0,0,0,0,0L87,149.3C87,149.3,87,149.3,87,149.3"/>
						<path fill="#ED1C24" d="M87,149.3v2c0,0,0,0,0,0L87,149.3C87,149.3,87,149.3,87,149.3"/>
						<path fill="#EF4632" d="M87,149.3v2c0,0,0,0,0,0c0,0,0,0,0,0L87,149.3C87,149.3,87,149.3,87,149.3C87,149.3,87,149.3,87,149.3
							"/>
						<path fill="#F0533A" d="M87,149.3v2c0,0,0,0,0,0L87,149.3C87,149.3,87,149.3,87,149.3"/>
						<path fill="#F15C41" d="M87,149.3v2c0,0,0,0,0,0L87,149.3C86.9,149.3,87,149.3,87,149.3"/>
						<path fill="#F26447" d="M86.9,149.3v2c0,0,0,0,0,0L86.9,149.3C86.9,149.3,86.9,149.3,86.9,149.3"/>
						<path fill="#F26A4D" d="M86.9,149.3v2c0,0,0,0,0,0L86.9,149.3C86.9,149.3,86.9,149.3,86.9,149.3"/>
						<path fill="#F36F51" d="M86.9,149.3v2c0,0,0,0,0,0L86.9,149.3C86.9,149.3,86.9,149.3,86.9,149.3"/>
						<path fill="#F37456" d="M86.9,149.3v2c0,0,0,0,0,0L86.9,149.3C86.9,149.3,86.9,149.3,86.9,149.3"/>
						<path fill="#F4785A" d="M86.8,149.3v2c0,0,0,0,0,0L86.8,149.3C86.8,149.3,86.8,149.3,86.8,149.3"/>
						<path fill="#F47C5E" d="M86.8,149.3v2c0,0,0,0,0,0L86.8,149.3C86.8,149.3,86.8,149.3,86.8,149.3"/>
						<path fill="#F48062" d="M86.8,149.3v2c0,0,0,0-0.1,0L86.8,149.3C86.8,149.3,86.8,149.3,86.8,149.3"/>
						<path fill="#F58365" d="M86.7,149.3v2c0,0-0.1,0-0.1,0v-2C86.6,149.3,86.7,149.3,86.7,149.3"/>
						<path fill="#F48062" d="M86.6,149.3v2c0,0,0,0-0.1,0L86.6,149.3C86.6,149.3,86.6,149.3,86.6,149.3"/>
						<path fill="#F47C5E" d="M86.6,149.3v2c0,0,0,0,0,0L86.6,149.3C86.5,149.3,86.5,149.3,86.6,149.3"/>
						<path fill="#F4785A" d="M86.5,149.3v2c0,0,0,0,0,0L86.5,149.3C86.5,149.3,86.5,149.3,86.5,149.3"/>
						<path fill="#F37456" d="M86.5,149.3v2c0,0,0,0,0,0L86.5,149.3C86.5,149.3,86.5,149.3,86.5,149.3"/>
						<path fill="#F36F51" d="M86.5,149.3v2c0,0,0,0,0,0L86.5,149.3C86.4,149.3,86.5,149.3,86.5,149.3"/>
						<path fill="#F26A4D" d="M86.4,149.3v2c0,0,0,0,0,0L86.4,149.3C86.4,149.3,86.4,149.3,86.4,149.3"/>
						<path fill="#F26447" d="M86.4,149.3v2c0,0,0,0,0,0L86.4,149.3C86.4,149.3,86.4,149.3,86.4,149.3"/>
						<path fill="#F15C41" d="M86.4,149.3v2c0,0,0,0,0,0L86.4,149.3C86.4,149.3,86.4,149.3,86.4,149.3"/>
						<path fill="#F0533A" d="M86.4,149.3v2c0,0,0,0,0,0L86.4,149.3C86.3,149.3,86.3,149.3,86.4,149.3"/>
						<path fill="#EF4632" d="M86.3,149.3v2c0,0,0,0,0,0L86.3,149.3C86.3,149.3,86.3,149.3,86.3,149.3"/>
						<path fill="#ED1C24" d="M86.3,149.3v2c0,0,0,0,0,0L86.3,149.3C86.3,149.3,86.3,149.3,86.3,149.3"/>
						<path fill="#E71C23" d="M86.3,149.3v2c0,0,0,0,0,0L86.3,149.3C86.2,149.3,86.2,149.3,86.3,149.3"/>
						<path fill="#E31B23" d="M86.2,149.3v2c0,0,0,0,0,0L86.2,149.3C86.2,149.3,86.2,149.3,86.2,149.3"/>
						<path fill="#DF1A22" d="M86.2,149.3v2c0,0,0,0-0.1,0L86.2,149.3C86.1,149.3,86.2,149.3,86.2,149.3"/>
						<path fill="#DB1A21" d="M86.1,149.3v2c0,0,0,0-0.1,0L86.1,149.3C86.1,149.3,86.1,149.3,86.1,149.3"/>
						<path fill="#D71920" d="M86.1,149.3v2c0,0,0,0-0.1,0L86.1,149.3C86,149.3,86,149.3,86.1,149.3"/>
						<path fill="#D31920" d="M86,149.3v2c0,0,0,0-0.1,0L86,149.3C86,149.3,86,149.3,86,149.3"/>
						<path fill="#D0181F" d="M85.9,149.3v2c0,0,0,0,0,0L85.9,149.3C85.9,149.3,85.9,149.3,85.9,149.3"/>
						<path fill="#CC171E" d="M85.9,149.3v2c0,0,0,0,0,0L85.9,149.3C85.9,149.3,85.9,149.3,85.9,149.3"/>
						<path fill="#C8161D" d="M85.8,149.3v2c0,0,0,0,0,0L85.8,149.3C85.8,149.3,85.8,149.3,85.8,149.3"/>
						<path fill="#C4161C" d="M85.8,149.3v2c0,0,0,0,0,0L85.8,149.3C85.8,149.3,85.8,149.3,85.8,149.3"/>
						<path fill="#C0151B" d="M85.8,149.3v2c0,0,0,0,0,0L85.8,149.3C85.8,149.3,85.8,149.3,85.8,149.3"/>
						<path fill="#BC141A" d="M85.7,149.3v2c0,0,0,0,0,0L85.7,149.3C85.7,149.3,85.7,149.3,85.7,149.3"/>
						<path fill="#B91319" d="M85.7,149.3v2c0,0,0,0,0,0L85.7,149.3C85.7,149.3,85.7,149.3,85.7,149.3"/>
						<path fill="#B51218" d="M85.7,149.3v2c0,0,0,0,0,0L85.7,149.3C85.7,149.3,85.7,149.3,85.7,149.3"/>
						<path fill="#B11116" d="M85.7,149.3v2c0,0,0,0,0,0L85.7,149.3C85.7,149.3,85.7,149.3,85.7,149.3"/>
						<path fill="#AD1015" d="M85.7,149.3v2c0,0,0,0,0,0L85.7,149.3C85.6,149.3,85.6,149.3,85.7,149.3"/>
						<polyline fill="#A90F14" points="85.6,149.3 85.6,151.3 85.6,151.3 85.6,149.3 85.6,149.3 						"/>
						<polyline fill="#A50D12" points="85.6,149.3 85.6,151.3 85.6,151.3 85.6,149.3 85.6,149.3 						"/>
						<polyline fill="#A10C11" points="85.6,149.3 85.6,151.3 85.6,151.3 85.6,149.3 85.6,149.3 						"/>
						<polyline fill="#9E0B0F" points="85.6,149.3 85.6,151.3 85.6,151.3 85.6,149.3 85.6,149.3 						"/>
						<polyline fill="#9A090D" points="85.6,149.3 85.6,151.3 85.6,151.3 85.6,149.3 85.6,149.3 						"/>
					</g>
				</g>
				<g enable-background="new    ">
					<defs>
						<path id="SVGID_3_" enable-background="new    " d="M88.4,149.3l0,2c0,0-0.6,0-1.4,0c-0.8,0-1.4,0-1.4,0v-2c0,0,0.6,0,1.4,0
							C87.8,149.3,88.4,149.3,88.4,149.3z"/>
					</defs>
					<clipPath id="SVGID_4_">
						<use xlink:href="#SVGID_3_"  overflow="visible"/>
					</clipPath>
					<g clip-path="url(#SVGID_4_)" enable-background="new    ">
						<polyline fill="#9A090D" points="88.4,149.3 88.4,151.3 88.4,151.3 88.4,149.3 88.4,149.3 						"/>
						<polyline fill="#9E0B0F" points="88.4,149.3 88.4,151.3 88.4,151.3 88.4,149.3 88.4,149.3 						"/>
						<polyline fill="#A10C11" points="88.4,149.3 88.4,151.3 88.4,151.3 88.4,149.3 88.4,149.3 						"/>
						<polyline fill="#A50D12" points="88.4,149.3 88.4,151.3 88.4,151.3 88.4,149.3 88.4,149.3 						"/>
						<polyline fill="#A90F14" points="88.4,149.3 88.4,151.3 88.4,151.3 88.4,149.3 88.4,149.3 						"/>
						<path fill="#AD1015" d="M88.4,149.3v2c0,0,0,0,0,0L88.4,149.3C88.4,149.3,88.4,149.3,88.4,149.3"/>
						<path fill="#B11116" d="M88.4,149.3v2c0,0,0,0,0,0L88.4,149.3C88.3,149.3,88.3,149.3,88.4,149.3"/>
						<path fill="#B51218" d="M88.3,149.3v2c0,0,0,0,0,0L88.3,149.3C88.3,149.3,88.3,149.3,88.3,149.3"/>
						<path fill="#B91319" d="M88.3,149.3v2c0,0,0,0,0,0L88.3,149.3C88.3,149.3,88.3,149.3,88.3,149.3"/>
						<path fill="#BC141A" d="M88.3,149.3v2c0,0,0,0,0,0L88.3,149.3C88.3,149.3,88.3,149.3,88.3,149.3"/>
						<path fill="#C0151B" d="M88.3,149.3v2c0,0,0,0,0,0L88.3,149.3C88.2,149.3,88.3,149.3,88.3,149.3"/>
						<path fill="#C4161C" d="M88.2,149.3v2c0,0,0,0,0,0L88.2,149.3C88.2,149.3,88.2,149.3,88.2,149.3"/>
						<path fill="#C8161D" d="M88.2,149.3v2c0,0,0,0,0,0L88.2,149.3C88.2,149.3,88.2,149.3,88.2,149.3"/>
						<path fill="#CC171E" d="M88.2,149.3v2c0,0,0,0,0,0L88.2,149.3C88.1,149.3,88.1,149.3,88.2,149.3"/>
						<path fill="#D0181F" d="M88.1,149.3v2c0,0,0,0,0,0L88.1,149.3C88.1,149.3,88.1,149.3,88.1,149.3"/>
						<path fill="#D31920" d="M88.1,149.3v2c0,0,0,0-0.1,0L88.1,149.3C88,149.3,88,149.3,88.1,149.3"/>
						<path fill="#D71920" d="M88,149.3v2c0,0,0,0-0.1,0L88,149.3C88,149.3,88,149.3,88,149.3"/>
						<path fill="#DB1A21" d="M88,149.3v2c0,0,0,0-0.1,0L88,149.3C87.9,149.3,87.9,149.3,88,149.3"/>
						<path fill="#DF1A22" d="M87.9,149.3v2c0,0,0,0-0.1,0L87.9,149.3C87.9,149.3,87.9,149.3,87.9,149.3"/>
						<path fill="#E31B23" d="M87.8,149.3v2c0,0,0,0,0,0L87.8,149.3C87.8,149.3,87.8,149.3,87.8,149.3"/>
						<path fill="#E71C23" d="M87.8,149.3v2c0,0,0,0,0,0L87.8,149.3C87.8,149.3,87.8,149.3,87.8,149.3"/>
						<path fill="#ED1C24" d="M87.8,149.3v2c0,0,0,0,0,0L87.8,149.3C87.7,149.3,87.7,149.3,87.8,149.3"/>
						<path fill="#EF4632" d="M87.7,149.3v2c0,0,0,0,0,0L87.7,149.3C87.7,149.3,87.7,149.3,87.7,149.3"/>
						<path fill="#F0533A" d="M87.7,149.3v2c0,0,0,0,0,0L87.7,149.3C87.7,149.3,87.7,149.3,87.7,149.3"/>
						<path fill="#F15C41" d="M87.7,149.3v2c0,0,0,0,0,0L87.7,149.3C87.6,149.3,87.6,149.3,87.7,149.3"/>
						<path fill="#F26447" d="M87.6,149.3v2c0,0,0,0,0,0L87.6,149.3C87.6,149.3,87.6,149.3,87.6,149.3"/>
						<path fill="#F26A4D" d="M87.6,149.3v2c0,0,0,0,0,0L87.6,149.3C87.6,149.3,87.6,149.3,87.6,149.3"/>
						<path fill="#F36F51" d="M87.6,149.3v2c0,0,0,0,0,0L87.6,149.3C87.6,149.3,87.6,149.3,87.6,149.3"/>
						<path fill="#F37456" d="M87.5,149.3v2c0,0,0,0,0,0L87.5,149.3C87.5,149.3,87.5,149.3,87.5,149.3"/>
						<path fill="#F4785A" d="M87.5,149.3v2c0,0,0,0,0,0L87.5,149.3C87.5,149.3,87.5,149.3,87.5,149.3"/>
						<path fill="#F47C5E" d="M87.5,149.3v2c0,0,0,0,0,0L87.5,149.3C87.5,149.3,87.5,149.3,87.5,149.3"/>
						<path fill="#F48062" d="M87.5,149.3v2c0,0,0,0-0.1,0L87.5,149.3C87.4,149.3,87.4,149.3,87.5,149.3"/>
						<path fill="#F58365" d="M87.4,149.3v2c0,0-0.1,0-0.1,0v-2C87.3,149.3,87.4,149.3,87.4,149.3"/>
						<path fill="#F48062" d="M87.3,149.3v2c0,0,0,0-0.1,0L87.3,149.3C87.2,149.3,87.3,149.3,87.3,149.3"/>
						<path fill="#F47C5E" d="M87.2,149.3v2c0,0,0,0,0,0L87.2,149.3C87.2,149.3,87.2,149.3,87.2,149.3"/>
						<path fill="#F4785A" d="M87.2,149.3v2c0,0,0,0,0,0L87.2,149.3C87.2,149.3,87.2,149.3,87.2,149.3"/>
						<path fill="#F37456" d="M87.2,149.3v2c0,0,0,0,0,0L87.2,149.3C87.1,149.3,87.2,149.3,87.2,149.3"/>
						<path fill="#F36F51" d="M87.1,149.3v2c0,0,0,0,0,0L87.1,149.3C87.1,149.3,87.1,149.3,87.1,149.3"/>
						<path fill="#F26A4D" d="M87.1,149.3v2c0,0,0,0,0,0L87.1,149.3C87.1,149.3,87.1,149.3,87.1,149.3"/>
						<path fill="#F26447" d="M87.1,149.3v2c0,0,0,0,0,0L87.1,149.3C87.1,149.3,87.1,149.3,87.1,149.3"/>
						<path fill="#F15C41" d="M87.1,149.3v2c0,0,0,0,0,0L87.1,149.3C87,149.3,87.1,149.3,87.1,149.3"/>
						<path fill="#F0533A" d="M87,149.3v2c0,0,0,0,0,0L87,149.3C87,149.3,87,149.3,87,149.3"/>
						<path fill="#EF4632" d="M87,149.3v2c0,0,0,0,0,0c0,0,0,0,0,0L87,149.3C87,149.3,87,149.3,87,149.3C87,149.3,87,149.3,87,149.3
							"/>
						<path fill="#ED1C24" d="M87,149.3v2c0,0,0,0,0,0L87,149.3C87,149.3,87,149.3,87,149.3"/>
						<path fill="#E71C23" d="M87,149.3v2c0,0,0,0,0,0L87,149.3C87,149.3,87,149.3,87,149.3"/>
						<path fill="#E31B23" d="M87,149.3v2c0,0,0,0,0,0L87,149.3C86.9,149.3,86.9,149.3,87,149.3"/>
						<path fill="#DF1A22" d="M86.9,149.3v2c0,0,0,0,0,0L86.9,149.3C86.9,149.3,86.9,149.3,86.9,149.3"/>
						<path fill="#DB1A21" d="M86.9,149.3v2c0,0,0,0,0,0L86.9,149.3C86.9,149.3,86.9,149.3,86.9,149.3"/>
						<path fill="#D71920" d="M86.9,149.3v2c0,0,0,0,0,0L86.9,149.3C86.9,149.3,86.9,149.3,86.9,149.3"/>
						<path fill="#D31920" d="M86.8,149.3v2c0,0,0,0,0,0L86.8,149.3C86.8,149.3,86.8,149.3,86.8,149.3"/>
						<path fill="#D0181F" d="M86.8,149.3v2c0,0,0,0,0,0L86.8,149.3C86.8,149.3,86.8,149.3,86.8,149.3"/>
						<path fill="#CC171E" d="M86.8,149.3v2c0,0,0,0,0,0L86.8,149.3C86.8,149.3,86.8,149.3,86.8,149.3"/>
						<path fill="#C8161D" d="M86.8,149.3v2c0,0,0,0,0,0L86.8,149.3C86.7,149.3,86.7,149.3,86.8,149.3"/>
						<path fill="#C4161C" d="M86.7,149.3v2c0,0,0,0,0,0L86.7,149.3C86.7,149.3,86.7,149.3,86.7,149.3"/>
						<path fill="#C0151B" d="M86.7,149.3v2c0,0,0,0,0,0L86.7,149.3C86.6,149.3,86.7,149.3,86.7,149.3"/>
						<path fill="#BC141A" d="M86.6,149.3v2c0,0,0,0,0,0L86.6,149.3C86.6,149.3,86.6,149.3,86.6,149.3"/>
						<path fill="#B91319" d="M86.6,149.3v2c0,0,0,0-0.1,0L86.6,149.3C86.5,149.3,86.6,149.3,86.6,149.3"/>
						<path fill="#B51218" d="M86.5,149.3v2c0,0,0,0-0.1,0L86.5,149.3C86.5,149.3,86.5,149.3,86.5,149.3"/>
						<path fill="#B11116" d="M86.5,149.3v2c0,0,0,0-0.1,0L86.5,149.3C86.4,149.3,86.5,149.3,86.5,149.3"/>
						<path fill="#AD1015" d="M86.4,149.3v2c0,0,0,0-0.1,0L86.4,149.3C86.4,149.3,86.4,149.3,86.4,149.3"/>
						<path fill="#A90F14" d="M86.4,149.3v2c0,0,0,0-0.1,0L86.4,149.3C86.3,149.3,86.3,149.3,86.4,149.3"/>
						<path fill="#A50D12" d="M86.3,149.3v2c0,0,0,0-0.1,0L86.3,149.3C86.3,149.3,86.3,149.3,86.3,149.3"/>
						<path fill="#A10C11" d="M86.2,149.3v2c0,0,0,0-0.1,0L86.2,149.3C86.2,149.3,86.2,149.3,86.2,149.3"/>
						<path fill="#9E0B0F" d="M86.2,149.3v2c0,0,0,0-0.1,0L86.2,149.3C86.1,149.3,86.2,149.3,86.2,149.3"/>
						<path fill="#9A090D" d="M86.1,149.3v2c0,0,0,0-0.1,0L86.1,149.3C86.1,149.3,86.1,149.3,86.1,149.3"/>
						<path fill="#96080B" d="M86.1,149.3v2c0,0,0,0-0.1,0L86.1,149.3C86,149.3,86,149.3,86.1,149.3"/>
						<path fill="#920609" d="M86,149.3v2c0,0-0.1,0-0.1,0L86,149.3C85.9,149.3,86,149.3,86,149.3"/>
						<path fill="#8F0507" d="M85.9,149.3v2c-0.2,0-0.3,0-0.3,0v-2C85.6,149.3,85.7,149.3,85.9,149.3"/>
					</g>
				</g>
				<g enable-background="new    ">
					<defs>
						<path id="SVGID_5_" enable-background="new    " d="M90.4,149.3l0,2c0,0-1.5,0-3.4,0c-1.9,0-3.4,0-3.4,0l0-2c0,0,1.5,0,3.4,0
							C88.9,149.3,90.4,149.3,90.4,149.3z"/>
					</defs>
					<clipPath id="SVGID_6_">
						<use xlink:href="#SVGID_5_"  overflow="visible"/>
					</clipPath>
					<g clip-path="url(#SVGID_6_)" enable-background="new    ">
						<polyline fill="#9A090D" points="90.4,149.3 90.4,151.3 90.4,151.3 90.4,149.3 90.4,149.3 						"/>
						<polyline fill="#9E0B0F" points="90.4,149.3 90.4,151.3 90.4,151.3 90.4,149.3 90.4,149.3 						"/>
						<path fill="#A10C11" d="M90.4,149.3v2c0,0,0,0,0,0L90.4,149.3C90.4,149.3,90.4,149.3,90.4,149.3"/>
						<path fill="#A50D12" d="M90.4,149.3v2c0,0,0,0,0,0L90.4,149.3C90.4,149.3,90.4,149.3,90.4,149.3"/>
						<path fill="#A90F14" d="M90.4,149.3v2c0,0,0,0,0,0L90.4,149.3C90.3,149.3,90.3,149.3,90.4,149.3"/>
						<path fill="#AD1015" d="M90.3,149.3v2c0,0,0,0,0,0L90.3,149.3C90.3,149.3,90.3,149.3,90.3,149.3"/>
						<path fill="#B11116" d="M90.3,149.3v2c0,0,0,0,0,0L90.3,149.3C90.3,149.3,90.3,149.3,90.3,149.3"/>
						<path fill="#B51218" d="M90.2,149.3v2c0,0,0,0-0.1,0L90.2,149.3C90.2,149.3,90.2,149.3,90.2,149.3"/>
						<path fill="#B91319" d="M90.2,149.3v2c0,0,0,0-0.1,0L90.2,149.3C90.2,149.3,90.2,149.3,90.2,149.3"/>
						<path fill="#BC141A" d="M90.1,149.3v2c0,0,0,0-0.1,0L90.1,149.3C90.1,149.3,90.1,149.3,90.1,149.3"/>
						<path fill="#C0151B" d="M90.1,149.3v2c0,0,0,0-0.1,0L90.1,149.3C90,149.3,90,149.3,90.1,149.3"/>
						<path fill="#C4161C" d="M90,149.3v2c0,0-0.1,0-0.1,0L90,149.3C89.9,149.3,90,149.3,90,149.3"/>
						<path fill="#C8161D" d="M89.9,149.3v2c0,0-0.1,0-0.1,0L89.9,149.3C89.9,149.3,89.9,149.3,89.9,149.3"/>
						<path fill="#CC171E" d="M89.8,149.3v2c0,0-0.1,0-0.1,0v-2C89.8,149.3,89.8,149.3,89.8,149.3"/>
						<path fill="#D0181F" d="M89.7,149.3v2c0,0-0.1,0-0.1,0v-2C89.6,149.3,89.7,149.3,89.7,149.3"/>
						<path fill="#D31920" d="M89.6,149.3v2c0,0-0.1,0-0.1,0v-2C89.5,149.3,89.6,149.3,89.6,149.3"/>
						<path fill="#D71920" d="M89.5,149.3v2c0,0-0.1,0-0.1,0v-2C89.4,149.3,89.4,149.3,89.5,149.3"/>
						<path fill="#DB1A21" d="M89.3,149.3v2c0,0-0.1,0-0.1,0v-2C89.2,149.3,89.3,149.3,89.3,149.3"/>
						<path fill="#DF1A22" d="M89.2,149.3v2c0,0-0.1,0-0.1,0v-2C89.1,149.3,89.2,149.3,89.2,149.3"/>
						<path fill="#E31B23" d="M89.1,149.3v2c0,0-0.1,0-0.1,0v-2C89,149.3,89,149.3,89.1,149.3"/>
						<path fill="#E71C23" d="M89,149.3v2c0,0-0.1,0-0.1,0L89,149.3C88.9,149.3,88.9,149.3,89,149.3"/>
						<path fill="#ED1C24" d="M88.9,149.3v2c0,0-0.1,0-0.1,0L88.9,149.3C88.8,149.3,88.8,149.3,88.9,149.3"/>
						<path fill="#EF4632" d="M88.8,149.3v2c0,0,0,0-0.1,0L88.8,149.3C88.7,149.3,88.7,149.3,88.8,149.3"/>
						<path fill="#F0533A" d="M88.7,149.3v2c0,0,0,0-0.1,0L88.7,149.3C88.7,149.3,88.7,149.3,88.7,149.3"/>
						<path fill="#F15C41" d="M88.6,149.3v2c0,0,0,0-0.1,0L88.6,149.3C88.6,149.3,88.6,149.3,88.6,149.3"/>
						<path fill="#F26447" d="M88.6,149.3v2c0,0,0,0-0.1,0L88.6,149.3C88.5,149.3,88.5,149.3,88.6,149.3"/>
						<path fill="#F26A4D" d="M88.5,149.3v2c0,0,0,0-0.1,0L88.5,149.3C88.4,149.3,88.5,149.3,88.5,149.3"/>
						<path fill="#F36F51" d="M88.4,149.3v2c0,0,0,0-0.1,0L88.4,149.3C88.4,149.3,88.4,149.3,88.4,149.3"/>
						<path fill="#F37456" d="M88.4,149.3v2c0,0,0,0-0.1,0L88.4,149.3C88.3,149.3,88.3,149.3,88.4,149.3"/>
						<path fill="#F4785A" d="M88.3,149.3v2c0,0-0.1,0-0.1,0L88.3,149.3C88.2,149.3,88.3,149.3,88.3,149.3"/>
						<path fill="#F47C5E" d="M88.2,149.3v2c0,0-0.1,0-0.1,0L88.2,149.3C88.2,149.3,88.2,149.3,88.2,149.3"/>
						<path fill="#F48062" d="M88.1,149.3v2c0,0-0.1,0-0.1,0v-2C88,149.3,88.1,149.3,88.1,149.3"/>
						<path fill="#F58365" d="M88,149.3v2c-0.1,0-0.2,0-0.3,0v-2C87.8,149.3,87.9,149.3,88,149.3"/>
						<path fill="#F48062" d="M87.7,149.3v2c0,0-0.1,0-0.1,0v-2C87.6,149.3,87.6,149.3,87.7,149.3"/>
						<path fill="#F47C5E" d="M87.5,149.3v2c0,0,0,0-0.1,0L87.5,149.3C87.5,149.3,87.5,149.3,87.5,149.3"/>
						<path fill="#F4785A" d="M87.5,149.3v2c0,0,0,0-0.1,0L87.5,149.3C87.4,149.3,87.4,149.3,87.5,149.3"/>
						<path fill="#F37456" d="M87.4,149.3v2c0,0,0,0-0.1,0L87.4,149.3C87.4,149.3,87.4,149.3,87.4,149.3"/>
						<path fill="#F36F51" d="M87.3,149.3v2c0,0,0,0-0.1,0L87.3,149.3C87.3,149.3,87.3,149.3,87.3,149.3"/>
						<path fill="#F26A4D" d="M87.3,149.3v2c0,0,0,0-0.1,0L87.3,149.3C87.2,149.3,87.2,149.3,87.3,149.3"/>
						<path fill="#F26447" d="M87.2,149.3v2c0,0,0,0-0.1,0L87.2,149.3C87.2,149.3,87.2,149.3,87.2,149.3"/>
						<path fill="#F15C41" d="M87.2,149.3v2c0,0,0,0-0.1,0L87.2,149.3C87.1,149.3,87.1,149.3,87.2,149.3"/>
						<path fill="#F0533A" d="M87.1,149.3v2c0,0,0,0-0.1,0L87.1,149.3C87.1,149.3,87.1,149.3,87.1,149.3"/>
						<path fill="#EF4632" d="M87,149.3v2c0,0,0,0-0.1,0c0,0,0,0,0,0L87,149.3C87,149.3,87,149.3,87,149.3
							C87,149.3,87,149.3,87,149.3"/>
						<path fill="#ED1C24" d="M87,149.3v2c0,0,0,0-0.1,0L87,149.3C87,149.3,87,149.3,87,149.3"/>
						<path fill="#E71C23" d="M86.9,149.3v2c0,0,0,0-0.1,0L86.9,149.3C86.9,149.3,86.9,149.3,86.9,149.3"/>
						<path fill="#E31B23" d="M86.9,149.3v2c0,0,0,0-0.1,0L86.9,149.3C86.8,149.3,86.9,149.3,86.9,149.3"/>
						<path fill="#DF1A22" d="M86.8,149.3v2c0,0,0,0-0.1,0L86.8,149.3C86.8,149.3,86.8,149.3,86.8,149.3"/>
						<path fill="#DB1A21" d="M86.8,149.3v2c0,0,0,0-0.1,0L86.8,149.3C86.7,149.3,86.7,149.3,86.8,149.3"/>
						<path fill="#D71920" d="M86.7,149.3v2c0,0,0,0-0.1,0L86.7,149.3C86.6,149.3,86.7,149.3,86.7,149.3"/>
						<path fill="#D31920" d="M86.6,149.3v2c0,0,0,0-0.1,0L86.6,149.3C86.6,149.3,86.6,149.3,86.6,149.3"/>
						<path fill="#D0181F" d="M86.5,149.3v2c0,0,0,0-0.1,0L86.5,149.3C86.5,149.3,86.5,149.3,86.5,149.3"/>
						<path fill="#CC171E" d="M86.5,149.3v2c0,0-0.1,0-0.1,0L86.5,149.3C86.4,149.3,86.4,149.3,86.5,149.3"/>
						<path fill="#C8161D" d="M86.4,149.3v2c0,0-0.1,0-0.1,0L86.4,149.3C86.3,149.3,86.3,149.3,86.4,149.3"/>
						<path fill="#C4161C" d="M86.3,149.3v2c0,0-0.1,0-0.1,0L86.3,149.3C86.2,149.3,86.2,149.3,86.3,149.3"/>
						<path fill="#C0151B" d="M86.2,149.3v2c0,0-0.1,0-0.1,0v-2C86.1,149.3,86.1,149.3,86.2,149.3"/>
						<path fill="#BC141A" d="M86.1,149.3v2c0,0-0.1,0-0.1,0v-2C86,149.3,86,149.3,86.1,149.3"/>
						<path fill="#B91319" d="M85.9,149.3v2c0,0-0.1,0-0.1,0v-2C85.9,149.3,85.9,149.3,85.9,149.3"/>
						<path fill="#B51218" d="M85.8,149.3v2c0,0-0.1,0-0.1,0v-2C85.7,149.3,85.8,149.3,85.8,149.3"/>
						<path fill="#B11116" d="M85.7,149.3v2c0,0-0.1,0-0.1,0v-2C85.6,149.3,85.6,149.3,85.7,149.3"/>
						<path fill="#AD1015" d="M85.5,149.3v2c0,0-0.1,0-0.1,0v-2C85.5,149.3,85.5,149.3,85.5,149.3"/>
						<path fill="#A90F14" d="M85.4,149.3v2c0,0-0.1,0-0.1,0v-2C85.3,149.3,85.4,149.3,85.4,149.3"/>
						<path fill="#A50D12" d="M85.3,149.3v2c0,0-0.1,0-0.1,0v-2C85.2,149.3,85.2,149.3,85.3,149.3"/>
						<path fill="#A10C11" d="M85.1,149.3v2c0,0-0.1,0-0.1,0v-2C85,149.3,85.1,149.3,85.1,149.3"/>
						<path fill="#9E0B0F" d="M85,149.3v2c-0.1,0-0.1,0-0.2,0v-2C84.9,149.3,84.9,149.3,85,149.3"/>
						<path fill="#9A090D" d="M84.8,149.3v2c-0.1,0-0.1,0-0.2,0v-2C84.7,149.3,84.8,149.3,84.8,149.3"/>
						<path fill="#96080B" d="M84.7,149.3v2c-0.1,0-0.1,0-0.2,0v-2C84.6,149.3,84.6,149.3,84.7,149.3"/>
						<path fill="#920609" d="M84.5,149.3v2c-0.1,0-0.1,0-0.2,0v-2C84.4,149.3,84.4,149.3,84.5,149.3"/>
						<path fill="#8F0507" d="M84.3,149.3v2c-0.4,0-0.7,0-0.7,0v-2C83.6,149.3,83.9,149.3,84.3,149.3"/>
					</g>
				</g>
			</g>
		</g>
	</g>
	<g>
		<line fill="none" stroke="#000000" stroke-miterlimit="10" x1="5" y1="121.9" x2="87" y2="121.9"/>
		<line stroke="#000000" stroke-miterlimit="10" x1="87" y1="121.3" x2="87" y2="149.2"/>
	</g>
</g>
<line fill="none" stroke="#00A651" stroke-width="0.5" stroke-miterlimit="10" x1="115.6" y1="78.3" x2="115.6" y2="78.3"/>
<line fill="none" stroke="#00A651" stroke-width="4" stroke-miterlimit="10" x1="226.6" y1="93.9" x2="226.6" y2="124.1"/>
<line fill="none" x1="198" y1="45.2" x2="198" y2="24.5"/>
<line fill="none" x1="175.6" y1="51.9" x2="175.6" y2="17.5"/>
<g>
	<g>
		<g enable-background="new    ">
			<g>
				<rect x="6.1" y="151.3" fill="#009BD5" width="169.1" height="10"/>
			</g>
			<g>
				<rect x="6.1" y="151.3" fill="#009BD5" width="169.1" height="10"/>
			</g>
			<g>
				<rect x="5.1" y="151.3" fill="#009BD5" width="171.1" height="10"/>
			</g>
		</g>
	</g>
</g>
<rect x="130.2" y="78.2" fill="#FFFFFF" width="17" height="28.3"/>
<line fill="none" x1="129.2" y1="102.5" x2="138.1" y2="152.7"/>
<g>
	<g>
		<g enable-background="new    ">
			<g enable-background="new    ">
				<defs>
					<path id="SVGID_7_" enable-background="new    " d="M152.1,63.4l0.5,36.2c0,2.6-3.9,4.9-10,5.7l-0.5-36.2
						C148.1,68.3,152.1,65.9,152.1,63.4z"/>
				</defs>
				<clipPath id="SVGID_8_">
					<use xlink:href="#SVGID_7_"  overflow="visible"/>
				</clipPath>
				<g clip-path="url(#SVGID_8_)" enable-background="new    ">
					<path fill="#C9C9C9" d="M142.5,105.3l-0.5-36.2c0.1,0,0.2,0,0.2,0l0.5,36.2C142.7,105.3,142.6,105.3,142.5,105.3"/>
					<path fill="#C4C4C4" d="M142.8,105.3l-0.5-36.2c0.2,0,0.3,0,0.5-0.1l0.5,36.2C143.1,105.3,142.9,105.3,142.8,105.3"/>
					<path fill="#C0C0C0" d="M143.2,105.2L142.8,69c0.2,0,0.3-0.1,0.5-0.1l0.5,36.2C143.6,105.2,143.4,105.2,143.2,105.2"/>
					<path fill="#BBBBBB" d="M143.7,105.2l-0.5-36.2c0.2,0,0.3-0.1,0.5-0.1l0.5,36.2C144.1,105.1,143.9,105.1,143.7,105.2"/>
					<path fill="#B6B6B6" d="M144.2,105.1l-0.5-36.2c0.2,0,0.3-0.1,0.5-0.1l0.5,36.2C144.6,105,144.4,105,144.2,105.1"/>
					<path fill="#B2B2B2" d="M144.7,105l-0.5-36.2c0.2,0,0.3-0.1,0.5-0.1l0.5,36.2C145,104.9,144.9,104.9,144.7,105"/>
					<path fill="#ADADAD" d="M145.2,104.9l-0.5-36.2c0.2,0,0.3-0.1,0.5-0.1l0.5,36.2C145.5,104.8,145.4,104.8,145.2,104.9"/>
					<path fill="#A9A9A9" d="M145.7,104.7l-0.5-36.2c0.2,0,0.3-0.1,0.5-0.1l0.5,36.2C146,104.7,145.9,104.7,145.7,104.7"/>
					<path fill="#A4A4A4" d="M146.2,104.6l-0.5-36.2c0.2,0,0.3-0.1,0.5-0.1l0.5,36.2C146.5,104.5,146.4,104.6,146.2,104.6"/>
					<path fill="#A0A0A0" d="M146.7,104.5l-0.5-36.2c0.2-0.1,0.3-0.1,0.5-0.2l0.5,36.2C147,104.4,146.9,104.4,146.7,104.5"/>
					<path fill="#9B9B9B" d="M147.2,104.3l-0.5-36.2c0.2-0.1,0.3-0.1,0.5-0.2l0.5,36.2C147.5,104.2,147.4,104.2,147.2,104.3"/>
					<path fill="#969696" d="M147.7,104.1l-0.5-36.2c0.2-0.1,0.4-0.1,0.5-0.2l0.5,36.2C148.1,104,147.9,104.1,147.7,104.1"/>
					<path fill="#929292" d="M148.2,103.9l-0.5-36.2c0.2-0.1,0.4-0.2,0.6-0.2l0.5,36.2C148.6,103.8,148.4,103.8,148.2,103.9"/>
					<path fill="#8D8D8D" d="M148.8,103.7l-0.5-36.2c0.2-0.1,0.4-0.2,0.6-0.3l0.5,36.2C149.2,103.5,149,103.6,148.8,103.7"/>
					<path fill="#898989" d="M149.4,103.4l-0.5-36.2c0.3-0.1,0.5-0.3,0.7-0.4l0.5,36.2C149.9,103.1,149.7,103.2,149.4,103.4"/>
					<path fill="#848484" d="M150.1,103l-0.5-36.2c1.6-1,2.4-2.2,2.4-3.4l0.5,36.2C152.6,100.8,151.7,102,150.1,103"/>
				</g>
			</g>
			<g enable-background="new    ">
				<defs>
					<path id="SVGID_9_" enable-background="new    " d="M125.2,100l-0.5-36.2c0,0.5,0.2,1,0.5,1.5c2,3.1,9.6,4.8,16.8,3.9l0.5,36.2
						c-7.3,0.9-14.8-0.8-16.8-3.9C125.4,101,125.2,100.5,125.2,100z"/>
				</defs>
				<clipPath id="SVGID_10_">
					<use xlink:href="#SVGID_9_"  overflow="visible"/>
				</clipPath>
				<g clip-path="url(#SVGID_10_)" enable-background="new    ">
					<polyline fill="#929292" points="125.2,100 124.7,63.7 124.7,63.7 125.2,100 125.2,100 					"/>
					<path fill="#969696" d="M125.2,100l-0.5-36.2c0,0.1,0,0.2,0,0.3l0.5,36.2C125.2,100.2,125.2,100.1,125.2,100"/>
					<path fill="#9B9B9B" d="M125.2,100.3L124.8,64c0,0.1,0,0.2,0.1,0.3l0.5,36.2C125.3,100.5,125.2,100.4,125.2,100.3"/>
					<path fill="#A0A0A0" d="M125.3,100.6l-0.5-36.2c0,0.1,0,0.2,0.1,0.3l0.5,36.2C125.3,100.7,125.3,100.6,125.3,100.6"/>
					<path fill="#A4A4A4" d="M125.4,100.8l-0.5-36.2c0,0.1,0.1,0.2,0.1,0.3l0.5,36.2C125.4,101,125.4,100.9,125.4,100.8"/>
					<path fill="#A9A9A9" d="M125.5,101.1L125,64.8c0,0.1,0.1,0.2,0.1,0.2l0.5,36.2C125.6,101.2,125.5,101.1,125.5,101.1"/>
					<path fill="#ADADAD" d="M125.6,101.3l-0.5-36.2c0,0.1,0.1,0.1,0.1,0.2c0,0,0,0,0,0.1l0.5,36.2c0,0,0,0,0-0.1
						C125.7,101.4,125.6,101.4,125.6,101.3"/>
					<path fill="#B2B2B2" d="M125.8,101.5l-0.5-36.2c0.1,0.1,0.1,0.2,0.2,0.2l0.5,36.2C125.9,101.7,125.8,101.6,125.8,101.5"/>
					<path fill="#B6B6B6" d="M125.9,101.8l-0.5-36.2c0.1,0.1,0.1,0.1,0.2,0.2l0.5,36.2C126,101.9,126,101.8,125.9,101.8"/>
					<path fill="#BBBBBB" d="M126.1,102l-0.5-36.2c0.1,0.1,0.1,0.1,0.2,0.2l0.5,36.2C126.2,102.1,126.2,102.1,126.1,102"/>
					<path fill="#C0C0C0" d="M126.3,102.2L125.8,66c0.1,0.1,0.1,0.1,0.2,0.2l0.5,36.2C126.5,102.3,126.4,102.3,126.3,102.2"/>
					<path fill="#C4C4C4" d="M126.5,102.4l-0.5-36.2c0.1,0.1,0.2,0.1,0.2,0.2l0.5,36.2C126.7,102.5,126.6,102.5,126.5,102.4"/>
					<path fill="#C9C9C9" d="M126.8,102.6l-0.5-36.2c0.1,0.1,0.2,0.1,0.3,0.2l0.5,36.2C127,102.8,126.9,102.7,126.8,102.6"/>
					<path fill="#CDCDCD" d="M127.1,102.8l-0.5-36.2c0.1,0.1,0.2,0.1,0.3,0.2l0.5,36.2C127.3,103,127.2,102.9,127.1,102.8"/>
					<path fill="#D2D2D2" d="M127.4,103l-0.5-36.2c0.1,0.1,0.2,0.1,0.3,0.2l0.5,36.2C127.6,103.2,127.5,103.1,127.4,103"/>
					<path fill="#D7D7D7" d="M127.7,103.2L127.2,67c0.1,0.1,0.2,0.1,0.4,0.2l0.5,36.2C127.9,103.4,127.8,103.3,127.7,103.2"/>
					<path fill="#DBDBDB" d="M128.1,103.4l-0.5-36.2c0.1,0.1,0.3,0.1,0.4,0.2l0.5,36.2C128.3,103.6,128.2,103.5,128.1,103.4"/>
					<path fill="#E0E0E0" d="M128.5,103.7L128,67.4c0.1,0.1,0.3,0.1,0.5,0.2l0.5,36.2C128.8,103.8,128.6,103.7,128.5,103.7"/>
					<path fill="#E4E4E4" d="M128.9,103.9l-0.5-36.2c0.2,0.1,0.3,0.1,0.5,0.2l0.5,36.2C129.3,104,129.1,103.9,128.9,103.9"/>
					<path fill="#E9E9E9" d="M129.5,104.1L129,67.9c0.2,0.1,0.4,0.1,0.6,0.2l0.5,36.2C129.8,104.2,129.6,104.2,129.5,104.1"/>
					<path fill="#EDEDED" d="M130,104.3l-0.5-36.2c0.2,0.1,0.4,0.1,0.6,0.2l0.5,36.2C130.4,104.4,130.2,104.4,130,104.3"/>
					<path fill="#F2F2F2" d="M130.6,104.5l-0.5-36.2c0.2,0.1,0.3,0.1,0.5,0.2l0.5,36.2C130.9,104.6,130.7,104.5,130.6,104.5"/>
					<path fill="#F3F3F3" d="M131.1,104.6l-0.5-36.2c0.2,0,0.3,0.1,0.5,0.1l0.5,36.2C131.4,104.7,131.3,104.7,131.1,104.6"/>
					<path fill="#F3F3F3" d="M131.6,104.8l-0.5-36.2c0.1,0,0.3,0.1,0.4,0.1l0.5,36.2C131.9,104.8,131.7,104.8,131.6,104.8"/>
					<path fill="#F4F4F4" d="M132,104.9l-0.5-36.2c0.1,0,0.3,0.1,0.4,0.1l0.5,36.2C132.3,104.9,132.2,104.9,132,104.9"/>
					<path fill="#F4F4F4" d="M132.4,105L132,68.7c0.1,0,0.3,0.1,0.4,0.1l0.5,36.2C132.7,105,132.5,105,132.4,105"/>
					<path fill="#F4F4F4" d="M132.8,105l-0.5-36.2c0.1,0,0.3,0.1,0.4,0.1l0.5,36.2C133.1,105.1,132.9,105.1,132.8,105"/>
					<path fill="#F4F4F4" d="M133.2,105.1l-0.5-36.2c0.1,0,0.3,0,0.4,0.1l0.5,36.2C133.5,105.2,133.3,105.1,133.2,105.1"/>
					<path fill="#F4F4F4" d="M133.6,105.2L133.1,69c0.1,0,0.3,0,0.4,0.1l0.5,36.2C133.8,105.2,133.7,105.2,133.6,105.2"/>
					<path fill="#F5F5F5" d="M134,105.2L133.5,69c0.2,0,0.4,0.1,0.6,0.1l0.5,36.2C134.4,105.3,134.2,105.3,134,105.2"/>
					<path fill="#F5F5F5" d="M134.5,105.3l-0.5-36.2c0.7,0.1,1.4,0.2,2.1,0.2l0.5,36.2C135.9,105.5,135.2,105.4,134.5,105.3"/>
					<path fill="#F5F5F5" d="M136.6,105.5l-0.5-36.2c0.2,0,0.4,0,0.5,0l0.5,36.2C137,105.5,136.8,105.5,136.6,105.5"/>
					<path fill="#F4F4F4" d="M137.2,105.6l-0.5-36.2c0.1,0,0.2,0,0.3,0l0.5,36.2C137.4,105.6,137.3,105.6,137.2,105.6"/>
					<path fill="#F4F4F4" d="M137.5,105.6L137,69.3c0.1,0,0.2,0,0.3,0l0.5,36.2C137.7,105.6,137.6,105.6,137.5,105.6"/>
					<path fill="#F4F4F4" d="M137.8,105.6l-0.5-36.2c0.1,0,0.2,0,0.3,0l0.5,36.2C138,105.6,137.9,105.6,137.8,105.6"/>
					<path fill="#F4F4F4" d="M138.1,105.6l-0.5-36.2c0.1,0,0.2,0,0.3,0l0.5,36.2C138.3,105.6,138.2,105.6,138.1,105.6"/>
					<path fill="#F4F4F4" d="M138.4,105.6l-0.5-36.2c0.1,0,0.2,0,0.3,0l0.5,36.2C138.6,105.6,138.5,105.6,138.4,105.6"/>
					<path fill="#F3F3F3" d="M138.7,105.6l-0.5-36.2c0.1,0,0.2,0,0.3,0l0.5,36.2C138.9,105.6,138.8,105.6,138.7,105.6"/>
					<path fill="#F3F3F3" d="M138.9,105.6l-0.5-36.2c0.1,0,0.2,0,0.3,0l0.5,36.2C139.1,105.6,139,105.6,138.9,105.6"/>
					<path fill="#F2F2F2" d="M139.2,105.6l-0.5-36.2c0.1,0,0.2,0,0.3,0l0.5,36.2C139.4,105.6,139.3,105.6,139.2,105.6"/>
					<path fill="#EDEDED" d="M139.5,105.6L139,69.3c0.1,0,0.2,0,0.3,0l0.5,36.2C139.7,105.6,139.6,105.6,139.5,105.6"/>
					<path fill="#E9E9E9" d="M139.8,105.6l-0.5-36.2c0.1,0,0.2,0,0.3,0l0.5,36.2C140,105.6,139.9,105.6,139.8,105.6"/>
					<path fill="#E4E4E4" d="M140.1,105.5l-0.5-36.2c0.1,0,0.2,0,0.3,0l0.5,36.2C140.3,105.5,140.2,105.5,140.1,105.5"/>
					<path fill="#E0E0E0" d="M140.4,105.5l-0.5-36.2c0.1,0,0.2,0,0.4,0l0.5,36.2C140.6,105.5,140.5,105.5,140.4,105.5"/>
					<path fill="#DBDBDB" d="M140.7,105.5l-0.5-36.2c0.1,0,0.2,0,0.4,0l0.5,36.2C141,105.5,140.9,105.5,140.7,105.5"/>
					<path fill="#D7D7D7" d="M141.1,105.5l-0.5-36.2c0.1,0,0.2,0,0.4,0l0.5,36.2C141.3,105.5,141.2,105.5,141.1,105.5"/>
					<path fill="#D2D2D2" d="M141.5,105.5L141,69.2c0.1,0,0.3,0,0.4,0l0.5,36.2C141.7,105.4,141.6,105.4,141.5,105.5"/>
					<path fill="#CDCDCD" d="M141.9,105.4l-0.5-36.2c0.1,0,0.3,0,0.4,0l0.5,36.2C142.2,105.4,142,105.4,141.9,105.4"/>
					<path fill="#C9C9C9" d="M142.3,105.4l-0.5-36.2c0.1,0,0.1,0,0.2,0l0.5,36.2C142.5,105.3,142.4,105.4,142.3,105.4"/>
				</g>
			</g>
			<g enable-background="new    ">
				<defs>
					<path id="SVGID_11_" enable-background="new    " d="M151.6,61.9c0.3,0.5,0.5,1,0.5,1.5l0.5,36.2c0-0.5-0.2-1-0.5-1.5
						c-0.5-0.8-1.4-1.4-2.5-2c-0.2-12.1-0.3-24.1-0.5-36.2C150.2,60.4,151.1,61.1,151.6,61.9z"/>
				</defs>
				<clipPath id="SVGID_12_">
					<use xlink:href="#SVGID_11_"  overflow="visible"/>
				</clipPath>
				<g clip-path="url(#SVGID_12_)" enable-background="new    ">
					<path fill="#00984A" d="M149.3,95.9l-0.5-36.2c0.1,0.1,0.3,0.1,0.4,0.2l0.5,36.2C149.6,96,149.4,96,149.3,95.9"/>
					<path fill="#009649" d="M149.7,96.1l-0.5-36.2c0.1,0.1,0.2,0.1,0.4,0.2l0.5,36.2C149.9,96.3,149.8,96.2,149.7,96.1"/>
					<path fill="#009348" d="M150.1,96.3l-0.5-36.2c0.1,0.1,0.2,0.1,0.3,0.2l0.5,36.2C150.3,96.5,150.2,96.4,150.1,96.3"/>
					<path fill="#009147" d="M150.4,96.5l-0.5-36.2c0.1,0.1,0.2,0.1,0.3,0.2l0.5,36.2C150.6,96.7,150.5,96.6,150.4,96.5"/>
					<path fill="#008E46" d="M150.7,96.7l-0.5-36.2c0.1,0.1,0.2,0.1,0.3,0.2l0.5,36.2C150.9,96.9,150.8,96.8,150.7,96.7"/>
					<path fill="#008C44" d="M151,96.9l-0.5-36.2c0.1,0.1,0.2,0.1,0.2,0.2l0.5,36.2C151.1,97.1,151.1,97,151,96.9"/>
					<path fill="#008A43" d="M151.2,97.2l-0.5-36.2c0.1,0.1,0.2,0.1,0.2,0.2l0.5,36.2C151.4,97.3,151.3,97.2,151.2,97.2"/>
					<path fill="#008742" d="M151.4,97.4L151,61.1c0.1,0.1,0.1,0.1,0.2,0.2l0.5,36.2C151.6,97.5,151.5,97.4,151.4,97.4"/>
					<path fill="#008541" d="M151.7,97.6l-0.5-36.2c0.1,0.1,0.1,0.1,0.2,0.2l0.5,36.2C151.8,97.7,151.7,97.7,151.7,97.6"/>
					<path fill="#00823F" d="M151.8,97.8l-0.5-36.2c0.1,0.1,0.1,0.1,0.2,0.2L152,98C152,98,151.9,97.9,151.8,97.8"/>
					<path fill="#007F3E" d="M152,98l-0.5-36.2c0,0,0,0,0,0.1c0,0.1,0.1,0.1,0.1,0.2l0.5,36.2C152.1,98.2,152.1,98.1,152,98
						C152,98.1,152,98,152,98"/>
					<path fill="#007D3C" d="M152.2,98.3L151.7,62c0,0.1,0.1,0.2,0.1,0.2l0.5,36.2C152.2,98.4,152.2,98.3,152.2,98.3"/>
					<path fill="#007A3B" d="M152.3,98.5l-0.5-36.2c0,0.1,0.1,0.2,0.1,0.3l0.5,36.2C152.4,98.7,152.3,98.6,152.3,98.5"/>
					<path fill="#007839" d="M152.4,98.8l-0.5-36.2c0,0.1,0.1,0.2,0.1,0.3l0.5,36.2C152.4,98.9,152.4,98.8,152.4,98.8"/>
					<path fill="#007538" d="M152.5,99L152,62.8c0,0.1,0,0.2,0.1,0.3l0.5,36.2C152.5,99.2,152.5,99.1,152.5,99"/>
					<path fill="#007236" d="M152.5,99.3l-0.5-36.2c0,0.1,0,0.2,0,0.3l0.5,36.2C152.6,99.5,152.5,99.4,152.5,99.3"/>
					<polyline fill="#007035" points="152.6,99.6 152.1,63.4 152.1,63.4 152.6,99.6 152.6,99.6 					"/>
				</g>
			</g>
			<g enable-background="new    ">
				<defs>
					<path id="SVGID_13_" enable-background="new    " d="M124.7,63.7c0-2.6,3.9-4.9,10-5.7l0.5,36.2c-6.1,0.8-10.1,3.2-10,5.7
						C125.1,89.1,124.9,74.6,124.7,63.7z"/>
				</defs>
				<clipPath id="SVGID_14_">
					<use xlink:href="#SVGID_13_"  overflow="visible"/>
				</clipPath>
				<g clip-path="url(#SVGID_14_)" enable-background="new    ">
					<path fill="#006830" d="M125.2,100l-0.5-36.2c0-1.2,0.9-2.4,2.4-3.4l0.5,36.2C126.1,97.6,125.2,98.8,125.2,100"/>
					<path fill="#006A31" d="M127.6,96.6l-0.5-36.2c0.2-0.1,0.5-0.3,0.7-0.4l0.5,36.2C128.1,96.3,127.9,96.5,127.6,96.6"/>
					<path fill="#006D33" d="M128.3,96.2L127.9,60c0.2-0.1,0.4-0.2,0.6-0.3l0.5,36.2C128.8,96,128.5,96.1,128.3,96.2"/>
					<path fill="#007035" d="M129,95.9l-0.5-36.2c0.2-0.1,0.4-0.2,0.6-0.2l0.5,36.2C129.3,95.7,129.1,95.8,129,95.9"/>
					<path fill="#007236" d="M129.5,95.6l-0.5-36.2c0.2-0.1,0.3-0.1,0.5-0.2l0.5,36.2C129.9,95.5,129.7,95.6,129.5,95.6"/>
					<path fill="#007538" d="M130.1,95.4l-0.5-36.2c0.2-0.1,0.3-0.1,0.5-0.2l0.5,36.2C130.4,95.3,130.2,95.4,130.1,95.4"/>
					<path fill="#007839" d="M130.6,95.3L130.1,59c0.2-0.1,0.3-0.1,0.5-0.2l0.5,36.2C130.9,95.2,130.7,95.2,130.6,95.3"/>
					<path fill="#007A3B" d="M131.1,95.1l-0.5-36.2c0.2,0,0.3-0.1,0.5-0.1l0.5,36.2C131.4,95,131.2,95.1,131.1,95.1"/>
					<path fill="#007D3C" d="M131.6,95l-0.5-36.2c0.2,0,0.3-0.1,0.5-0.1l0.5,36.2C131.9,94.9,131.7,94.9,131.6,95"/>
					<path fill="#007F3E" d="M132.1,94.8l-0.5-36.2c0.2,0,0.3-0.1,0.5-0.1l0.5,36.2C132.4,94.7,132.2,94.8,132.1,94.8"/>
					<path fill="#00823F" d="M132.6,94.7l-0.5-36.2c0.2,0,0.3-0.1,0.5-0.1l0.5,36.2C132.9,94.6,132.7,94.7,132.6,94.7"/>
					<path fill="#008541" d="M133,94.6l-0.5-36.2c0.2,0,0.3-0.1,0.5-0.1l0.5,36.2C133.4,94.5,133.2,94.6,133,94.6"/>
					<path fill="#008742" d="M133.5,94.5l-0.5-36.2c0.2,0,0.3-0.1,0.5-0.1l0.5,36.2C133.9,94.4,133.7,94.5,133.5,94.5"/>
					<path fill="#008A43" d="M134,94.4l-0.5-36.2c0.2,0,0.3-0.1,0.5-0.1l0.5,36.2C134.4,94.4,134.2,94.4,134,94.4"/>
					<path fill="#008C44" d="M134.5,94.3L134,58.1c0.2,0,0.3,0,0.5-0.1l0.5,36.2C134.8,94.3,134.7,94.3,134.5,94.3"/>
					<path fill="#008E46" d="M135,94.3L134.5,58c0.1,0,0.2,0,0.2,0l0.5,36.2C135.1,94.2,135.1,94.3,135,94.3"/>
				</g>
			</g>
			<g enable-background="new    ">
				<defs>
					<path id="SVGID_15_" enable-background="new    " d="M124.2,100l-0.5-36.2c0-2.7,4.2-5.3,10.8-6.2l0.5,36.2
						C128.4,94.7,124.2,97.2,124.2,100z"/>
				</defs>
				<clipPath id="SVGID_16_">
					<use xlink:href="#SVGID_15_"  overflow="visible"/>
				</clipPath>
				<g clip-path="url(#SVGID_16_)" enable-background="new    ">
					<path fill="#848484" d="M124.2,100l-0.5-36.2c0-1.3,0.9-2.6,2.6-3.6l0.5,36.2C125.1,97.4,124.2,98.7,124.2,100"/>
					<path fill="#898989" d="M126.8,96.4l-0.5-36.2c0.2-0.1,0.5-0.3,0.8-0.4l0.5,36.2C127.3,96.1,127.1,96.2,126.8,96.4"/>
					<path fill="#8D8D8D" d="M127.6,95.9l-0.5-36.2c0.2-0.1,0.4-0.2,0.7-0.3l0.5,36.2C128,95.7,127.8,95.8,127.6,95.9"/>
					<path fill="#929292" d="M128.2,95.6l-0.5-36.2c0.2-0.1,0.4-0.2,0.6-0.3l0.5,36.2C128.6,95.4,128.4,95.5,128.2,95.6"/>
					<path fill="#969696" d="M128.9,95.3l-0.5-36.2c0.2-0.1,0.4-0.1,0.6-0.2l0.5,36.2C129.2,95.2,129,95.3,128.9,95.3"/>
					<path fill="#9B9B9B" d="M129.4,95.1l-0.5-36.2c0.2-0.1,0.4-0.1,0.6-0.2l0.5,36.2C129.8,95,129.6,95.1,129.4,95.1"/>
					<path fill="#A0A0A0" d="M130,94.9l-0.5-36.2c0.2-0.1,0.4-0.1,0.5-0.2l0.5,36.2C130.3,94.8,130.1,94.9,130,94.9"/>
					<path fill="#A4A4A4" d="M130.5,94.8L130,58.5c0.2-0.1,0.4-0.1,0.5-0.2l0.5,36.2C130.9,94.7,130.7,94.7,130.5,94.8"/>
					<path fill="#A9A9A9" d="M131,94.6l-0.5-36.2c0.2,0,0.4-0.1,0.5-0.1l0.5,36.2C131.4,94.5,131.2,94.6,131,94.6"/>
					<path fill="#ADADAD" d="M131.6,94.5l-0.5-36.2c0.2,0,0.3-0.1,0.5-0.1l0.5,36.2C131.9,94.4,131.7,94.4,131.6,94.5"/>
					<path fill="#B2B2B2" d="M132.1,94.3l-0.5-36.2c0.2,0,0.4-0.1,0.5-0.1l0.5,36.2C132.4,94.3,132.3,94.3,132.1,94.3"/>
					<path fill="#B6B6B6" d="M132.6,94.2L132.2,58c0.2,0,0.3-0.1,0.5-0.1l0.5,36.2C133,94.1,132.8,94.2,132.6,94.2"/>
					<path fill="#BBBBBB" d="M133.1,94.1l-0.5-36.2c0.2,0,0.4-0.1,0.5-0.1l0.5,36.2C133.5,94,133.3,94.1,133.1,94.1"/>
					<path fill="#C0C0C0" d="M133.7,94l-0.5-36.2c0.2,0,0.3-0.1,0.5-0.1l0.5,36.2C134,94,133.8,94,133.7,94"/>
					<path fill="#C4C4C4" d="M134.2,93.9l-0.5-36.2c0.2,0,0.3-0.1,0.5-0.1l0.5,36.2C134.5,93.9,134.4,93.9,134.2,93.9"/>
					<path fill="#C9C9C9" d="M134.7,93.9l-0.5-36.2c0.1,0,0.2,0,0.2,0l0.5,36.2C134.9,93.8,134.8,93.8,134.7,93.9"/>
				</g>
			</g>
			<g enable-background="new    ">
				<defs>
					<path id="SVGID_17_" enable-background="new    " d="M134.8,58c5.4-0.7,11.1,0.1,14.4,1.8c0.2,12.1,0.3,24.1,0.5,36.2
						c-3.3-1.7-8.9-2.5-14.4-1.8C135.1,83.4,134.9,68.9,134.8,58z"/>
				</defs>
				<clipPath id="SVGID_18_">
					<use xlink:href="#SVGID_17_"  overflow="visible"/>
				</clipPath>
				<g clip-path="url(#SVGID_18_)" enable-background="new    ">
					<path fill="#008E46" d="M135.2,94.2L134.8,58c0.1,0,0.1,0,0.2,0l0.5,36.2C135.4,94.2,135.3,94.2,135.2,94.2"/>
					<path fill="#009147" d="M135.5,94.2L135,58c0.1,0,0.3,0,0.4,0l0.5,36.2C135.7,94.2,135.6,94.2,135.5,94.2"/>
					<path fill="#009348" d="M135.9,94.2l-0.5-36.2c0.1,0,0.3,0,0.4,0l0.5,36.2C136.2,94.1,136,94.1,135.9,94.2"/>
					<path fill="#009649" d="M136.3,94.1l-0.5-36.2c0.1,0,0.2,0,0.4,0l0.5,36.2C136.5,94.1,136.4,94.1,136.3,94.1"/>
					<path fill="#00984A" d="M136.7,94.1l-0.5-36.2c0.1,0,0.2,0,0.4,0l0.5,36.2C136.9,94.1,136.8,94.1,136.7,94.1"/>
					<path fill="#009B4B" d="M137,94.1l-0.5-36.2c0.1,0,0.2,0,0.4,0l0.5,36.2C137.3,94,137.1,94,137,94.1"/>
					<path fill="#009D4D" d="M137.4,94l-0.5-36.2c0.1,0,0.2,0,0.3,0l0.5,36.2C137.6,94,137.5,94,137.4,94"/>
					<path fill="#009F4E" d="M137.7,94l-0.5-36.2c0.1,0,0.2,0,0.3,0L138,94C137.9,94,137.8,94,137.7,94"/>
					<path fill="#00A24F" d="M138,94l-0.5-36.2c0.1,0,0.2,0,0.3,0l0.5,36.2C138.2,94,138.1,94,138,94"/>
					<path fill="#00A651" d="M138.3,94l-0.5-36.2c0.1,0,0.2,0,0.3,0l0.5,36.2C138.4,94,138.4,94,138.3,94"/>
					<path fill="#00AD5E" d="M138.5,94l-0.5-36.2c0.1,0,0.2,0,0.3,0l0.5,36.2C138.7,94,138.6,94,138.5,94"/>
					<path fill="#00B066" d="M138.8,94l-0.5-36.2c0.1,0,0.2,0,0.3,0l0.5,36.2C139,94,138.9,94,138.8,94"/>
					<path fill="#00B36C" d="M139.1,94l-0.5-36.2c0.1,0,0.2,0,0.3,0l0.5,36.2C139.3,94,139.2,94,139.1,94"/>
					<path fill="#24B571" d="M139.4,94l-0.5-36.2c0.1,0,0.2,0,0.3,0l0.5,36.2C139.6,94,139.5,94,139.4,94"/>
					<path fill="#36B776" d="M139.6,94l-0.5-36.2c0.1,0,0.2,0,0.3,0L140,94C139.9,94,139.8,94,139.6,94"/>
					<path fill="#42B97B" d="M140,94l-0.5-36.2c0.1,0,0.2,0,0.3,0l0.5,36.2C140.2,94,140.1,94,140,94"/>
					<path fill="#4CBB7F" d="M140.3,94l-0.5-36.2c0.1,0,0.2,0,0.3,0l0.5,36.2C140.5,94,140.4,94,140.3,94"/>
					<path fill="#54BD82" d="M140.6,94l-0.5-36.2c0.2,0,0.4,0,0.5,0l0.5,36.2C141,94,140.8,94,140.6,94"/>
					<path fill="#5ABE86" d="M141.1,94l-0.5-36.2c0.7,0,1.4,0.1,2.1,0.2l0.5,36.2C142.5,94.1,141.9,94.1,141.1,94"/>
					<path fill="#54BD82" d="M143.2,94.2L142.8,58c0.2,0,0.4,0.1,0.6,0.1l0.5,36.2C143.6,94.3,143.4,94.3,143.2,94.2"/>
					<path fill="#4CBB7F" d="M143.8,94.3l-0.5-36.2c0.1,0,0.3,0,0.4,0.1l0.5,36.2C144,94.4,143.9,94.3,143.8,94.3"/>
					<path fill="#42B97B" d="M144.2,94.4l-0.5-36.2c0.1,0,0.3,0,0.4,0.1l0.5,36.2C144.4,94.4,144.3,94.4,144.2,94.4"/>
					<path fill="#36B776" d="M144.6,94.4l-0.5-36.2c0.1,0,0.3,0,0.4,0.1l0.5,36.2C144.8,94.5,144.7,94.5,144.6,94.4"/>
					<path fill="#24B571" d="M145,94.5l-0.5-36.2c0.1,0,0.3,0.1,0.4,0.1l0.5,36.2C145.2,94.6,145.1,94.6,145,94.5"/>
					<path fill="#00B36C" d="M145.3,94.6l-0.5-36.2c0.1,0,0.3,0.1,0.4,0.1l0.5,36.2C145.6,94.7,145.5,94.6,145.3,94.6"/>
					<path fill="#00B066" d="M145.7,94.7l-0.5-36.2c0.2,0,0.3,0.1,0.4,0.1l0.5,36.2C146,94.8,145.9,94.7,145.7,94.7"/>
					<path fill="#00AD5E" d="M146.2,94.8l-0.5-36.2c0.2,0,0.3,0.1,0.5,0.1l0.5,36.2C146.5,94.9,146.3,94.8,146.2,94.8"/>
					<path fill="#00A651" d="M146.7,94.9l-0.5-36.2c0.2,0.1,0.4,0.1,0.5,0.2l0.5,36.2C147,95,146.8,95,146.7,94.9"/>
					<path fill="#00A24F" d="M147.2,95.1l-0.5-36.2c0.2,0.1,0.4,0.1,0.6,0.2l0.5,36.2C147.6,95.2,147.4,95.1,147.2,95.1"/>
					<path fill="#009F4E" d="M147.7,95.3l-0.5-36.2c0.2,0.1,0.4,0.1,0.6,0.2l0.5,36.2C148.1,95.4,147.9,95.3,147.7,95.3"/>
					<path fill="#009D4D" d="M148.3,95.5l-0.5-36.2c0.2,0.1,0.4,0.1,0.5,0.2l0.5,36.2C148.6,95.6,148.5,95.5,148.3,95.5"/>
					<path fill="#009B4B" d="M148.8,95.7l-0.5-36.2c0.2,0.1,0.3,0.1,0.5,0.2l0.5,36.2C149.1,95.8,149,95.8,148.8,95.7"/>
					<path fill="#00984A" d="M149.3,95.9l-0.5-36.2c0.1,0.1,0.3,0.1,0.4,0.2l0.5,36.2C149.6,96,149.4,96,149.3,95.9"/>
				</g>
			</g>
			<g>
				<path fill="#006830" d="M135.2,94.2c7.3-0.9,14.8,0.8,16.8,3.9c2,3.1-2.3,6.3-9.5,7.2c-7.3,0.9-14.8-0.8-16.8-3.9
					C123.7,98.4,128,95.2,135.2,94.2z"/>
			</g>
			<g enable-background="new    ">
				<defs>
					<path id="SVGID_19_" enable-background="new    " d="M153.1,63.4l0.5,36.2c0-0.5-0.2-1.1-0.5-1.6c-2.2-3.3-10.3-5.1-18.1-4.1
						l-0.5-36.2c7.8-1,15.9,0.9,18.1,4.1C152.9,62.3,153.1,62.8,153.1,63.4z"/>
				</defs>
				<clipPath id="SVGID_20_">
					<use xlink:href="#SVGID_19_"  overflow="visible"/>
				</clipPath>
				<g clip-path="url(#SVGID_20_)" enable-background="new    ">
					<path fill="#C9C9C9" d="M135,93.8l-0.5-36.2c0.1,0,0.2,0,0.2,0l0.5,36.2C135.1,93.8,135,93.8,135,93.8"/>
					<path fill="#CDCDCD" d="M135.2,93.8l-0.5-36.2c0.2,0,0.3,0,0.5-0.1l0.5,36.2C135.5,93.8,135.4,93.8,135.2,93.8"/>
					<path fill="#D2D2D2" d="M135.7,93.7l-0.5-36.2c0.2,0,0.3,0,0.5,0l0.5,36.2C136,93.7,135.8,93.7,135.7,93.7"/>
					<path fill="#D7D7D7" d="M136.1,93.7l-0.5-36.2c0.1,0,0.3,0,0.4,0l0.5,36.2C136.4,93.7,136.2,93.7,136.1,93.7"/>
					<path fill="#DBDBDB" d="M136.5,93.7L136,57.4c0.1,0,0.3,0,0.4,0l0.5,36.2C136.7,93.6,136.6,93.7,136.5,93.7"/>
					<path fill="#E0E0E0" d="M136.9,93.6l-0.5-36.2c0.1,0,0.3,0,0.4,0l0.5,36.2C137.1,93.6,137,93.6,136.9,93.6"/>
					<path fill="#E4E4E4" d="M137.3,93.6l-0.5-36.2c0.1,0,0.2,0,0.3,0l0.5,36.2C137.5,93.6,137.4,93.6,137.3,93.6"/>
					<path fill="#E9E9E9" d="M137.6,93.6l-0.5-36.2c0.1,0,0.2,0,0.3,0l0.5,36.2C137.8,93.6,137.7,93.6,137.6,93.6"/>
					<path fill="#EDEDED" d="M137.9,93.6l-0.5-36.2c0.1,0,0.2,0,0.3,0l0.5,36.2C138.1,93.6,138,93.6,137.9,93.6"/>
					<path fill="#F2F2F2" d="M138.2,93.6l-0.5-36.2c0.1,0,0.2,0,0.3,0l0.5,36.2C138.4,93.6,138.3,93.6,138.2,93.6"/>
					<path fill="#F3F3F3" d="M138.5,93.6L138,57.3c0.1,0,0.2,0,0.3,0l0.5,36.2C138.7,93.6,138.6,93.6,138.5,93.6"/>
					<path fill="#F3F3F3" d="M138.8,93.6l-0.5-36.2c0.1,0,0.2,0,0.3,0l0.5,36.2C139,93.6,138.9,93.6,138.8,93.6"/>
					<path fill="#F4F4F4" d="M139.1,93.6l-0.5-36.2c0.1,0,0.2,0,0.3,0l0.5,36.2C139.3,93.6,139.2,93.6,139.1,93.6"/>
					<path fill="#F4F4F4" d="M139.4,93.6l-0.5-36.2c0.1,0,0.2,0,0.3,0l0.5,36.2C139.6,93.6,139.5,93.6,139.4,93.6"/>
					<path fill="#F4F4F4" d="M139.7,93.6l-0.5-36.2c0.1,0,0.2,0,0.3,0l0.5,36.2C139.9,93.6,139.8,93.6,139.7,93.6"/>
					<path fill="#F4F4F4" d="M140,93.6l-0.5-36.2c0.1,0,0.2,0,0.3,0l0.5,36.2C140.3,93.6,140.2,93.6,140,93.6"/>
					<path fill="#F4F4F4" d="M140.4,93.6l-0.5-36.2c0.1,0,0.2,0,0.3,0l0.5,36.2C140.6,93.6,140.5,93.6,140.4,93.6"/>
					<path fill="#F5F5F5" d="M140.7,93.6l-0.5-36.2c0.2,0,0.4,0,0.6,0l0.5,36.2C141.1,93.6,140.9,93.6,140.7,93.6"/>
					<path fill="#F5F5F5" d="M141.3,93.6l-0.5-36.2c0.8,0,1.5,0.1,2.2,0.2l0.5,36.2C142.8,93.7,142.1,93.7,141.3,93.6"/>
					<path fill="#F5F5F5" d="M143.5,93.8l-0.5-36.2c0.2,0,0.4,0.1,0.6,0.1l0.5,36.2C143.9,93.9,143.7,93.9,143.5,93.8"/>
					<path fill="#F4F4F4" d="M144.1,93.9l-0.5-36.2c0.1,0,0.3,0,0.4,0.1l0.5,36.2C144.4,94,144.3,93.9,144.1,93.9"/>
					<path fill="#F4F4F4" d="M144.6,94l-0.5-36.2c0.1,0,0.3,0,0.4,0.1l0.5,36.2C144.8,94,144.7,94,144.6,94"/>
					<path fill="#F4F4F4" d="M145,94.1l-0.5-36.2c0.1,0,0.3,0.1,0.4,0.1l0.5,36.2C145.3,94.1,145.1,94.1,145,94.1"/>
					<path fill="#F4F4F4" d="M145.4,94.1l-0.5-36.2c0.1,0,0.3,0.1,0.4,0.1l0.5,36.2C145.7,94.2,145.5,94.2,145.4,94.1"/>
					<path fill="#F4F4F4" d="M145.8,94.2L145.3,58c0.1,0,0.3,0.1,0.4,0.1l0.5,36.2C146.1,94.3,146,94.3,145.8,94.2"/>
					<path fill="#F3F3F3" d="M146.2,94.3l-0.5-36.2c0.2,0,0.3,0.1,0.5,0.1l0.5,36.2C146.6,94.4,146.4,94.4,146.2,94.3"/>
					<path fill="#F3F3F3" d="M146.7,94.4l-0.5-36.2c0.2,0,0.3,0.1,0.5,0.1l0.5,36.2C147.1,94.5,146.9,94.5,146.7,94.4"/>
					<path fill="#F2F2F2" d="M147.2,94.6l-0.5-36.2c0.2,0.1,0.4,0.1,0.6,0.2l0.5,36.2C147.6,94.7,147.4,94.6,147.2,94.6"/>
					<path fill="#EDEDED" d="M147.8,94.7l-0.5-36.2c0.2,0.1,0.4,0.1,0.6,0.2l0.5,36.2C148.2,94.9,148,94.8,147.8,94.7"/>
					<path fill="#E9E9E9" d="M148.4,94.9l-0.5-36.2c0.2,0.1,0.4,0.1,0.6,0.2l0.5,36.2C148.8,95.1,148.6,95,148.4,94.9"/>
					<path fill="#E4E4E4" d="M149,95.2l-0.5-36.2c0.2,0.1,0.4,0.2,0.6,0.2l0.5,36.2C149.4,95.3,149.2,95.2,149,95.2"/>
					<path fill="#E0E0E0" d="M149.5,95.4l-0.5-36.2c0.2,0.1,0.3,0.2,0.5,0.2l0.5,36.2C149.9,95.5,149.7,95.5,149.5,95.4"/>
					<path fill="#DBDBDB" d="M150,95.6l-0.5-36.2c0.2,0.1,0.3,0.2,0.5,0.2l0.5,36.2C150.3,95.8,150.2,95.7,150,95.6"/>
					<path fill="#D7D7D7" d="M150.5,95.9L150,59.6c0.1,0.1,0.3,0.1,0.4,0.2l0.5,36.2C150.8,96,150.6,95.9,150.5,95.9"/>
					<path fill="#D2D2D2" d="M150.9,96.1l-0.5-36.2c0.1,0.1,0.2,0.1,0.4,0.2l0.5,36.2C151.1,96.2,151,96.1,150.9,96.1"/>
					<path fill="#CDCDCD" d="M151.2,96.3l-0.5-36.2c0.1,0.1,0.2,0.1,0.3,0.2l0.5,36.2C151.5,96.4,151.4,96.4,151.2,96.3"/>
					<path fill="#C9C9C9" d="M151.6,96.5l-0.5-36.2c0.1,0.1,0.2,0.1,0.3,0.2l0.5,36.2C151.8,96.7,151.7,96.6,151.6,96.5"/>
					<path fill="#C4C4C4" d="M151.9,96.7l-0.5-36.2c0.1,0.1,0.2,0.1,0.3,0.2l0.5,36.2C152,96.9,151.9,96.8,151.9,96.7"/>
					<path fill="#C0C0C0" d="M152.1,97l-0.5-36.2c0.1,0.1,0.2,0.1,0.2,0.2l0.5,36.2C152.3,97.1,152.2,97,152.1,97"/>
					<path fill="#BBBBBB" d="M152.4,97.2L151.9,61c0.1,0.1,0.2,0.2,0.2,0.2l0.5,36.2C152.5,97.3,152.4,97.3,152.4,97.2"/>
					<path fill="#B6B6B6" d="M152.6,97.4l-0.5-36.2c0.1,0.1,0.1,0.2,0.2,0.2l0.5,36.2C152.7,97.6,152.7,97.5,152.6,97.4"/>
					<path fill="#B2B2B2" d="M152.8,97.7l-0.5-36.2c0.1,0.1,0.1,0.2,0.2,0.2l0.5,36.2C152.9,97.8,152.9,97.7,152.8,97.7"/>
					<path fill="#ADADAD" d="M153,97.9l-0.5-36.2c0,0,0,0,0,0.1c0,0.1,0.1,0.1,0.1,0.2l0.5,36.2C153.1,98.1,153.1,98,153,97.9
						C153,97.9,153,97.9,153,97.9"/>
					<path fill="#A9A9A9" d="M153.1,98.2l-0.5-36.2c0,0.1,0.1,0.2,0.1,0.3l0.5,36.2C153.2,98.3,153.2,98.2,153.1,98.2"/>
					<path fill="#A4A4A4" d="M153.3,98.4l-0.5-36.2c0,0.1,0.1,0.2,0.1,0.3l0.5,36.2C153.3,98.6,153.3,98.5,153.3,98.4"/>
					<path fill="#A0A0A0" d="M153.4,98.7l-0.5-36.2c0,0.1,0.1,0.2,0.1,0.3l0.5,36.2C153.4,98.9,153.4,98.8,153.4,98.7"/>
					<path fill="#9B9B9B" d="M153.5,99L153,62.7c0,0.1,0,0.2,0.1,0.3l0.5,36.2C153.5,99.2,153.5,99.1,153.5,99"/>
					<path fill="#969696" d="M153.5,99.3L153.1,63c0,0.1,0,0.2,0,0.3l0.5,36.2C153.5,99.5,153.5,99.4,153.5,99.3"/>
					<polyline fill="#929292" points="153.6,99.6 153.1,63.4 153.1,63.4 153.6,99.6 153.6,99.6 					"/>
				</g>
			</g>
			<g>
				<path fill="#858585" d="M135,93.8c7.8-1,15.9,0.9,18.1,4.1c2.2,3.3-2.4,6.8-10.2,7.8s-15.9-0.9-18.1-4.1
					C122.6,98.3,127.2,94.8,135,93.8z M142.5,105.3c7.3-0.9,11.5-4.2,9.5-7.2c-2-3.1-9.6-4.8-16.8-3.9c-7.3,0.9-11.5,4.2-9.5,7.2
					C127.7,104.5,135.3,106.3,142.5,105.3"/>
			</g>
		</g>
	</g>
</g>
<line fill="none" stroke="#00A651" stroke-miterlimit="10" x1="129.2" y1="100.5" x2="140.1" y2="161.9"/>
<line fill="none" stroke="#00A651" stroke-miterlimit="10" x1="147.3" y1="100.5" x2="136.4" y2="161.9"/>
<rect x="131" y="63.5" fill="#FFFFFF" stroke="#FFFFFF" stroke-miterlimit="10" width="17" height="28.3"/>
<text transform="matrix(-1.769759e-03 -1 1 -1.769759e-03 143.5297 89.8498)" font-family="'ArialMT'" font-size="12">PMT</text>
<g>
	<text transform="matrix(1 0 0 1 35.5 80.75)"><tspan x="0" y="0" font-family="'ArialMT'" font-size="12">LDV</tspan><tspan x="0" y="14.4" font-family="'ArialMT'" font-size="12">Correlator</tspan></text>
	<rect x="34.5" y="69.2" fill="none" stroke="#000000" stroke-width="0.5" stroke-miterlimit="10" width="56.7" height="28.3"/>
</g>
<line fill="none" stroke="#00A651" stroke-miterlimit="10" x1="7" y1="43.1" x2="49.5" y2="43.1"/>
<text transform="matrix(1 0 0 1 11.5 55)" font-family="'ArialMT'" font-size="12">Laser</text>
<rect x="49" y="29.9" fill="none" stroke="#000000" stroke-width="0.5" stroke-miterlimit="10" width="42.5" height="28.3"/>
<text transform="matrix(1 0 0 1 54.5 42.25)"><tspan x="0" y="0" font-family="'ArialMT'" font-size="12">Bragg</tspan><tspan x="0" y="14.4" font-family="'ArialMT'" font-size="12">cell</tspan></text>
<text transform="matrix(1 0 0 1 126.75 133)" font-family="'ArialMT'" font-size="12">f</text>
<text transform="matrix(1 0 0 1 143.75 133.5)" font-family="'ArialMT'" font-size="12">f+f</text>
<ellipse fill="none" stroke="#000000" stroke-miterlimit="10" cx="138.3" cy="152" rx="2.3" ry="2.4"/>
<g>
	<ellipse fill="none" stroke="#000000" stroke-width="0.5" stroke-miterlimit="10" cx="206.7" cy="109.2" rx="28.3" ry="30.3"/>
	<line fill="none" stroke="#000000" stroke-miterlimit="10" x1="181.6" y1="92.1" x2="181.6" y2="92.1"/>
	<line fill="none" stroke="#00A651" stroke-width="4" stroke-miterlimit="10" x1="184.1" y1="93.8" x2="184.1" y2="124.1"/>
	<line fill="none" stroke="#000000" stroke-miterlimit="10" x1="218.6" y1="82.3" x2="218.6" y2="82.3"/>
	<line fill="none" stroke="#00A651" stroke-width="4" stroke-miterlimit="10" x1="206.4" y1="79" x2="206.4" y2="139.5"/>
	<line fill="none" stroke="#00A651" stroke-width="4" stroke-miterlimit="10" x1="196.6" y1="84.1" x2="196.6" y2="134.6"/>
	<line fill="none" stroke="#00A651" stroke-width="4" stroke-miterlimit="10" x1="216.1" y1="84.1" x2="216.1" y2="134.6"/>
	<text transform="matrix(1.3516 0 0 1 188.2119 103.1856)" font-family="'MyriadPro-Regular'" font-size="14.6932">.</text>
	<line fill="none" x1="189.7" y1="109" x2="200.7" y2="109"/>
	<text transform="matrix(1 0 0 1 188.75 118.25)" font-family="'ArialMT'" font-size="12">r</text>
	<text transform="matrix(1 0 0 1 187.5 115.25)" font-family="'ArialMT'" font-size="12">^</text>
	<text transform="matrix(1 0 0 1 184.75 122.75)" font-family="'ArialMT'" font-size="12"></text>
	<g>
		<path fill="none" stroke="#000000" stroke-width="0.5" stroke-miterlimit="10" d="M190.2,94.4c2.1-1,5.5,0.8,6.9,3.5"/>
		<path fill="none" stroke="#000000" stroke-width="0.5" stroke-miterlimit="10" d="M190.3,96c2.1-0.5,4.6,1,5.2,3.1"/>
		<path fill="none" stroke="#000000" stroke-width="0.5" stroke-miterlimit="10" d="M190.2,98.1c1.3-0.4,3.1,0.5,3.5,1.9"/>
	</g>
</g>
<g>
	<path fill="none" stroke="#00A651" stroke-width="0.5" stroke-miterlimit="10" d="M134.3,117.4c1.3-1.9,5.2-2.1,7.7-0.4"/>
	<path fill="none" stroke="#00A651" stroke-width="0.5" stroke-miterlimit="10" d="M135.2,118.8c1.5-1.5,4.5-1.4,6,0.1"/>
	<path fill="none" stroke="#00A651" stroke-width="0.5" stroke-miterlimit="10" d="M136.2,120.7c1-1,3-1.1,4-0.2"/>
</g>
<line fill="none" stroke="#00A651" stroke-width="0.5" stroke-miterlimit="10" stroke-dasharray="1" x1="157.1" y1="152" x2="157.1" y2="152"/>
<line fill="none" stroke="#000000" stroke-width="0.5" stroke-miterlimit="10" stroke-dasharray="1" x1="132" y1="154.7" x2="190.3" y2="83.8"/>
<line fill="none" stroke="#000000" stroke-width="0.5" stroke-miterlimit="10" stroke-dasharray="1" x1="133.7" y1="156.3" x2="211.5" y2="139.5"/>
<text transform="matrix(1 0 0 1 45.25 149.5)" font-family="'ArialMT'" font-size="12">C-boat</text>
<line fill="none" stroke="#000000" stroke-width="0.5" stroke-miterlimit="10" stroke-dasharray="1" x1="235" y1="106.6" x2="235" y2="64.1"/>
<line fill="none" stroke="#000000" stroke-width="0.5" stroke-miterlimit="10" stroke-dasharray="1" x1="178.5" y1="106.2" x2="178.5" y2="63.7"/>
<line fill="none" stroke="#000000" stroke-width="0.5" stroke-miterlimit="10" stroke-dasharray="1" x1="235" y1="74.1" x2="235" y2="74.1"/>
<g>
	<g>
		<line fill="none" stroke="#000000" stroke-width="0.5" stroke-miterlimit="10" x1="182.1" y1="74.1" x2="231.4" y2="74.1"/>
		<g>
			<polygon points="182.8,76.6 178.5,74.1 182.8,71.6 			"/>
		</g>
		<g>
			<polygon points="230.7,76.6 235,74.1 230.7,71.6 			"/>
		</g>
	</g>
</g>
<text transform="matrix(1 0 0 1 187.0254 69.9492)" font-family="'ArialMT'" font-size="12">124 m</text>
<text transform="matrix(1 0 0 1 189.0498 157.5527)" font-family="'ArialMT'" font-size="12">Interface</text>
<line fill="none" stroke="#000000" stroke-miterlimit="10" stroke-dasharray="1" x1="176.5" y1="151" x2="186.8" y2="151"/>
<path fill="none" stroke="#000000" stroke-width="0.25" stroke-miterlimit="10" d="M223.2,221.6"/>
<path fill="none" stroke="#000000" stroke-width="0.25" stroke-miterlimit="10" d="M237.3,207.4"/>
<path stroke="#000000" stroke-width="0.25" stroke-miterlimit="10" d="M124.6,62.1c0-7.8,6.3-14.2,14.2-14.2
	c7.8,0,14.2,6.3,14.2,14.2"/>
<path fill="none" stroke="#000000" stroke-miterlimit="10" d="M91.5,84.1c0-19.9,23.7-40.1,47.1-40.1"/>
<line fill="none" stroke="#000000" stroke-width="0.5" stroke-miterlimit="10" x1="91.5" y1="46.2" x2="91.5" y2="45.2"/>
<line fill="none" stroke="#000000" stroke-miterlimit="10" x1="91.2" y1="44.2" x2="137.4" y2="44.2"/>
<line fill="none" stroke="#000000" stroke-width="2" stroke-miterlimit="10" x1="138.4" y1="43.2" x2="138.4" y2="48.9"/>
</svg>
