<?xml version="1.0" encoding="utf-8"?>
<!-- Generator: Adobe Illustrator 18.0.0, SVG Export Plug-In . SVG Version: 6.00 Build 0)  -->
<!DOCTYPE svg PUBLIC "-//W3C//DTD SVG 1.1//EN" "http://www.w3.org/Graphics/SVG/1.1/DTD/svg11.dtd">
<svg version="1.1" id="Layer_1" xmlns="http://www.w3.org/2000/svg" xmlns:xlink="http://www.w3.org/1999/xlink" x="0px" y="0px"
	 viewBox="0 0 240.9 240.9" enable-background="new 0 0 240.9 240.9" xml:space="preserve">
<g>
	<g id="XMLID_3_">
		<g>
			<polygon fill="#FFF200" points="159.6,153.2 159.6,167.4 138.8,171.4 138.8,157.2 			"/>
		</g>
		<g>
			<line fill="none" stroke="#FFF200" stroke-miterlimit="10" x1="138.8" y1="171.4" x2="138.8" y2="157.2"/>
			<line fill="none" stroke="#FFF200" stroke-miterlimit="10" x1="138.8" y1="171.4" x2="159.6" y2="167.4"/>
			<line fill="none" stroke="#FFF200" stroke-miterlimit="10" x1="159.6" y1="167.4" x2="159.6" y2="153.2"/>
			<line fill="none" stroke="#FFF200" stroke-miterlimit="10" x1="138.8" y1="157.2" x2="159.6" y2="153.2"/>
		</g>
	</g>
</g>
<g>
	<g>
		<g enable-background="new    ">
			<g>
				<polygon fill="#0093CB" points="157,102.2 157.3,152.2 47,152.2 46.7,102.2 				"/>
			</g>
			<g>
				<polygon fill="#0083B4" points="46.7,102.2 47,152.2 25.6,156.1 25.2,106.1 				"/>
			</g>
			<g>
				<polygon fill="#0093CB" points="135.6,106.1 135.9,156.1 25.6,156.1 25.2,106.1 				"/>
			</g>
			<g>
				<polygon fill="#0083B4" points="157,102.2 157.3,152.2 135.9,156.1 135.6,106.1 				"/>
			</g>
			<g>
				<path fill="#00729D" d="M45.9,102.2h112.3l-21.8,4l-112.3,0L45.9,102.2z M135.6,106.1l21.4-3.9l-110.3,0l-21.4,3.9H135.6"/>
			</g>
			<g>
				<polygon fill="#00729D" points="157,102.2 135.6,106.1 25.2,106.1 46.7,102.2 				"/>
			</g>
			<g>
				<polygon fill="#0093CB" points="136.3,106.2 136.7,156.2 24.4,156.2 24.1,106.2 				"/>
			</g>
			<g>
				<polygon fill="#0083B4" points="158.2,102.2 158.5,152.2 136.7,156.2 136.3,106.2 				"/>
			</g>
		</g>
	</g>
</g>
<line fill="none" stroke="#000000" stroke-miterlimit="10" x1="24.4" y1="156.2" x2="137.8" y2="156.2"/>
<line fill="none" stroke="#000000" stroke-miterlimit="10" x1="24.4" y1="156.2" x2="24.4" y2="85.3"/>
<line fill="none" stroke="#000000" stroke-miterlimit="10" x1="136.8" y1="156.2" x2="136.8" y2="85.3"/>
<line fill="none" stroke="#000000" stroke-miterlimit="10" x1="158.7" y1="152" x2="158.7" y2="81.2"/>
<line fill="none" stroke="#000000" stroke-miterlimit="10" x1="45.7" y1="103" x2="45.7" y2="81.7"/>
<line fill="none" stroke="#000000" stroke-miterlimit="10" x1="137.8" y1="156.2" x2="158.6" y2="152.1"/>
<line fill="none" stroke="#000000" stroke-miterlimit="10" x1="24.4" y1="85.3" x2="45.3" y2="81.2"/>
<line fill="none" stroke="#000000" stroke-miterlimit="10" x1="45.3" y1="81.2" x2="158.6" y2="81.2"/>
<line fill="none" stroke="#000000" stroke-miterlimit="10" x1="136.8" y1="85.3" x2="157.6" y2="81.2"/>
<rect x="24.5" y="157.4" fill="#FFF200" stroke="#FFF200" stroke-miterlimit="10" width="113.4" height="14.2"/>
<g>
	<g>
		<g enable-background="new    ">
			<g>
				<rect x="2.4" y="61.7" fill="#929292" width="10.3" height="110"/>
			</g>
			<g>
				<rect x="2.4" y="61.7" fill="#666666" width="10.3" height="110"/>
			</g>
			<g>
				<rect x="1.4" y="61.7" fill="#929292" width="12.3" height="110"/>
			</g>
		</g>
	</g>
</g>
<g>
	<g>
		<g>
			<g enable-background="new    ">
				<g>
					<rect x="14.2" y="67.3" width="7.5" height="10"/>
				</g>
				<g>
					<rect x="14.2" y="67.3" fill="#666666" width="7.5" height="10"/>
				</g>
				<g>
					<rect x="13.2" y="67.3" width="9.5" height="10"/>
				</g>
			</g>
		</g>
	</g>
	<g>
		<g>
			<g enable-background="new    ">
				<g enable-background="new    ">
					<defs>
						<path id="SVGID_1_" enable-background="new    " d="M17.9,56.7l0,10c-0.1,0-0.3,0-0.3,0l0-10C17.6,56.7,17.8,56.7,17.9,56.7z"
							/>
					</defs>
					<clipPath id="SVGID_2_">
						<use xlink:href="#SVGID_1_"  overflow="visible"/>
					</clipPath>
					<g clip-path="url(#SVGID_2_)" enable-background="new    ">
						<polyline fill="#FFFFFF" points="17.9,56.7 17.9,66.7 17.9,66.7 17.9,56.7 17.9,56.7 						"/>
						<polyline fill="#FFFFFF" points="17.9,56.7 17.9,66.7 17.9,66.7 17.9,56.7 17.9,56.7 						"/>
						<polyline fill="#FFFFFF" points="17.9,56.7 17.9,66.7 17.9,66.7 17.9,56.7 17.9,56.7 						"/>
						<polyline fill="#FFFFFF" points="17.9,56.7 17.9,66.7 17.9,66.7 17.9,56.7 17.9,56.7 						"/>
						<polyline fill="#FFFFFF" points="17.9,56.7 17.9,66.7 17.9,66.7 17.9,56.7 17.9,56.7 						"/>
						<polyline fill="#FFFFFF" points="17.9,56.7 17.9,66.7 17.9,66.7 17.9,56.7 17.9,56.7 						"/>
						<polyline fill="#FFFFFF" points="17.9,56.7 17.9,66.7 17.9,66.7 17.9,56.7 17.9,56.7 						"/>
						<polyline fill="#FFFFFF" points="17.9,56.7 17.9,66.7 17.9,66.7 17.9,56.7 17.9,56.7 						"/>
						<polyline fill="#FFFFFF" points="17.9,56.7 17.9,66.7 17.9,66.7 17.9,56.7 17.9,56.7 						"/>
						<polyline fill="#FFFFFF" points="17.9,56.7 17.9,66.7 17.9,66.7 17.9,56.7 17.9,56.7 						"/>
						<polyline fill="#FFFFFF" points="17.9,56.7 17.9,66.7 17.9,66.7 17.9,56.7 17.9,56.7 						"/>
						<polyline fill="#FAFAFA" points="17.9,56.7 17.9,66.7 17.9,66.7 17.9,56.7 17.9,56.7 						"/>
						<polyline fill="#F5F5F5" points="17.9,56.7 17.9,66.7 17.9,66.7 17.9,56.7 17.9,56.7 						"/>
						<polyline fill="#F0F0F0" points="17.9,56.7 17.9,66.7 17.9,66.7 17.9,56.7 17.9,56.7 						"/>
						<polyline fill="#EBEBEB" points="17.9,56.7 17.9,66.7 17.9,66.7 17.9,56.7 17.9,56.7 						"/>
						<polyline fill="#E6E6E6" points="17.9,56.7 17.9,66.7 17.9,66.7 17.9,56.7 17.9,56.7 						"/>
						<path fill="#E0E0E0" d="M17.9,56.7v10c0,0,0,0,0,0L17.9,56.7C17.8,56.7,17.9,56.7,17.9,56.7"/>
						<path fill="#DBDBDB" d="M17.8,56.7v10c0,0,0,0,0,0L17.8,56.7C17.8,56.7,17.8,56.7,17.8,56.7"/>
						<path fill="#D6D6D6" d="M17.8,56.7v10c0,0,0,0,0,0L17.8,56.7C17.8,56.7,17.8,56.7,17.8,56.7"/>
						<path fill="#D1D1D1" d="M17.8,56.7v10c0,0,0,0,0,0L17.8,56.7C17.8,56.7,17.8,56.7,17.8,56.7"/>
						<path fill="#CCCCCC" d="M17.8,56.7v10c0,0,0,0,0,0L17.8,56.7C17.8,56.7,17.8,56.7,17.8,56.7"/>
						<path fill="#C7C7C7" d="M17.8,56.7v10c0,0,0,0,0,0L17.8,56.7C17.7,56.7,17.7,56.7,17.8,56.7"/>
						<path fill="#C2C2C2" d="M17.7,56.7v10c0,0,0,0,0,0L17.7,56.7C17.7,56.7,17.7,56.7,17.7,56.7"/>
						<path fill="#BDBDBD" d="M17.7,56.7v10c0,0,0,0,0,0L17.7,56.7C17.7,56.7,17.7,56.7,17.7,56.7"/>
						<path fill="#B8B8B8" d="M17.7,56.7v10c0,0,0,0,0,0L17.7,56.7C17.7,56.7,17.7,56.7,17.7,56.7"/>
						<path fill="#B3B3B3" d="M17.7,56.7v10c0,0,0,0,0,0L17.7,56.7C17.6,56.7,17.7,56.7,17.7,56.7"/>
						<path fill="#ADADAD" d="M17.6,56.7v10c0,0,0,0,0,0L17.6,56.7C17.6,56.7,17.6,56.7,17.6,56.7"/>
						<path fill="#A8A8A8" d="M17.6,56.7v10c0,0,0,0,0,0L17.6,56.7C17.6,56.7,17.6,56.7,17.6,56.7"/>
						<path fill="#A3A3A3" d="M17.6,56.7v10c0,0,0,0,0,0L17.6,56.7C17.6,56.7,17.6,56.7,17.6,56.7"/>
						<polyline fill="#9E9E9E" points="17.6,56.7 17.6,66.7 17.6,66.7 17.6,56.7 17.6,56.7 						"/>
						<polyline fill="#999999" points="17.6,56.7 17.6,66.7 17.6,66.7 17.6,56.7 17.6,56.7 						"/>
						<polyline fill="#949494" points="17.6,56.7 17.6,66.7 17.6,66.7 17.6,56.7 17.6,56.7 						"/>
					</g>
				</g>
				<g enable-background="new    ">
					<defs>
						<path id="SVGID_3_" enable-background="new    " d="M17.9,56.7l0,10c-0.1,0-0.3,0-0.3,0l0-10C17.6,56.7,17.8,56.7,17.9,56.7z"
							/>
					</defs>
					<clipPath id="SVGID_4_">
						<use xlink:href="#SVGID_3_"  overflow="visible"/>
					</clipPath>
					<g clip-path="url(#SVGID_4_)" enable-background="new    ">
						<polyline fill="#666666" points="17.9,56.7 17.9,66.7 17.9,66.7 17.9,56.7 17.9,56.7 						"/>
						<polyline fill="#666666" points="17.9,56.7 17.9,66.7 17.9,66.7 17.9,56.7 17.9,56.7 						"/>
						<polyline fill="#666666" points="17.9,56.7 17.9,66.7 17.9,66.7 17.9,56.7 17.9,56.7 						"/>
						<polyline fill="#666666" points="17.9,56.7 17.9,66.7 17.9,66.7 17.9,56.7 17.9,56.7 						"/>
						<polyline fill="#666666" points="17.9,56.7 17.9,66.7 17.9,66.7 17.9,56.7 17.9,56.7 						"/>
						<polyline fill="#666666" points="17.9,56.7 17.9,66.7 17.9,66.7 17.9,56.7 17.9,56.7 						"/>
						<polyline fill="#666666" points="17.9,56.7 17.9,66.7 17.9,66.7 17.9,56.7 17.9,56.7 						"/>
						<polyline fill="#666666" points="17.9,56.7 17.9,66.7 17.9,66.7 17.9,56.7 17.9,56.7 						"/>
						<polyline fill="#666666" points="17.9,56.7 17.9,66.7 17.9,66.7 17.9,56.7 17.9,56.7 						"/>
						<polyline fill="#666666" points="17.9,56.7 17.9,66.7 17.9,66.7 17.9,56.7 17.9,56.7 						"/>
						<path fill="#666666" d="M17.9,56.7v10c0,0,0,0,0,0L17.9,56.7C17.9,56.7,17.9,56.7,17.9,56.7"/>
						<path fill="#666666" d="M17.8,56.7v10c0,0,0,0,0,0L17.8,56.7C17.8,56.7,17.8,56.7,17.8,56.7"/>
						<path fill="#666666" d="M17.8,56.7v10c-0.1,0-0.2,0-0.2,0v-10C17.6,56.7,17.7,56.7,17.8,56.7"/>
					</g>
				</g>
				<g enable-background="new    ">
					<defs>
						<path id="SVGID_5_" enable-background="new    " d="M19.3,56.7l0,10c0,0-0.6,0-1.4,0c-0.8,0-1.4,0-1.4,0l0-10c0,0,0.6,0,1.4,0
							C18.7,56.7,19.3,56.7,19.3,56.7z"/>
					</defs>
					<clipPath id="SVGID_6_">
						<use xlink:href="#SVGID_5_"  overflow="visible"/>
					</clipPath>
					<g clip-path="url(#SVGID_6_)" enable-background="new    ">
						<polyline fill="#949494" points="19.3,56.7 19.3,66.7 19.3,66.7 19.3,56.7 19.3,56.7 						"/>
						<polyline fill="#999999" points="19.3,56.7 19.3,66.7 19.3,66.7 19.3,56.7 19.3,56.7 						"/>
						<path fill="#9E9E9E" d="M19.3,56.7v10c0,0,0,0,0,0L19.3,56.7C19.3,56.7,19.3,56.7,19.3,56.7"/>
						<path fill="#A3A3A3" d="M19.3,56.7v10c0,0,0,0,0,0L19.3,56.7C19.2,56.7,19.2,56.7,19.3,56.7"/>
						<path fill="#A8A8A8" d="M19.2,56.7v10c0,0,0,0,0,0L19.2,56.7C19.2,56.7,19.2,56.7,19.2,56.7"/>
						<path fill="#ADADAD" d="M19.2,56.7v10c0,0,0,0,0,0L19.2,56.7C19.2,56.7,19.2,56.7,19.2,56.7"/>
						<path fill="#B3B3B3" d="M19.2,56.7v10c0,0,0,0,0,0L19.2,56.7C19.2,56.7,19.2,56.7,19.2,56.7"/>
						<path fill="#B8B8B8" d="M19.1,56.7v10c0,0,0,0,0,0L19.1,56.7C19.1,56.7,19.1,56.7,19.1,56.7"/>
						<path fill="#BDBDBD" d="M19.1,56.7v10c0,0,0,0,0,0L19.1,56.7C19.1,56.7,19.1,56.7,19.1,56.7"/>
						<path fill="#C2C2C2" d="M19.1,56.7v10c0,0,0,0,0,0L19.1,56.7C19,56.7,19.1,56.7,19.1,56.7"/>
						<path fill="#C7C7C7" d="M19,56.7v10c0,0,0,0,0,0L19,56.7C19,56.7,19,56.7,19,56.7"/>
						<path fill="#CCCCCC" d="M19,56.7v10c0,0,0,0,0,0L19,56.7C19,56.7,19,56.7,19,56.7"/>
						<path fill="#D1D1D1" d="M18.9,56.7v10c0,0,0,0,0,0L18.9,56.7C18.9,56.7,18.9,56.7,18.9,56.7"/>
						<path fill="#D6D6D6" d="M18.9,56.7v10c0,0,0,0-0.1,0L18.9,56.7C18.9,56.7,18.9,56.7,18.9,56.7"/>
						<path fill="#DBDBDB" d="M18.8,56.7v10c0,0,0,0-0.1,0L18.8,56.7C18.8,56.7,18.8,56.7,18.8,56.7"/>
						<path fill="#E0E0E0" d="M18.8,56.7v10c0,0,0,0-0.1,0L18.8,56.7C18.7,56.7,18.8,56.7,18.8,56.7"/>
						<path fill="#E6E6E6" d="M18.7,56.7v10c0,0,0,0-0.1,0L18.7,56.7C18.7,56.7,18.7,56.7,18.7,56.7"/>
						<path fill="#EBEBEB" d="M18.7,56.7v10c0,0,0,0-0.1,0L18.7,56.7C18.6,56.7,18.6,56.7,18.7,56.7"/>
						<path fill="#F0F0F0" d="M18.6,56.7v10c0,0,0,0,0,0L18.6,56.7C18.6,56.7,18.6,56.7,18.6,56.7"/>
						<path fill="#F5F5F5" d="M18.6,56.7v10c0,0,0,0,0,0L18.6,56.7C18.5,56.7,18.6,56.7,18.6,56.7"/>
						<path fill="#FAFAFA" d="M18.5,56.7v10c0,0,0,0,0,0L18.5,56.7C18.5,56.7,18.5,56.7,18.5,56.7"/>
						<path fill="#FFFFFF" d="M18.5,56.7v10c0,0,0,0,0,0L18.5,56.7C18.5,56.7,18.5,56.7,18.5,56.7"/>
						<path fill="#FFFFFF" d="M18.5,56.7v10c0,0,0,0,0,0L18.5,56.7C18.4,56.7,18.5,56.7,18.5,56.7"/>
						<path fill="#FFFFFF" d="M18.4,56.7v10c0,0,0,0,0,0L18.4,56.7C18.4,56.7,18.4,56.7,18.4,56.7"/>
						<path fill="#FFFFFF" d="M18.4,56.7v10c0,0,0,0,0,0L18.4,56.7C18.4,56.7,18.4,56.7,18.4,56.7"/>
						<path fill="#FFFFFF" d="M18.4,56.7v10c0,0,0,0,0,0L18.4,56.7C18.4,56.7,18.4,56.7,18.4,56.7"/>
						<path fill="#FFFFFF" d="M18.4,56.7v10c0,0,0,0,0,0L18.4,56.7C18.4,56.7,18.4,56.7,18.4,56.7"/>
						<path fill="#FFFFFF" d="M18.3,56.7v10c0,0,0,0,0,0L18.3,56.7C18.3,56.7,18.3,56.7,18.3,56.7"/>
						<path fill="#FFFFFF" d="M18.3,56.7v10c0,0,0,0,0,0L18.3,56.7C18.3,56.7,18.3,56.7,18.3,56.7"/>
						<path fill="#FFFFFF" d="M18.3,56.7v10c0,0,0,0,0,0L18.3,56.7C18.3,56.7,18.3,56.7,18.3,56.7"/>
						<path fill="#FFFFFF" d="M18.3,56.7v10c0,0,0,0,0,0L18.3,56.7C18.3,56.7,18.3,56.7,18.3,56.7"/>
						<path fill="#FFFFFF" d="M18.3,56.7v10c0,0,0,0-0.1,0L18.3,56.7C18.2,56.7,18.2,56.7,18.3,56.7"/>
						<path fill="#FFFFFF" d="M18.2,56.7v10c0,0-0.1,0-0.1,0L18.2,56.7C18.1,56.7,18.2,56.7,18.2,56.7"/>
						<path fill="#FFFFFF" d="M18.1,56.7v10c0,0,0,0,0,0L18.1,56.7C18.1,56.7,18.1,56.7,18.1,56.7"/>
						<path fill="#FFFFFF" d="M18.1,56.7v10c0,0,0,0,0,0L18.1,56.7C18.1,56.7,18.1,56.7,18.1,56.7"/>
						<path fill="#FFFFFF" d="M18.1,56.7v10c0,0,0,0,0,0L18.1,56.7C18,56.7,18,56.7,18.1,56.7"/>
						<path fill="#FFFFFF" d="M18,56.7v10c0,0,0,0,0,0L18,56.7C18,56.7,18,56.7,18,56.7"/>
						<path fill="#FFFFFF" d="M18,56.7v10c0,0,0,0,0,0L18,56.7C18,56.7,18,56.7,18,56.7"/>
						<path fill="#FFFFFF" d="M18,56.7v10c0,0,0,0,0,0L18,56.7C18,56.7,18,56.7,18,56.7"/>
						<path fill="#FFFFFF" d="M18,56.7v10c0,0,0,0,0,0L18,56.7C18,56.7,18,56.7,18,56.7"/>
						<path fill="#FFFFFF" d="M18,56.7v10c0,0,0,0,0,0L18,56.7C18,56.7,18,56.7,18,56.7"/>
						<path fill="#FFFFFF" d="M17.9,56.7v10c0,0,0,0,0,0L17.9,56.7C17.9,56.7,17.9,56.7,17.9,56.7"/>
						<path fill="#FFFFFF" d="M17.9,56.7v10c0,0,0,0,0,0c0,0,0,0,0,0L17.9,56.7C17.9,56.7,17.9,56.7,17.9,56.7
							C17.9,56.7,17.9,56.7,17.9,56.7"/>
						<path fill="#FFFFFF" d="M17.9,56.7v10c0,0,0,0,0,0L17.9,56.7C17.9,56.7,17.9,56.7,17.9,56.7"/>
						<path fill="#FAFAFA" d="M17.9,56.7v10c0,0,0,0,0,0L17.9,56.7C17.9,56.7,17.9,56.7,17.9,56.7"/>
						<path fill="#F5F5F5" d="M17.9,56.7v10c0,0,0,0,0,0L17.9,56.7C17.9,56.7,17.9,56.7,17.9,56.7"/>
						<path fill="#F0F0F0" d="M17.9,56.7v10c0,0,0,0,0,0L17.9,56.7C17.8,56.7,17.9,56.7,17.9,56.7"/>
						<path fill="#EBEBEB" d="M17.8,56.7v10c0,0,0,0,0,0L17.8,56.7C17.8,56.7,17.8,56.7,17.8,56.7"/>
						<path fill="#E6E6E6" d="M17.8,56.7v10c0,0,0,0,0,0L17.8,56.7C17.8,56.7,17.8,56.7,17.8,56.7"/>
						<path fill="#E0E0E0" d="M17.8,56.7v10c0,0,0,0,0,0L17.8,56.7C17.8,56.7,17.8,56.7,17.8,56.7"/>
						<path fill="#DBDBDB" d="M17.8,56.7v10c0,0,0,0,0,0L17.8,56.7C17.8,56.7,17.8,56.7,17.8,56.7"/>
						<path fill="#D6D6D6" d="M17.8,56.7v10c0,0,0,0,0,0L17.8,56.7C17.7,56.7,17.7,56.7,17.8,56.7"/>
						<path fill="#D1D1D1" d="M17.7,56.7v10c0,0,0,0,0,0L17.7,56.7C17.7,56.7,17.7,56.7,17.7,56.7"/>
						<path fill="#CCCCCC" d="M17.7,56.7v10c0,0,0,0,0,0L17.7,56.7C17.7,56.7,17.7,56.7,17.7,56.7"/>
						<path fill="#C7C7C7" d="M17.7,56.7v10c0,0,0,0,0,0L17.7,56.7C17.6,56.7,17.7,56.7,17.7,56.7"/>
						<path fill="#C2C2C2" d="M17.6,56.7v10c0,0,0,0,0,0L17.6,56.7C17.6,56.7,17.6,56.7,17.6,56.7"/>
						<path fill="#BDBDBD" d="M17.6,56.7v10c0,0,0,0,0,0L17.6,56.7C17.6,56.7,17.6,56.7,17.6,56.7"/>
						<path fill="#B8B8B8" d="M17.6,56.7v10c0,0,0,0,0,0L17.6,56.7C17.5,56.7,17.5,56.7,17.6,56.7"/>
						<path fill="#B3B3B3" d="M17.5,56.7v10c0,0,0,0,0,0L17.5,56.7C17.5,56.7,17.5,56.7,17.5,56.7"/>
						<path fill="#ADADAD" d="M17.5,56.7v10c0,0,0,0,0,0L17.5,56.7C17.4,56.7,17.5,56.7,17.5,56.7"/>
						<path fill="#A8A8A8" d="M17.4,56.7v10c0,0,0,0,0,0L17.4,56.7C17.4,56.7,17.4,56.7,17.4,56.7"/>
						<path fill="#A3A3A3" d="M17.4,56.7v10c0,0,0,0,0,0L17.4,56.7C17.4,56.7,17.4,56.7,17.4,56.7"/>
						<path fill="#9E9E9E" d="M17.3,56.7v10c0,0,0,0,0,0L17.3,56.7C17.3,56.7,17.3,56.7,17.3,56.7"/>
						<path fill="#999999" d="M17.3,56.7v10c0,0,0,0-0.1,0L17.3,56.7C17.2,56.7,17.3,56.7,17.3,56.7"/>
						<path fill="#949494" d="M17.2,56.7v10c0,0,0,0-0.1,0L17.2,56.7C17.2,56.7,17.2,56.7,17.2,56.7"/>
						<path fill="#8F8F8F" d="M17.2,56.7v10c0,0,0,0-0.1,0L17.2,56.7C17.1,56.7,17.1,56.7,17.2,56.7"/>
						<path fill="#8A8A8A" d="M17.1,56.7v10c0,0-0.1,0-0.1,0L17.1,56.7C17,56.7,17.1,56.7,17.1,56.7"/>
						<path fill="#858585" d="M17,56.7v10c-0.3,0-0.4,0-0.4,0v-10C16.6,56.7,16.7,56.7,17,56.7"/>
					</g>
				</g>
				<g enable-background="new    ">
					<defs>
						<path id="SVGID_7_" enable-background="new    " d="M18.3,56.7v10c0,0-0.3,0-0.4,0l0-10C18,56.7,18.3,56.7,18.3,56.7z"/>
					</defs>
					<clipPath id="SVGID_8_">
						<use xlink:href="#SVGID_7_"  overflow="visible"/>
					</clipPath>
					<g clip-path="url(#SVGID_8_)" enable-background="new    ">
						<polyline fill="#666666" points="18.3,56.7 18.3,66.7 18.3,66.7 18.3,56.7 18.3,56.7 						"/>
						<polyline fill="#666666" points="18.3,56.7 18.3,66.7 18.3,66.7 18.3,56.7 18.3,56.7 						"/>
						<polyline fill="#666666" points="18.3,56.7 18.3,66.7 18.2,66.7 18.2,56.7 18.3,56.7 						"/>
						<path fill="#666666" d="M18.2,56.7v10c0,0,0,0,0,0L18.2,56.7C18.2,56.7,18.2,56.7,18.2,56.7"/>
						<path fill="#666666" d="M18.2,56.7v10c0,0,0,0,0,0L18.2,56.7C18.2,56.7,18.2,56.7,18.2,56.7"/>
						<path fill="#666666" d="M18.2,56.7v10c0,0,0,0,0,0L18.2,56.7C18.2,56.7,18.2,56.7,18.2,56.7"/>
						<path fill="#666666" d="M18.2,56.7v10c0,0,0,0,0,0L18.2,56.7C18.2,56.7,18.2,56.7,18.2,56.7"/>
						<path fill="#666666" d="M18.2,56.7v10c0,0,0,0,0,0L18.2,56.7C18.2,56.7,18.2,56.7,18.2,56.7"/>
						<path fill="#666666" d="M18.2,56.7v10c0,0,0,0,0,0L18.2,56.7C18.1,56.7,18.1,56.7,18.2,56.7"/>
						<path fill="#666666" d="M18.1,56.7v10c0,0,0,0,0,0L18.1,56.7C18.1,56.7,18.1,56.7,18.1,56.7"/>
						<path fill="#666666" d="M18.1,56.7v10c0,0,0,0,0,0L18.1,56.7C18.1,56.7,18.1,56.7,18.1,56.7"/>
						<path fill="#666666" d="M18.1,56.7v10c0,0,0,0,0,0L18.1,56.7C18.1,56.7,18.1,56.7,18.1,56.7"/>
						<path fill="#666666" d="M18.1,56.7v10c0,0,0,0,0,0L18.1,56.7C18,56.7,18.1,56.7,18.1,56.7"/>
						<path fill="#666666" d="M18,56.7v10c0,0,0,0,0,0L18,56.7C18,56.7,18,56.7,18,56.7"/>
						<path fill="#666666" d="M18,56.7v10c0,0,0,0,0,0L18,56.7C18,56.7,18,56.7,18,56.7"/>
						<path fill="#666666" d="M18,56.7v10c0,0,0,0,0,0L18,56.7C18,56.7,18,56.7,18,56.7"/>
						<path fill="#666666" d="M18,56.7v10c0,0,0,0,0,0L18,56.7C18,56.7,18,56.7,18,56.7"/>
						<polyline fill="#666666" points="18,56.7 18,66.7 18,66.7 18,56.7 18,56.7 						"/>
						<polyline fill="#666666" points="18,56.7 18,66.7 17.9,66.7 17.9,56.7 18,56.7 						"/>
						<polyline fill="#666666" points="17.9,56.7 17.9,66.7 17.9,66.7 17.9,56.7 17.9,56.7 						"/>
						<polyline fill="#666666" points="17.9,56.7 17.9,66.7 17.9,66.7 17.9,56.7 17.9,56.7 						"/>
						<polyline fill="#666666" points="17.9,56.7 17.9,66.7 17.9,66.7 17.9,56.7 17.9,56.7 						"/>
						<polyline fill="#717171" points="17.9,56.7 17.9,66.7 17.9,66.7 17.9,56.7 17.9,56.7 						"/>
						<polyline fill="#767676" points="17.9,56.7 17.9,66.7 17.9,66.7 17.9,56.7 17.9,56.7 						"/>
						<polyline fill="#797979" points="17.9,56.7 17.9,66.7 17.9,66.7 17.9,56.7 17.9,56.7 						"/>
						<polyline fill="#7C7C7C" points="17.9,56.7 17.9,66.7 17.9,66.7 17.9,56.7 17.9,56.7 						"/>
						<polyline fill="#7F7F7F" points="17.9,56.7 17.9,66.7 17.9,66.7 17.9,56.7 17.9,56.7 						"/>
						<polyline fill="#818181" points="17.9,56.7 17.9,66.7 17.9,66.7 17.9,56.7 17.9,56.7 						"/>
						<polyline fill="#838383" points="17.9,56.7 17.9,66.7 17.9,66.7 17.9,56.7 17.9,56.7 						"/>
						<polyline fill="#858585" points="17.9,56.7 17.9,66.7 17.9,66.7 17.9,56.7 17.9,56.7 						"/>
						<polyline fill="#878787" points="17.9,56.7 17.9,66.7 17.9,66.7 17.9,56.7 17.9,56.7 						"/>
						<polyline fill="#898989" points="17.9,56.7 17.9,66.7 17.9,66.7 17.9,56.7 17.9,56.7 						"/>
						<polyline fill="#8B8B8B" points="17.9,56.7 17.9,66.7 17.9,66.7 17.9,56.7 17.9,56.7 						"/>
					</g>
				</g>
			</g>
		</g>
	</g>
</g>
<line fill="none" stroke="#000000" stroke-miterlimit="10" x1="18.6" y1="71.1" x2="91.3" y2="71.1"/>
<g>
	<g>
		<g enable-background="new    ">
			<g enable-background="new    ">
				<defs>
					<path id="SVGID_9_" enable-background="new    " d="M92.4,94.6l0,2c0,0-0.5,0-1.1,0c-0.6,0-1.1,0-1.1,0v-2c0,0,0.5,0,1.1,0
						C91.9,94.6,92.4,94.6,92.4,94.6z"/>
				</defs>
				<clipPath id="SVGID_10_">
					<use xlink:href="#SVGID_9_"  overflow="visible"/>
				</clipPath>
				<g clip-path="url(#SVGID_10_)" enable-background="new    ">
					<path fill="#8F0507" d="M92.4,94.6v2c0,0-0.1,0-0.2,0v-2C92.3,94.6,92.4,94.6,92.4,94.6"/>
					<path fill="#920609" d="M92.2,94.6v2c0,0,0,0-0.1,0L92.2,94.6C92.1,94.6,92.2,94.6,92.2,94.6"/>
					<path fill="#96080B" d="M92.1,94.6v2c0,0,0,0-0.1,0L92.1,94.6C92.1,94.6,92.1,94.6,92.1,94.6"/>
					<path fill="#9A090D" d="M92.1,94.6v2c0,0,0,0-0.1,0L92.1,94.6C92,94.6,92,94.6,92.1,94.6"/>
					<path fill="#9E0B0F" d="M92,94.6v2c0,0,0,0,0,0L92,94.6C92,94.6,92,94.6,92,94.6"/>
					<path fill="#A10C11" d="M92,94.6v2c0,0,0,0,0,0L92,94.6C91.9,94.6,91.9,94.6,92,94.6"/>
					<path fill="#A50D12" d="M91.9,94.6v2c0,0,0,0,0,0L91.9,94.6C91.9,94.6,91.9,94.6,91.9,94.6"/>
					<path fill="#A90F14" d="M91.9,94.6v2c0,0,0,0,0,0L91.9,94.6C91.8,94.6,91.8,94.6,91.9,94.6"/>
					<path fill="#AD1015" d="M91.8,94.6v2c0,0,0,0,0,0L91.8,94.6C91.8,94.6,91.8,94.6,91.8,94.6"/>
					<path fill="#B11116" d="M91.8,94.6v2c0,0,0,0,0,0L91.8,94.6C91.7,94.6,91.8,94.6,91.8,94.6"/>
					<path fill="#B51218" d="M91.7,94.6v2c0,0,0,0,0,0L91.7,94.6C91.7,94.6,91.7,94.6,91.7,94.6"/>
					<path fill="#B91319" d="M91.7,94.6v2c0,0,0,0,0,0L91.7,94.6C91.6,94.6,91.7,94.6,91.7,94.6"/>
					<path fill="#BC141A" d="M91.6,94.6v2c0,0,0,0,0,0L91.6,94.6C91.6,94.6,91.6,94.6,91.6,94.6"/>
					<path fill="#C0151B" d="M91.6,94.6v2c0,0,0,0,0,0L91.6,94.6C91.6,94.6,91.6,94.6,91.6,94.6"/>
					<path fill="#C4161C" d="M91.5,94.6v2c0,0,0,0,0,0L91.5,94.6C91.5,94.6,91.5,94.6,91.5,94.6"/>
					<path fill="#C8161D" d="M91.5,94.6v2c0,0,0,0,0,0L91.5,94.6C91.5,94.6,91.5,94.6,91.5,94.6"/>
					<path fill="#CC171E" d="M91.5,94.6v2c0,0,0,0,0,0L91.5,94.6C91.5,94.6,91.5,94.6,91.5,94.6"/>
					<path fill="#D0181F" d="M91.5,94.6v2c0,0,0,0,0,0L91.5,94.6C91.4,94.6,91.4,94.6,91.5,94.6"/>
					<path fill="#D31920" d="M91.4,94.6v2c0,0,0,0,0,0L91.4,94.6C91.4,94.6,91.4,94.6,91.4,94.6"/>
					<path fill="#D71920" d="M91.4,94.6v2c0,0,0,0,0,0L91.4,94.6C91.4,94.6,91.4,94.6,91.4,94.6"/>
					<path fill="#DB1A21" d="M91.4,94.6v2c0,0,0,0,0,0L91.4,94.6C91.4,94.6,91.4,94.6,91.4,94.6"/>
					<path fill="#DF1A22" d="M91.4,94.6v2c0,0,0,0,0,0L91.4,94.6C91.3,94.6,91.3,94.6,91.4,94.6"/>
					<path fill="#E31B23" d="M91.3,94.6v2c0,0,0,0,0,0L91.3,94.6C91.3,94.6,91.3,94.6,91.3,94.6"/>
					<path fill="#E71C23" d="M91.3,94.6v2c0,0,0,0,0,0L91.3,94.6C91.3,94.6,91.3,94.6,91.3,94.6"/>
					<path fill="#ED1C24" d="M91.3,94.6v2c0,0,0,0,0,0L91.3,94.6C91.3,94.6,91.3,94.6,91.3,94.6"/>
					<path fill="#EF4632" d="M91.3,94.6v2c0,0,0,0,0,0c0,0,0,0,0,0L91.3,94.6C91.3,94.6,91.3,94.6,91.3,94.6
						C91.3,94.6,91.3,94.6,91.3,94.6"/>
					<path fill="#F0533A" d="M91.3,94.6v2c0,0,0,0,0,0L91.3,94.6C91.2,94.6,91.2,94.6,91.3,94.6"/>
					<path fill="#F15C41" d="M91.2,94.6v2c0,0,0,0,0,0L91.2,94.6C91.2,94.6,91.2,94.6,91.2,94.6"/>
					<path fill="#F26447" d="M91.2,94.6v2c0,0,0,0,0,0L91.2,94.6C91.2,94.6,91.2,94.6,91.2,94.6"/>
					<path fill="#F26A4D" d="M91.2,94.6v2c0,0,0,0,0,0L91.2,94.6C91.2,94.6,91.2,94.6,91.2,94.6"/>
					<path fill="#F36F51" d="M91.2,94.6v2c0,0,0,0,0,0L91.2,94.6C91.2,94.6,91.2,94.6,91.2,94.6"/>
					<path fill="#F37456" d="M91.2,94.6v2c0,0,0,0,0,0L91.2,94.6C91.1,94.6,91.2,94.6,91.2,94.6"/>
					<path fill="#F4785A" d="M91.1,94.6v2c0,0,0,0,0,0L91.1,94.6C91.1,94.6,91.1,94.6,91.1,94.6"/>
					<path fill="#F47C5E" d="M91.1,94.6v2c0,0,0,0,0,0L91.1,94.6C91.1,94.6,91.1,94.6,91.1,94.6"/>
					<path fill="#F48062" d="M91.1,94.6v2c0,0,0,0,0,0L91.1,94.6C91.1,94.6,91.1,94.6,91.1,94.6"/>
					<path fill="#F58365" d="M91,94.6v2c0,0-0.1,0-0.1,0v-2C91,94.6,91,94.6,91,94.6"/>
					<path fill="#F48062" d="M90.9,94.6v2c0,0,0,0,0,0L90.9,94.6C90.9,94.6,90.9,94.6,90.9,94.6"/>
					<path fill="#F47C5E" d="M90.9,94.6v2c0,0,0,0,0,0L90.9,94.6C90.9,94.6,90.9,94.6,90.9,94.6"/>
					<path fill="#F4785A" d="M90.9,94.6v2c0,0,0,0,0,0L90.9,94.6C90.8,94.6,90.9,94.6,90.9,94.6"/>
					<path fill="#F37456" d="M90.8,94.6v2c0,0,0,0,0,0L90.8,94.6C90.8,94.6,90.8,94.6,90.8,94.6"/>
					<path fill="#F36F51" d="M90.8,94.6v2c0,0,0,0,0,0L90.8,94.6C90.8,94.6,90.8,94.6,90.8,94.6"/>
					<path fill="#F26A4D" d="M90.8,94.6v2c0,0,0,0,0,0L90.8,94.6C90.8,94.6,90.8,94.6,90.8,94.6"/>
					<path fill="#F26447" d="M90.8,94.6v2c0,0,0,0,0,0L90.8,94.6C90.8,94.6,90.8,94.6,90.8,94.6"/>
					<path fill="#F15C41" d="M90.8,94.6v2c0,0,0,0,0,0L90.8,94.6C90.7,94.6,90.7,94.6,90.8,94.6"/>
					<path fill="#F0533A" d="M90.7,94.6v2c0,0,0,0,0,0L90.7,94.6C90.7,94.6,90.7,94.6,90.7,94.6"/>
					<path fill="#EF4632" d="M90.7,94.6v2c0,0,0,0,0,0L90.7,94.6C90.7,94.6,90.7,94.6,90.7,94.6"/>
					<path fill="#ED1C24" d="M90.7,94.6v2c0,0,0,0,0,0L90.7,94.6C90.7,94.6,90.7,94.6,90.7,94.6"/>
					<path fill="#E71C23" d="M90.6,94.6v2c0,0,0,0,0,0L90.6,94.6C90.6,94.6,90.6,94.6,90.6,94.6"/>
					<path fill="#E31B23" d="M90.6,94.6v2c0,0,0,0,0,0L90.6,94.6C90.6,94.6,90.6,94.6,90.6,94.6"/>
					<path fill="#DF1A22" d="M90.6,94.6v2c0,0,0,0,0,0L90.6,94.6C90.6,94.6,90.6,94.6,90.6,94.6"/>
					<path fill="#DB1A21" d="M90.5,94.6v2c0,0,0,0,0,0L90.5,94.6C90.5,94.6,90.5,94.6,90.5,94.6"/>
					<path fill="#D71920" d="M90.5,94.6v2c0,0,0,0,0,0L90.5,94.6C90.5,94.6,90.5,94.6,90.5,94.6"/>
					<path fill="#D31920" d="M90.4,94.6v2c0,0,0,0,0,0L90.4,94.6C90.4,94.6,90.4,94.6,90.4,94.6"/>
					<path fill="#D0181F" d="M90.4,94.6v2c0,0,0,0,0,0L90.4,94.6C90.4,94.6,90.4,94.6,90.4,94.6"/>
					<path fill="#CC171E" d="M90.4,94.6v2c0,0,0,0,0,0L90.4,94.6C90.3,94.6,90.4,94.6,90.4,94.6"/>
					<path fill="#C8161D" d="M90.3,94.6v2c0,0,0,0,0,0L90.3,94.6C90.3,94.6,90.3,94.6,90.3,94.6"/>
					<path fill="#C4161C" d="M90.3,94.6v2c0,0,0,0,0,0L90.3,94.6C90.3,94.6,90.3,94.6,90.3,94.6"/>
					<path fill="#C0151B" d="M90.3,94.6v2c0,0,0,0,0,0L90.3,94.6C90.3,94.6,90.3,94.6,90.3,94.6"/>
					<path fill="#BC141A" d="M90.3,94.6v2c0,0,0,0,0,0L90.3,94.6C90.2,94.6,90.2,94.6,90.3,94.6"/>
					<path fill="#B91319" d="M90.2,94.6v2c0,0,0,0,0,0L90.2,94.6C90.2,94.6,90.2,94.6,90.2,94.6"/>
					<path fill="#B51218" d="M90.2,94.6v2c0,0,0,0,0,0L90.2,94.6C90.2,94.6,90.2,94.6,90.2,94.6"/>
					<path fill="#B11116" d="M90.2,94.6v2c0,0,0,0,0,0L90.2,94.6C90.2,94.6,90.2,94.6,90.2,94.6"/>
					<polyline fill="#AD1015" points="90.2,94.6 90.2,96.6 90.2,96.6 90.2,94.6 90.2,94.6 					"/>
					<polyline fill="#A90F14" points="90.2,94.6 90.2,96.6 90.2,96.6 90.2,94.6 90.2,94.6 					"/>
					<polyline fill="#A50D12" points="90.2,94.6 90.2,96.6 90.2,96.6 90.2,94.6 90.2,94.6 					"/>
					<polyline fill="#A10C11" points="90.2,94.6 90.2,96.6 90.1,96.6 90.1,94.6 90.2,94.6 					"/>
					<polyline fill="#9E0B0F" points="90.1,94.6 90.1,96.6 90.1,96.6 90.1,94.6 90.1,94.6 					"/>
					<polyline fill="#9A090D" points="90.1,94.6 90.1,96.6 90.1,96.6 90.1,94.6 90.1,94.6 					"/>
				</g>
			</g>
			<g enable-background="new    ">
				<defs>
					<path id="SVGID_11_" enable-background="new    " d="M92.4,94.6l0,2c0,0-0.5,0-1.1,0c-0.6,0-1.1,0-1.1,0l0-2c0,0,0.5,0,1.1,0
						C91.9,94.6,92.4,94.6,92.4,94.6z"/>
				</defs>
				<clipPath id="SVGID_12_">
					<use xlink:href="#SVGID_11_"  overflow="visible"/>
				</clipPath>
				<g clip-path="url(#SVGID_12_)" enable-background="new    ">
					<polyline fill="#9A090D" points="92.4,94.6 92.4,96.6 92.4,96.6 92.4,94.6 92.4,94.6 					"/>
					<polyline fill="#9E0B0F" points="92.4,94.6 92.4,96.6 92.4,96.6 92.4,94.6 92.4,94.6 					"/>
					<polyline fill="#A10C11" points="92.4,94.6 92.4,96.6 92.4,96.6 92.4,94.6 92.4,94.6 					"/>
					<polyline fill="#A50D12" points="92.4,94.6 92.4,96.6 92.4,96.6 92.4,94.6 92.4,94.6 					"/>
					<polyline fill="#A90F14" points="92.4,94.6 92.4,96.6 92.4,96.6 92.4,94.6 92.4,94.6 					"/>
					<polyline fill="#AD1015" points="92.4,94.6 92.4,96.6 92.4,96.6 92.4,94.6 92.4,94.6 					"/>
					<path fill="#B11116" d="M92.4,94.6v2c0,0,0,0,0,0L92.4,94.6C92.4,94.6,92.4,94.6,92.4,94.6"/>
					<path fill="#B51218" d="M92.4,94.6v2c0,0,0,0,0,0L92.4,94.6C92.3,94.6,92.3,94.6,92.4,94.6"/>
					<path fill="#B91319" d="M92.3,94.6v2c0,0,0,0,0,0L92.3,94.6C92.3,94.6,92.3,94.6,92.3,94.6"/>
					<path fill="#BC141A" d="M92.3,94.6v2c0,0,0,0,0,0L92.3,94.6C92.3,94.6,92.3,94.6,92.3,94.6"/>
					<path fill="#C0151B" d="M92.3,94.6v2c0,0,0,0,0,0L92.3,94.6C92.3,94.6,92.3,94.6,92.3,94.6"/>
					<path fill="#C4161C" d="M92.3,94.6v2c0,0,0,0,0,0L92.3,94.6C92.3,94.6,92.3,94.6,92.3,94.6"/>
					<path fill="#C8161D" d="M92.3,94.6v2c0,0,0,0,0,0L92.3,94.6C92.2,94.6,92.2,94.6,92.3,94.6"/>
					<path fill="#CC171E" d="M92.2,94.6v2c0,0,0,0,0,0L92.2,94.6C92.2,94.6,92.2,94.6,92.2,94.6"/>
					<path fill="#D0181F" d="M92.2,94.6v2c0,0,0,0,0,0L92.2,94.6C92.2,94.6,92.2,94.6,92.2,94.6"/>
					<path fill="#D31920" d="M92.2,94.6v2c0,0,0,0,0,0L92.2,94.6C92.1,94.6,92.1,94.6,92.2,94.6"/>
					<path fill="#D71920" d="M92.1,94.6v2c0,0,0,0,0,0L92.1,94.6C92.1,94.6,92.1,94.6,92.1,94.6"/>
					<path fill="#DB1A21" d="M92.1,94.6v2c0,0,0,0,0,0L92.1,94.6C92,94.6,92,94.6,92.1,94.6"/>
					<path fill="#DF1A22" d="M92,94.6v2c0,0,0,0,0,0L92,94.6C92,94.6,92,94.6,92,94.6"/>
					<path fill="#E31B23" d="M92,94.6v2c0,0,0,0,0,0L92,94.6C91.9,94.6,92,94.6,92,94.6"/>
					<path fill="#E71C23" d="M91.9,94.6v2c0,0,0,0,0,0L91.9,94.6C91.9,94.6,91.9,94.6,91.9,94.6"/>
					<path fill="#ED1C24" d="M91.9,94.6v2c0,0,0,0,0,0L91.9,94.6C91.9,94.6,91.9,94.6,91.9,94.6"/>
					<path fill="#EF4632" d="M91.9,94.6v2c0,0,0,0,0,0L91.9,94.6C91.9,94.6,91.9,94.6,91.9,94.6"/>
					<path fill="#F0533A" d="M91.8,94.6v2c0,0,0,0,0,0L91.8,94.6C91.8,94.6,91.8,94.6,91.8,94.6"/>
					<path fill="#F15C41" d="M91.8,94.6v2c0,0,0,0,0,0L91.8,94.6C91.8,94.6,91.8,94.6,91.8,94.6"/>
					<path fill="#F26447" d="M91.8,94.6v2c0,0,0,0,0,0L91.8,94.6C91.8,94.6,91.8,94.6,91.8,94.6"/>
					<path fill="#F26A4D" d="M91.8,94.6v2c0,0,0,0,0,0L91.8,94.6C91.8,94.6,91.8,94.6,91.8,94.6"/>
					<path fill="#F36F51" d="M91.8,94.6v2c0,0,0,0,0,0L91.8,94.6C91.7,94.6,91.7,94.6,91.8,94.6"/>
					<path fill="#F37456" d="M91.7,94.6v2c0,0,0,0,0,0L91.7,94.6C91.7,94.6,91.7,94.6,91.7,94.6"/>
					<path fill="#F4785A" d="M91.7,94.6v2c0,0,0,0,0,0L91.7,94.6C91.7,94.6,91.7,94.6,91.7,94.6"/>
					<path fill="#F47C5E" d="M91.7,94.6v2c0,0,0,0,0,0L91.7,94.6C91.7,94.6,91.7,94.6,91.7,94.6"/>
					<path fill="#F48062" d="M91.7,94.6v2c0,0,0,0,0,0L91.7,94.6C91.6,94.6,91.6,94.6,91.7,94.6"/>
					<path fill="#F58365" d="M91.6,94.6v2c0,0-0.1,0-0.1,0v-2C91.5,94.6,91.6,94.6,91.6,94.6"/>
					<path fill="#F48062" d="M91.5,94.6v2c0,0,0,0,0,0L91.5,94.6C91.5,94.6,91.5,94.6,91.5,94.6"/>
					<path fill="#F47C5E" d="M91.5,94.6v2c0,0,0,0,0,0L91.5,94.6C91.4,94.6,91.4,94.6,91.5,94.6"/>
					<path fill="#F4785A" d="M91.4,94.6v2c0,0,0,0,0,0L91.4,94.6C91.4,94.6,91.4,94.6,91.4,94.6"/>
					<path fill="#F37456" d="M91.4,94.6v2c0,0,0,0,0,0L91.4,94.6C91.4,94.6,91.4,94.6,91.4,94.6"/>
					<path fill="#F36F51" d="M91.4,94.6v2c0,0,0,0,0,0L91.4,94.6C91.4,94.6,91.4,94.6,91.4,94.6"/>
					<path fill="#F26A4D" d="M91.4,94.6v2c0,0,0,0,0,0L91.4,94.6C91.3,94.6,91.4,94.6,91.4,94.6"/>
					<path fill="#F26447" d="M91.3,94.6v2c0,0,0,0,0,0L91.3,94.6C91.3,94.6,91.3,94.6,91.3,94.6"/>
					<path fill="#F15C41" d="M91.3,94.6v2c0,0,0,0,0,0L91.3,94.6C91.3,94.6,91.3,94.6,91.3,94.6"/>
					<path fill="#F0533A" d="M91.3,94.6v2c0,0,0,0,0,0L91.3,94.6C91.3,94.6,91.3,94.6,91.3,94.6"/>
					<path fill="#EF4632" d="M91.3,94.6v2c0,0,0,0,0,0c0,0,0,0,0,0L91.3,94.6C91.3,94.6,91.3,94.6,91.3,94.6
						C91.3,94.6,91.3,94.6,91.3,94.6"/>
					<path fill="#ED1C24" d="M91.3,94.6v2c0,0,0,0,0,0L91.3,94.6C91.3,94.6,91.3,94.6,91.3,94.6"/>
					<path fill="#E71C23" d="M91.3,94.6v2c0,0,0,0,0,0L91.3,94.6C91.2,94.6,91.2,94.6,91.3,94.6"/>
					<path fill="#E31B23" d="M91.2,94.6v2c0,0,0,0,0,0L91.2,94.6C91.2,94.6,91.2,94.6,91.2,94.6"/>
					<path fill="#DF1A22" d="M91.2,94.6v2c0,0,0,0,0,0L91.2,94.6C91.2,94.6,91.2,94.6,91.2,94.6"/>
					<path fill="#DB1A21" d="M91.2,94.6v2c0,0,0,0,0,0L91.2,94.6C91.2,94.6,91.2,94.6,91.2,94.6"/>
					<path fill="#D71920" d="M91.2,94.6v2c0,0,0,0,0,0L91.2,94.6C91.2,94.6,91.2,94.6,91.2,94.6"/>
					<path fill="#D31920" d="M91.1,94.6v2c0,0,0,0,0,0L91.1,94.6C91.1,94.6,91.1,94.6,91.1,94.6"/>
					<path fill="#D0181F" d="M91.1,94.6v2c0,0,0,0,0,0L91.1,94.6C91.1,94.6,91.1,94.6,91.1,94.6"/>
					<path fill="#CC171E" d="M91.1,94.6v2c0,0,0,0,0,0L91.1,94.6C91.1,94.6,91.1,94.6,91.1,94.6"/>
					<path fill="#C8161D" d="M91.1,94.6v2c0,0,0,0,0,0L91.1,94.6C91,94.6,91.1,94.6,91.1,94.6"/>
					<path fill="#C4161C" d="M91,94.6v2c0,0,0,0,0,0L91,94.6C91,94.6,91,94.6,91,94.6"/>
					<path fill="#C0151B" d="M91,94.6v2c0,0,0,0,0,0L91,94.6C91,94.6,91,94.6,91,94.6"/>
					<path fill="#BC141A" d="M91,94.6v2c0,0,0,0,0,0L91,94.6C90.9,94.6,90.9,94.6,91,94.6"/>
					<path fill="#B91319" d="M90.9,94.6v2c0,0,0,0,0,0L90.9,94.6C90.9,94.6,90.9,94.6,90.9,94.6"/>
					<path fill="#B51218" d="M90.9,94.6v2c0,0,0,0,0,0L90.9,94.6C90.8,94.6,90.9,94.6,90.9,94.6"/>
					<path fill="#B11116" d="M90.8,94.6v2c0,0,0,0,0,0L90.8,94.6C90.8,94.6,90.8,94.6,90.8,94.6"/>
					<path fill="#AD1015" d="M90.8,94.6v2c0,0,0,0,0,0L90.8,94.6C90.8,94.6,90.8,94.6,90.8,94.6"/>
					<path fill="#A90F14" d="M90.7,94.6v2c0,0,0,0,0,0L90.7,94.6C90.7,94.6,90.7,94.6,90.7,94.6"/>
					<path fill="#A50D12" d="M90.7,94.6v2c0,0,0,0,0,0L90.7,94.6C90.7,94.6,90.7,94.6,90.7,94.6"/>
					<path fill="#A10C11" d="M90.6,94.6v2c0,0,0,0,0,0L90.6,94.6C90.6,94.6,90.6,94.6,90.6,94.6"/>
					<path fill="#9E0B0F" d="M90.6,94.6v2c0,0,0,0,0,0L90.6,94.6C90.6,94.6,90.6,94.6,90.6,94.6"/>
					<path fill="#9A090D" d="M90.5,94.6v2c0,0,0,0-0.1,0L90.5,94.6C90.5,94.6,90.5,94.6,90.5,94.6"/>
					<path fill="#96080B" d="M90.5,94.6v2c0,0,0,0-0.1,0L90.5,94.6C90.5,94.6,90.5,94.6,90.5,94.6"/>
					<path fill="#920609" d="M90.4,94.6v2c0,0,0,0-0.1,0L90.4,94.6C90.4,94.6,90.4,94.6,90.4,94.6"/>
					<path fill="#8F0507" d="M90.4,94.6v2c-0.1,0-0.2,0-0.2,0v-2C90.1,94.6,90.2,94.6,90.4,94.6"/>
				</g>
			</g>
			<g enable-background="new    ">
				<defs>
					<path id="SVGID_13_" enable-background="new    " d="M94.4,94.6l0,2c0,0-1.4,0-3.1,0c-1.7,0-3.1,0-3.1,0l0-2c0,0,1.4,0,3.1,0
						C93,94.6,94.4,94.6,94.4,94.6z"/>
				</defs>
				<clipPath id="SVGID_14_">
					<use xlink:href="#SVGID_13_"  overflow="visible"/>
				</clipPath>
				<g clip-path="url(#SVGID_14_)" enable-background="new    ">
					<polyline fill="#9A090D" points="94.4,94.6 94.4,96.6 94.4,96.6 94.4,94.6 94.4,94.6 					"/>
					<polyline fill="#9E0B0F" points="94.4,94.6 94.4,96.6 94.4,96.6 94.4,94.6 94.4,94.6 					"/>
					<path fill="#A10C11" d="M94.4,94.6v2c0,0,0,0,0,0L94.4,94.6C94.4,94.6,94.4,94.6,94.4,94.6"/>
					<path fill="#A50D12" d="M94.4,94.6v2c0,0,0,0,0,0L94.4,94.6C94.4,94.6,94.4,94.6,94.4,94.6"/>
					<path fill="#A90F14" d="M94.4,94.6v2c0,0,0,0,0,0L94.4,94.6C94.3,94.6,94.4,94.6,94.4,94.6"/>
					<path fill="#AD1015" d="M94.3,94.6v2c0,0,0,0,0,0L94.3,94.6C94.3,94.6,94.3,94.6,94.3,94.6"/>
					<path fill="#B11116" d="M94.3,94.6v2c0,0,0,0,0,0L94.3,94.6C94.3,94.6,94.3,94.6,94.3,94.6"/>
					<path fill="#B51218" d="M94.3,94.6v2c0,0,0,0,0,0L94.3,94.6C94.2,94.6,94.2,94.6,94.3,94.6"/>
					<path fill="#B91319" d="M94.2,94.6v2c0,0,0,0-0.1,0L94.2,94.6C94.2,94.6,94.2,94.6,94.2,94.6"/>
					<path fill="#BC141A" d="M94.2,94.6v2c0,0,0,0-0.1,0L94.2,94.6C94.1,94.6,94.1,94.6,94.2,94.6"/>
					<path fill="#C0151B" d="M94.1,94.6v2c0,0,0,0-0.1,0L94.1,94.6C94.1,94.6,94.1,94.6,94.1,94.6"/>
					<path fill="#C4161C" d="M94,94.6v2c0,0,0,0-0.1,0L94,94.6C94,94.6,94,94.6,94,94.6"/>
					<path fill="#C8161D" d="M94,94.6v2c0,0-0.1,0-0.1,0L94,94.6C93.9,94.6,93.9,94.6,94,94.6"/>
					<path fill="#CC171E" d="M93.9,94.6v2c0,0-0.1,0-0.1,0L93.9,94.6C93.8,94.6,93.9,94.6,93.9,94.6"/>
					<path fill="#D0181F" d="M93.8,94.6v2c0,0-0.1,0-0.1,0v-2C93.7,94.6,93.8,94.6,93.8,94.6"/>
					<path fill="#D31920" d="M93.7,94.6v2c0,0-0.1,0-0.1,0v-2C93.6,94.6,93.7,94.6,93.7,94.6"/>
					<path fill="#D71920" d="M93.6,94.6v2c0,0-0.1,0-0.1,0v-2C93.5,94.6,93.5,94.6,93.6,94.6"/>
					<path fill="#DB1A21" d="M93.4,94.6v2c0,0-0.1,0-0.1,0v-2C93.4,94.6,93.4,94.6,93.4,94.6"/>
					<path fill="#DF1A22" d="M93.3,94.6v2c0,0-0.1,0-0.1,0v-2C93.2,94.6,93.3,94.6,93.3,94.6"/>
					<path fill="#E31B23" d="M93.2,94.6v2c0,0-0.1,0-0.1,0v-2C93.1,94.6,93.2,94.6,93.2,94.6"/>
					<path fill="#E71C23" d="M93.1,94.6v2c0,0-0.1,0-0.1,0L93.1,94.6C93,94.6,93.1,94.6,93.1,94.6"/>
					<path fill="#ED1C24" d="M93,94.6v2c0,0-0.1,0-0.1,0L93,94.6C93,94.6,93,94.6,93,94.6"/>
					<path fill="#EF4632" d="M92.9,94.6v2c0,0,0,0-0.1,0L92.9,94.6C92.9,94.6,92.9,94.6,92.9,94.6"/>
					<path fill="#F0533A" d="M92.9,94.6v2c0,0,0,0-0.1,0L92.9,94.6C92.8,94.6,92.8,94.6,92.9,94.6"/>
					<path fill="#F15C41" d="M92.8,94.6v2c0,0,0,0-0.1,0L92.8,94.6C92.7,94.6,92.8,94.6,92.8,94.6"/>
					<path fill="#F26447" d="M92.7,94.6v2c0,0,0,0-0.1,0L92.7,94.6C92.7,94.6,92.7,94.6,92.7,94.6"/>
					<path fill="#F26A4D" d="M92.7,94.6v2c0,0,0,0-0.1,0L92.7,94.6C92.6,94.6,92.6,94.6,92.7,94.6"/>
					<path fill="#F36F51" d="M92.6,94.6v2c0,0,0,0-0.1,0L92.6,94.6C92.6,94.6,92.6,94.6,92.6,94.6"/>
					<path fill="#F37456" d="M92.5,94.6v2c0,0,0,0-0.1,0L92.5,94.6C92.5,94.6,92.5,94.6,92.5,94.6"/>
					<path fill="#F4785A" d="M92.5,94.6v2c0,0-0.1,0-0.1,0L92.5,94.6C92.4,94.6,92.5,94.6,92.5,94.6"/>
					<path fill="#F47C5E" d="M92.4,94.6v2c0,0-0.1,0-0.1,0L92.4,94.6C92.4,94.6,92.4,94.6,92.4,94.6"/>
					<path fill="#F48062" d="M92.3,94.6v2c0,0-0.1,0-0.1,0v-2C92.3,94.6,92.3,94.6,92.3,94.6"/>
					<path fill="#F58365" d="M92.2,94.6v2c-0.1,0-0.2,0-0.3,0v-2C92,94.6,92.1,94.6,92.2,94.6"/>
					<path fill="#F48062" d="M91.9,94.6v2c0,0-0.1,0-0.1,0v-2C91.8,94.6,91.9,94.6,91.9,94.6"/>
					<path fill="#F47C5E" d="M91.8,94.6v2c0,0,0,0-0.1,0L91.8,94.6C91.7,94.6,91.8,94.6,91.8,94.6"/>
					<path fill="#F4785A" d="M91.7,94.6v2c0,0,0,0-0.1,0L91.7,94.6C91.7,94.6,91.7,94.6,91.7,94.6"/>
					<path fill="#F37456" d="M91.6,94.6v2c0,0,0,0-0.1,0L91.6,94.6C91.6,94.6,91.6,94.6,91.6,94.6"/>
					<path fill="#F36F51" d="M91.6,94.6v2c0,0,0,0-0.1,0L91.6,94.6C91.5,94.6,91.6,94.6,91.6,94.6"/>
					<path fill="#F26A4D" d="M91.5,94.6v2c0,0,0,0-0.1,0L91.5,94.6C91.5,94.6,91.5,94.6,91.5,94.6"/>
					<path fill="#F26447" d="M91.5,94.6v2c0,0,0,0-0.1,0L91.5,94.6C91.4,94.6,91.5,94.6,91.5,94.6"/>
					<path fill="#F15C41" d="M91.4,94.6v2c0,0,0,0-0.1,0L91.4,94.6C91.4,94.6,91.4,94.6,91.4,94.6"/>
					<path fill="#F0533A" d="M91.4,94.6v2c0,0,0,0-0.1,0L91.4,94.6C91.3,94.6,91.4,94.6,91.4,94.6"/>
					<path fill="#EF4632" d="M91.3,94.6v2c0,0,0,0,0,0c0,0,0,0,0,0L91.3,94.6C91.3,94.6,91.3,94.6,91.3,94.6
						C91.3,94.6,91.3,94.6,91.3,94.6"/>
					<path fill="#ED1C24" d="M91.3,94.6v2c0,0,0,0-0.1,0L91.3,94.6C91.2,94.6,91.2,94.6,91.3,94.6"/>
					<path fill="#E71C23" d="M91.2,94.6v2c0,0,0,0-0.1,0L91.2,94.6C91.2,94.6,91.2,94.6,91.2,94.6"/>
					<path fill="#E31B23" d="M91.2,94.6v2c0,0,0,0-0.1,0L91.2,94.6C91.1,94.6,91.1,94.6,91.2,94.6"/>
					<path fill="#DF1A22" d="M91.1,94.6v2c0,0,0,0-0.1,0L91.1,94.6C91.1,94.6,91.1,94.6,91.1,94.6"/>
					<path fill="#DB1A21" d="M91,94.6v2c0,0,0,0-0.1,0L91,94.6C91,94.6,91,94.6,91,94.6"/>
					<path fill="#D71920" d="M91,94.6v2c0,0,0,0-0.1,0L91,94.6C90.9,94.6,91,94.6,91,94.6"/>
					<path fill="#D31920" d="M90.9,94.6v2c0,0,0,0-0.1,0L90.9,94.6C90.9,94.6,90.9,94.6,90.9,94.6"/>
					<path fill="#D0181F" d="M90.8,94.6v2c0,0,0,0-0.1,0L90.8,94.6C90.8,94.6,90.8,94.6,90.8,94.6"/>
					<path fill="#CC171E" d="M90.8,94.6v2c0,0-0.1,0-0.1,0L90.8,94.6C90.7,94.6,90.7,94.6,90.8,94.6"/>
					<path fill="#C8161D" d="M90.7,94.6v2c0,0-0.1,0-0.1,0L90.7,94.6C90.6,94.6,90.7,94.6,90.7,94.6"/>
					<path fill="#C4161C" d="M90.6,94.6v2c0,0-0.1,0-0.1,0L90.6,94.6C90.5,94.6,90.6,94.6,90.6,94.6"/>
					<path fill="#C0151B" d="M90.5,94.6v2c0,0-0.1,0-0.1,0v-2C90.4,94.6,90.5,94.6,90.5,94.6"/>
					<path fill="#BC141A" d="M90.4,94.6v2c0,0-0.1,0-0.1,0v-2C90.3,94.6,90.4,94.6,90.4,94.6"/>
					<path fill="#B91319" d="M90.3,94.6v2c0,0-0.1,0-0.1,0v-2C90.2,94.6,90.2,94.6,90.3,94.6"/>
					<path fill="#B51218" d="M90.2,94.6v2c0,0-0.1,0-0.1,0v-2C90.1,94.6,90.1,94.6,90.2,94.6"/>
					<path fill="#B11116" d="M90,94.6v2c0,0-0.1,0-0.1,0v-2C90,94.6,90,94.6,90,94.6"/>
					<path fill="#AD1015" d="M89.9,94.6v2c0,0-0.1,0-0.1,0v-2C89.8,94.6,89.9,94.6,89.9,94.6"/>
					<path fill="#A90F14" d="M89.8,94.6v2c0,0-0.1,0-0.1,0v-2C89.7,94.6,89.7,94.6,89.8,94.6"/>
					<path fill="#A50D12" d="M89.7,94.6v2c0,0-0.1,0-0.1,0v-2C89.6,94.6,89.6,94.6,89.7,94.6"/>
					<path fill="#A10C11" d="M89.5,94.6v2c0,0-0.1,0-0.1,0v-2C89.4,94.6,89.5,94.6,89.5,94.6"/>
					<path fill="#9E0B0F" d="M89.4,94.6v2c0,0-0.1,0-0.1,0v-2C89.3,94.6,89.3,94.6,89.4,94.6"/>
					<path fill="#9A090D" d="M89.3,94.6v2c-0.1,0-0.1,0-0.1,0v-2C89.2,94.6,89.2,94.6,89.3,94.6"/>
					<path fill="#96080B" d="M89.1,94.6v2c-0.1,0-0.1,0-0.2,0v-2C89,94.6,89.1,94.6,89.1,94.6"/>
					<path fill="#920609" d="M89,94.6v2c-0.1,0-0.1,0-0.2,0v-2C88.8,94.6,88.9,94.6,89,94.6"/>
					<path fill="#8F0507" d="M88.8,94.6v2c-0.4,0-0.6,0-0.6,0v-2C88.1,94.6,88.4,94.6,88.8,94.6"/>
				</g>
			</g>
		</g>
	</g>
</g>
<line stroke="#000000" stroke-miterlimit="10" x1="91.3" y1="70.6" x2="91.3" y2="94.7"/>
<line fill="none" stroke="#000000" stroke-miterlimit="10" stroke-dasharray="1" x1="24.5" y1="157.4" x2="24.5" y2="185.7"/>
<g>
	<g>
		<line fill="none" stroke="#000000" stroke-miterlimit="10" x1="30.7" y1="176.5" x2="130.1" y2="176.5"/>
		<g>
			<polygon points="31.9,180.5 25,176.5 31.9,172.5 			"/>
		</g>
		<g>
			<polygon points="129,180.5 135.9,176.5 129,172.5 			"/>
		</g>
	</g>
</g>
<line fill="none" stroke="#000000" stroke-miterlimit="10" stroke-dasharray="1" x1="158.6" y1="103" x2="172.8" y2="103"/>
<line fill="none" stroke="#000000" stroke-miterlimit="10" stroke-dasharray="1" x1="158.7" y1="152" x2="172.9" y2="152"/>
<g>
	<g>
		<line fill="none" stroke="#000000" stroke-miterlimit="10" x1="163.8" y1="108.7" x2="163.8" y2="145.4"/>
		<g>
			<polygon points="159.8,109.9 163.8,103 167.8,109.9 			"/>
		</g>
		<g>
			<polygon points="159.8,144.3 163.8,151.2 167.8,144.3 			"/>
		</g>
	</g>
</g>
<g>
	<g>
		<line fill="none" stroke="#2BB673" stroke-miterlimit="10" x1="17.9" y1="62.8" x2="17.9" y2="72.4"/>
		<g>
			<polygon fill="#2BB673" points="15.4,63.6 17.9,59.3 20.4,63.6 			"/>
		</g>
		<g>
			<polygon fill="#2BB673" points="15.4,71.7 17.9,76 20.4,71.7 			"/>
		</g>
	</g>
</g>
<line fill="none" stroke="#000000" stroke-miterlimit="10" stroke-dasharray="1" x1="136.8" y1="156.2" x2="136.8" y2="184.5"/>
<line fill="none" stroke="#00A651" stroke-width="0.5" stroke-miterlimit="10" x1="115.6" y1="78.3" x2="115.6" y2="78.3"/>
<line fill="none" stroke="#000000" stroke-miterlimit="10" stroke-dasharray="1" x1="159.7" y1="152" x2="159.7" y2="180.4"/>
<line fill="none" stroke="#000000" stroke-miterlimit="10" x1="24.4" y1="85.3" x2="137.8" y2="85.3"/>
<g>
	<g>
		<line fill="none" stroke="#000000" stroke-miterlimit="10" x1="142.1" y1="175.4" x2="153.8" y2="173.6"/>
		<g>
			<polygon points="143.9,179.2 136.4,176.2 142.7,171.3 			"/>
		</g>
		<g>
			<polygon points="153.2,177.7 159.4,172.8 152,169.8 			"/>
		</g>
	</g>
</g>
<text transform="matrix(1 0 0 1 47 168.25)" font-family="'ArialMT'" font-size="12">Light Source</text>
<text transform="matrix(1 0 0 1 112.5 101.5)" font-family="'ArialMT'" font-size="12">Interface</text>
<text transform="matrix(1.263823e-02 -0.9999 0.9999 1.263823e-02 174.288 141.8405)" font-family="'ArialMT'" font-size="12">4 cm</text>
<text transform="matrix(1 0 0 1 61.75 187.25)" font-family="'ArialMT'" font-size="12">25 cm</text>
<text transform="matrix(-2.251014e-03 -1 1 -2.251014e-03 152.8261 169.8822)" font-family="'ArialMT'" font-size="12">25 cm</text>
<text transform="matrix(1 0 0 1 48.25 98.75)" font-family="'ArialMT'" font-size="12">C-boat</text>
</svg>
